<svg width="18" height="18" viewBox="0 0 18 18" fill="none" xmlns="http://www.w3.org/2000/svg">
<path d="M4.07157 2.27583C6.06645 3.79465 8.21217 6.87419 8.99997 8.52685C9.78783 6.87431 11.9334 3.79462 13.9284 2.27583C15.3678 1.1799 17.7 0.331942 17.7 3.0302C17.7 3.56908 17.3953 7.55707 17.2166 8.2045C16.5955 10.4554 14.3323 11.0295 12.3191 10.6821C15.8381 11.2895 16.7333 13.3014 14.8 15.3133C11.1283 19.1343 9.52275 14.3546 9.11115 13.1298C9.03573 12.9053 9.00043 12.8003 8.99992 12.8896C8.99939 12.8003 8.9641 12.9053 8.88869 13.1298C8.47726 14.3546 6.8717 19.1344 3.19979 15.3133C1.26647 13.3014 2.16164 11.2893 5.6807 10.6821C3.66746 11.0295 1.4042 10.4554 0.783196 8.2045C0.60451 7.55701 0.299866 3.56902 0.299866 3.0302C0.299866 0.331942 2.63213 1.1799 4.07147 2.27583H4.07157Z" fill="#1185FE"/>
</svg>
