<svg width="602" height="584" viewBox="0 0 602 584" fill="none" xmlns="http://www.w3.org/2000/svg">
<g filter="url(#filter0_ddi_194_63)">
<path d="M575.626 232.156L506.862 47.9174C494.51 14.8373 460.409 -4.82885 425.571 1.02665L231.492 33.6402C203.753 38.306 178.617 52.8047 160.708 74.4771L35.3809 226.102C12.8838 253.327 12.8838 292.671 35.3809 319.895L160.697 471.52C178.606 493.193 203.741 507.691 231.48 512.357L425.56 544.971C460.409 550.826 494.51 531.16 506.85 498.08L575.614 313.841C585.444 287.503 585.444 258.506 575.614 232.179L575.626 232.156ZM511.439 351.331L485.322 396.822C483.56 399.901 480.442 401.954 476.917 402.374L428.665 408.125C412.157 410.096 397.202 418.774 387.314 432.13L358.43 471.17C356.317 474.016 352.99 475.708 349.441 475.719L296.952 475.871C293.403 475.871 290.052 474.215 287.927 471.369L258.822 432.491C248.864 419.194 233.85 410.586 217.33 408.719L169.044 403.249C165.518 402.852 162.39 400.811 160.603 397.743L134.23 352.404C132.444 349.336 132.222 345.615 133.623 342.349L152.77 297.721C159.319 282.453 159.272 265.166 152.63 249.944L133.226 205.433C131.814 202.179 132.012 198.458 133.775 195.378L159.891 149.887C161.654 146.808 164.771 144.755 168.297 144.335L216.548 138.584C233.056 136.613 248.012 127.935 257.9 114.579L286.783 75.5386C288.896 72.6925 292.223 71.0012 295.773 70.9895L348.273 70.8379C351.823 70.8379 355.173 72.4942 357.298 75.3403L386.403 114.218C396.361 127.515 411.375 136.123 427.883 137.99L476.169 143.46C479.695 143.857 482.824 145.898 484.61 148.966L510.983 194.317C512.769 197.385 512.991 201.105 511.59 204.371L492.444 248.988C485.894 264.256 485.941 281.543 492.584 296.777L511.987 341.288C513.4 344.542 513.201 348.263 511.439 351.342V351.331Z" fill="url(#paint0_linear_194_63)"/>
<path d="M425.955 3.30859C459.437 -2.31891 492.215 16.3902 504.41 47.9785L504.695 48.7266L573.105 232.02L573.094 232.043L573.447 232.988C583.082 258.793 583.082 287.216 573.447 313.032L504.683 497.271C492.731 529.311 459.701 548.361 425.944 542.689L231.864 510.076C204.673 505.503 180.034 491.29 162.48 470.047L37.1643 318.422C15.3741 292.053 15.3742 253.945 37.1643 227.576L162.491 75.9512C179.771 55.0399 203.916 40.9416 230.603 36.1436L231.875 35.9219L425.955 3.30859ZM295.766 68.6758H295.765C291.482 68.6899 287.471 70.7311 284.926 74.1592L284.923 74.1631L256.04 113.202C246.531 126.045 232.15 134.391 216.274 136.287L168.023 142.038C163.776 142.544 160.014 145.018 157.885 148.735L131.769 194.227L131.767 194.229C129.64 197.944 129.402 202.434 131.104 206.354L131.106 206.357L150.509 250.868V250.869C156.896 265.505 156.942 282.127 150.644 296.81L131.497 341.438C129.809 345.373 130.075 349.864 132.231 353.567L158.604 398.906V398.907C160.757 402.606 164.531 405.068 168.783 405.547V405.548L217.07 411.019H217.071C232.956 412.813 247.394 421.09 256.97 433.877V433.878L286.073 472.752V472.753C288.641 476.192 292.683 478.184 296.951 478.185H296.958L349.448 478.033H349.448C353.731 478.019 357.743 475.978 360.288 472.55L360.29 472.546L389.172 433.506L389.173 433.507C398.682 420.664 413.063 412.318 428.94 410.422L428.939 410.421L477.191 404.671C481.439 404.165 485.201 401.689 487.33 397.971L487.329 397.97L509.125 360.006V360.04L513.447 352.492C515.574 348.776 515.811 344.287 514.11 340.366L514.108 340.363L494.704 295.852C488.317 281.204 488.273 264.582 494.571 249.899L494.57 249.898L513.716 205.284V205.283C515.352 201.47 515.154 197.136 513.179 193.502L512.983 193.152L486.611 147.803L486.61 147.802L486.403 147.458C484.219 143.95 480.549 141.625 476.429 141.161H476.43L428.144 135.69H428.143C412.517 133.924 398.283 125.875 388.707 113.427L388.255 112.831L359.151 73.9561H359.152C356.584 70.517 352.542 68.5245 348.274 68.5244H348.267L295.766 68.6758Z" stroke="url(#paint1_linear_194_63)" stroke-width="4.62699"/>
</g>
<defs>
<filter id="filter0_ddi_194_63" x="8.01086e-05" y="-8.79129" width="601.494" height="591.805" filterUnits="userSpaceOnUse" color-interpolation-filters="sRGB">
<feFlood flood-opacity="0" result="BackgroundImageFix"/>
<feColorMatrix in="SourceAlpha" type="matrix" values="0 0 0 0 0 0 0 0 0 0 0 0 0 0 0 0 0 0 127 0" result="hardAlpha"/>
<feOffset dy="18.508"/>
<feGaussianBlur stdDeviation="9.25399"/>
<feComposite in2="hardAlpha" operator="out"/>
<feColorMatrix type="matrix" values="0 0 0 0 0 0 0 0 0 0 0 0 0 0 0 0 0 0 0.25 0"/>
<feBlend mode="normal" in2="BackgroundImageFix" result="effect1_dropShadow_194_63"/>
<feColorMatrix in="SourceAlpha" type="matrix" values="0 0 0 0 0 0 0 0 0 0 0 0 0 0 0 0 0 0 127 0" result="hardAlpha"/>
<feOffset dy="18.508"/>
<feGaussianBlur stdDeviation="9.25399"/>
<feComposite in2="hardAlpha" operator="out"/>
<feColorMatrix type="matrix" values="0 0 0 0 0 0 0 0 0 0 0 0 0 0 0 0 0 0 0.25 0"/>
<feBlend mode="normal" in2="effect1_dropShadow_194_63" result="effect2_dropShadow_194_63"/>
<feBlend mode="normal" in="SourceGraphic" in2="effect2_dropShadow_194_63" result="shape"/>
<feColorMatrix in="SourceAlpha" type="matrix" values="0 0 0 0 0 0 0 0 0 0 0 0 0 0 0 0 0 0 127 0" result="hardAlpha"/>
<feOffset dx="9.25399" dy="-9.25399"/>
<feGaussianBlur stdDeviation="4.39564"/>
<feComposite in2="hardAlpha" operator="arithmetic" k2="-1" k3="1"/>
<feColorMatrix type="matrix" values="0 0 0 0 0 0 0 0 0 0 0 0 0 0 0 0 0 0 0.25 0"/>
<feBlend mode="normal" in2="shape" result="effect3_innerShadow_194_63"/>
</filter>
<linearGradient id="paint0_linear_194_63" x1="-2.99193" y1="156.5" x2="582.508" y2="561.5" gradientUnits="userSpaceOnUse">
<stop stop-color="#171717"/>
<stop offset="0.122199" stop-color="#202020"/>
<stop offset="0.288813" stop-color="#141414"/>
<stop offset="0.571314" stop-color="#242424"/>
<stop offset="0.752458" stop-color="#0D0D0D"/>
<stop offset="1" stop-color="#0D0D0D"/>
</linearGradient>
<linearGradient id="paint1_linear_194_63" x1="483.521" y1="532.104" x2="175.826" y2="53.2104" gradientUnits="userSpaceOnUse">
<stop stop-color="#1B1B1B"/>
<stop offset="0.187531" stop-color="#1C1C1C"/>
<stop offset="0.310406" stop-color="#222222"/>
<stop offset="0.501556" stop-color="#2F2F2F"/>
<stop offset="0.644508" stop-color="#3C3C3C"/>
<stop offset="0.764527" stop-color="#1C1C1C"/>
<stop offset="1" stop-color="#262626"/>
</linearGradient>
</defs>
</svg>
