<svg width="95" height="25" viewBox="0 0 95 25" fill="none" xmlns="http://www.w3.org/2000/svg">
<path d="M14.6047 7.67021L8.45405 20.3098C8.37002 20.4834 8.13538 20.515 8.00879 20.3688C6.18956 18.2876 1.27536 18.8267 0.0214312 15.8638C-0.0440479 15.7089 0.0465322 15.5321 0.211321 15.495C1.37576 15.2319 5.91455 13.8634 14.1955 7.34063C14.4203 7.16275 14.7302 7.41266 14.6058 7.67021H14.6047ZM22.3094 10.1508C22.4731 9.98708 22.8093 9.93906 22.8442 10.3407C22.9151 11.1581 22.0191 13.5633 21.3796 14.0762C21.2519 14.1788 20.9147 14.2367 20.7336 14.1668C19.8594 13.8296 19.0071 12.556 18.6873 12.3727C18.6186 12.3334 18.5116 12.34 18.4363 12.4393C18.385 12.5069 17.8154 13.8765 17.6037 14.3021C17.5524 14.4025 17.5677 14.5215 17.6408 14.6044C17.7161 14.6885 19.5724 16.8547 18.9995 17.921C18.3643 19.1029 15.1984 20.539 13.9467 20.4506C13.3977 20.4124 13.4534 20.0086 13.891 19.6267C14.4443 19.1443 16.9456 17.3316 16.0431 17.0665C13.5822 16.344 9.62067 23.3306 8.70724 24.4427C8.5479 24.6271 8.27507 24.9676 7.94331 24.8235C7.57772 24.6653 7.69667 24.2539 7.80799 24.0258C7.9946 23.6416 18.9744 1.07974 19.3138 0.379118C19.376 0.250343 19.4502 0.10847 19.5757 0.039717C19.7121 -0.0355839 19.902 -0.00175424 19.9958 0.123747C20.1082 0.273258 20.0591 0.488247 20.0089 0.669406C19.7317 1.67997 18.623 5.73094 18.5608 5.95793C19.2254 5.48758 20.1683 5.51704 20.8416 5.97539C21.54 6.45121 21.7801 7.28934 21.5892 8.04453C21.3971 8.79863 20.7172 9.40431 19.9456 9.5058C20.01 9.63676 20.8111 11.5215 21.0282 11.5706C21.0762 11.5815 21.1253 11.5891 21.1723 11.5749C21.3949 11.5073 22.0672 10.393 22.3083 10.1519L22.3094 10.1508ZM17.0395 9.65423L16.9991 9.69788L16.9587 9.65423C16.1893 8.83246 14.8743 9.93251 15.5051 10.8885C15.6862 11.1613 16.1227 11.6863 16.4763 12.0999C16.759 12.4305 17.2239 12.4327 17.5087 12.1031C17.8645 11.6917 18.3043 11.169 18.4865 10.8961C19.125 9.9467 17.8165 8.83574 17.0395 9.65313V9.65423Z" fill="#DDDEE2"/>
<path d="M14.6047 7.67021L8.45405 20.3098C8.37002 20.4834 8.13538 20.515 8.00879 20.3688C6.18956 18.2876 1.27536 18.8267 0.0214312 15.8638C-0.0440479 15.7089 0.0465322 15.5321 0.211321 15.495C1.37576 15.2319 5.91455 13.8634 14.1955 7.34063C14.4203 7.16275 14.7302 7.41266 14.6058 7.67021H14.6047ZM22.3094 10.1508C22.4731 9.98708 22.8093 9.93906 22.8442 10.3407C22.9151 11.1581 22.0191 13.5633 21.3796 14.0762C21.2519 14.1788 20.9147 14.2367 20.7336 14.1668C19.8594 13.8296 19.0071 12.556 18.6873 12.3727C18.6186 12.3334 18.5116 12.34 18.4363 12.4393C18.385 12.5069 17.8154 13.8765 17.6037 14.3021C17.5524 14.4025 17.5677 14.5215 17.6408 14.6044C17.7161 14.6885 19.5724 16.8547 18.9995 17.921C18.3643 19.1029 15.1984 20.539 13.9467 20.4506C13.3977 20.4124 13.4534 20.0086 13.891 19.6267C14.4443 19.1443 16.9456 17.3316 16.0431 17.0665C13.5822 16.344 9.62067 23.3306 8.70724 24.4427C8.5479 24.6271 8.27507 24.9676 7.94331 24.8235C7.57772 24.6653 7.69667 24.2539 7.80799 24.0258C7.9946 23.6416 18.9744 1.07974 19.3138 0.379118C19.376 0.250343 19.4502 0.10847 19.5757 0.039717C19.7121 -0.0355839 19.902 -0.00175424 19.9958 0.123747C20.1082 0.273258 20.0591 0.488247 20.0089 0.669406C19.7317 1.67997 18.623 5.73094 18.5608 5.95793C19.2254 5.48758 20.1683 5.51704 20.8416 5.97539C21.54 6.45121 21.7801 7.28934 21.5892 8.04453C21.3971 8.79863 20.7172 9.40431 19.9456 9.5058C20.01 9.63676 20.8111 11.5215 21.0282 11.5706C21.0762 11.5815 21.1253 11.5891 21.1723 11.5749C21.3949 11.5073 22.0672 10.393 22.3083 10.1519L22.3094 10.1508ZM17.0395 9.65423L16.9991 9.69788L16.9587 9.65423C16.1893 8.83246 14.8743 9.93251 15.5051 10.8885C15.6862 11.1613 16.1227 11.6863 16.4763 12.0999C16.759 12.4305 17.2239 12.4327 17.5087 12.1031C17.8645 11.6917 18.3043 11.169 18.4865 10.8961C19.125 9.9467 17.8165 8.83574 17.0395 9.65313V9.65423Z" fill="#DDDEE2"/>
<path d="M32.2263 11.6186H27.1822V7.29696H25.6205V17.4146H27.1822V13.1213H32.2263V17.4146H33.7879V7.29696H32.2263V11.6186Z" fill="#DDDEE2"/>
<path d="M41.4208 10.7075C41.1076 10.3801 40.7387 10.1226 40.3153 9.93377C39.8908 9.74607 39.4335 9.65222 38.9424 9.65222C38.3837 9.65222 37.8653 9.75152 37.3884 9.94796C36.9115 10.1455 36.5011 10.4249 36.1596 10.7861C35.8169 11.1473 35.5495 11.574 35.3574 12.0651C35.1643 12.5562 35.0682 13.1008 35.0682 13.6988C35.0682 14.4507 35.2396 15.1153 35.5812 15.6937C35.9227 16.2721 36.3953 16.7272 36.9977 17.0601C37.6001 17.3929 38.2909 17.5588 39.0723 17.5588C39.4292 17.5588 39.7926 17.5086 40.1636 17.4071C40.5347 17.3056 40.8861 17.1681 41.2189 16.9957C41.5518 16.8222 41.8333 16.6203 42.0647 16.3889L41.3128 15.3336C40.9374 15.661 40.587 15.888 40.2651 16.0135C39.9421 16.139 39.5928 16.2012 39.2174 16.2012C38.6871 16.2012 38.22 16.0954 37.8151 15.8836C37.4102 15.6719 37.097 15.3707 36.8755 14.98C36.7074 14.6854 36.6037 14.3503 36.5633 13.9749H42.3681L42.3823 13.3387C42.3921 12.8083 42.3124 12.3194 42.1433 11.872C41.9741 11.4234 41.734 11.036 41.4208 10.7086V10.7075ZM37.6263 11.3219C37.9832 11.1244 38.4208 11.0251 38.9413 11.0251C39.2687 11.0251 39.5721 11.0971 39.8515 11.2423C40.1309 11.3863 40.3622 11.5849 40.5456 11.8349C40.7289 12.0859 40.8348 12.3696 40.8631 12.6872V12.7887H36.6179C36.6638 12.5693 36.7292 12.3685 36.8154 12.1884C36.9988 11.8076 37.2683 11.5184 37.6252 11.3208L37.6263 11.3219Z" fill="#DDDEE2"/>
<path d="M49.2183 10.9824C49.0655 10.7369 48.8746 10.5175 48.6476 10.3255C48.402 10.1181 48.115 9.95661 47.7876 9.84093C47.4602 9.72525 47.099 9.66741 46.7039 9.66741C46.0393 9.66741 45.4391 9.83657 44.9043 10.1738C44.3696 10.511 43.9451 10.9759 43.6319 11.5685C43.3187 12.1611 43.1615 12.8388 43.1615 13.5994C43.1615 14.3601 43.3154 15.0258 43.6242 15.6227C43.9331 16.2208 44.3445 16.6922 44.8607 17.0393C45.3758 17.3863 45.9466 17.5598 46.5741 17.5598C46.9397 17.5598 47.29 17.502 47.6217 17.3863C47.9546 17.2706 48.258 17.1167 48.5319 16.9236C48.8069 16.7304 49.0328 16.5122 49.2107 16.2655C49.2129 16.2622 49.215 16.259 49.2183 16.2546V17.4147H50.7211V9.82566H49.2183V10.9824ZM48.9793 14.9363C48.7818 15.327 48.5101 15.6326 48.163 15.8541C47.816 16.0756 47.4166 16.1869 46.9637 16.1869C46.5108 16.1869 46.1277 16.0767 45.7861 15.8541C45.4435 15.6326 45.1739 15.327 44.9764 14.9363C44.7788 14.5456 44.6795 14.1003 44.6795 13.5994C44.6795 13.0985 44.7777 12.6696 44.9764 12.2844C45.1739 11.8992 45.4435 11.5958 45.7861 11.3742C46.1277 11.1527 46.5206 11.0414 46.9637 11.0414C47.4067 11.0414 47.816 11.1527 48.163 11.3742C48.5101 11.5958 48.7818 11.8992 48.9793 12.2844C49.1769 12.6696 49.2751 13.1083 49.2751 13.5994C49.2751 14.0905 49.1758 14.5467 48.9793 14.9363Z" fill="#DDDEE2"/>
<path d="M60.8418 7.88973H59.3532V9.82682H57.7785V11.2717H59.3532V17.4148H60.8418V11.2717H62.6054V9.82682H60.8418V7.88973Z" fill="#DDDEE2"/>
<path d="M70.6977 11.6187H65.6536V7.29707H64.0919V17.4147H65.6536V13.1214H70.6977V17.4147H72.2594V7.29707H70.6977V11.6187Z" fill="#DDDEE2"/>
<path d="M79.8918 10.7075C79.5786 10.3801 79.2097 10.1226 78.7863 9.93377C78.3618 9.74607 77.9045 9.65222 77.4134 9.65222C76.8547 9.65222 76.3363 9.75152 75.8594 9.94796C75.3825 10.1455 74.9722 10.4249 74.6306 10.7861C74.2879 11.1473 74.0205 11.574 73.8285 12.0651C73.6353 12.5562 73.5393 13.1008 73.5393 13.6988C73.5393 14.4507 73.7106 15.1153 74.0522 15.6937C74.3938 16.2721 74.8663 16.7272 75.4687 17.0601C76.0711 17.3929 76.7619 17.5588 77.5433 17.5588C77.9002 17.5588 78.2636 17.5086 78.6346 17.4071C79.0057 17.3056 79.3571 17.1681 79.6899 16.9957C80.0228 16.8222 80.3043 16.6203 80.5357 16.3889L79.7838 15.3336C79.4084 15.661 79.0581 15.888 78.7361 16.0135C78.4131 16.139 78.0639 16.2012 77.6884 16.2012C77.1581 16.2012 76.691 16.0954 76.2861 15.8836C75.8812 15.6719 75.568 15.3707 75.3465 14.98C75.1784 14.6854 75.0747 14.3503 75.0344 13.9749H80.8391L80.8533 13.3387C80.8631 12.8083 80.7834 12.3194 80.6143 11.872C80.4451 11.4234 80.205 11.036 79.8918 10.7086V10.7075ZM76.0973 11.3219C76.4542 11.1244 76.8918 11.0251 77.4123 11.0251C77.7397 11.0251 78.0431 11.0971 78.3225 11.2423C78.6019 11.3863 78.8332 11.5849 79.0166 11.8349C79.1999 12.0859 79.3058 12.3696 79.3342 12.6872V12.7887H75.0889C75.1348 12.5693 75.2002 12.3685 75.2865 12.1884C75.4698 11.8076 75.7394 11.5184 76.0962 11.3208L76.0973 11.3219Z" fill="#DDDEE2"/>
<path d="M93.9019 11.5827C93.5647 10.9901 93.1042 10.523 92.5214 10.1803C91.9387 9.83875 91.2806 9.66741 90.5483 9.66741C89.816 9.66741 89.1438 9.83875 88.561 10.1803C87.9783 10.523 87.5177 10.9901 87.1805 11.5827C86.8433 12.1753 86.6741 12.853 86.6741 13.6136C86.6741 14.3743 86.8422 15.052 87.1805 15.6446C87.5177 16.2371 87.9783 16.7042 88.561 17.0469C89.1438 17.3896 89.8062 17.5598 90.5483 17.5598C91.2904 17.5598 91.9387 17.3885 92.5214 17.0469C93.1042 16.7053 93.5647 16.2371 93.9019 15.6446C94.2392 15.052 94.4083 14.3754 94.4083 13.6136C94.4083 12.8519 94.2392 12.1753 93.9019 11.5827ZM92.6011 14.9363C92.3992 15.327 92.1187 15.6347 91.763 15.8617C91.4061 16.0887 91.0012 16.2011 90.5483 16.2011C90.0954 16.2011 89.6884 16.0876 89.3271 15.8617C88.9659 15.6358 88.6844 15.327 88.4814 14.9363C88.2795 14.5456 88.1823 14.1047 88.1922 13.6136C88.1823 13.1225 88.2784 12.6816 88.4814 12.2909C88.6833 11.9002 88.9659 11.5925 89.3271 11.3655C89.6884 11.1396 90.0954 11.0261 90.5483 11.0261C91.0012 11.0261 91.4061 11.1374 91.763 11.359C92.1198 11.5805 92.3992 11.8861 92.6011 12.2768C92.803 12.6674 92.9001 13.1127 92.8903 13.6136C92.9001 14.1047 92.8041 14.5456 92.6011 14.9363Z" fill="#DDDEE2"/>
<path d="M56.6574 9.70343C56.5221 9.68051 56.3813 9.66741 56.234 9.66741C55.8772 9.66741 55.5334 9.75363 55.2005 9.92715C54.8677 10.1007 54.5741 10.3364 54.3187 10.6354C54.1561 10.8264 54.023 11.0305 53.9215 11.2487V9.82566H52.4177V17.4147H53.9215V13.2229C53.9215 12.9436 53.9739 12.686 54.0808 12.4492C54.1867 12.2135 54.3286 12.0061 54.5075 11.8271C54.6854 11.6492 54.8928 11.5096 55.1296 11.4081C55.3653 11.3066 55.6141 11.2564 55.8739 11.2564C56.0092 11.2564 56.1456 11.2738 56.2853 11.3066C56.4206 11.3393 56.545 11.3797 56.6585 11.4255V9.70124L56.6574 9.70343Z" fill="#DDDEE2"/>
<path d="M86.0927 9.70343C85.9574 9.68051 85.8166 9.66741 85.6693 9.66741C85.3125 9.66741 84.9687 9.75363 84.6358 9.92715C84.303 10.1007 84.0094 10.3364 83.7541 10.6354C83.5914 10.8264 83.4583 11.0305 83.3568 11.2487V9.82566H81.853V17.4147H83.3568V13.2229C83.3568 12.9436 83.4092 12.686 83.5161 12.4492C83.622 12.2135 83.7639 12.0061 83.9428 11.8271C84.1218 11.6482 84.3281 11.5096 84.5649 11.4081C84.8006 11.3066 85.0494 11.2564 85.3092 11.2564C85.4445 11.2564 85.5809 11.2738 85.7206 11.3066C85.8559 11.3393 85.9803 11.3797 86.0938 11.4255V9.70124L86.0927 9.70343Z" fill="#DDDEE2"/>
</svg>
