<svg width="84" height="21" viewBox="0 0 84 21" fill="none" xmlns="http://www.w3.org/2000/svg">
<path d="M6.0602 1.54101C6.19269 0.725662 6.33216 0.0357497 6.36702 0.00787445C6.40886 -0.0200008 6.45768 0.0287809 6.48557 0.112407C6.51346 0.196032 6.62504 0.872007 6.73661 1.6107C6.84818 2.34243 6.95278 2.94871 6.9737 2.94871C6.99462 2.94871 7.37118 2.38424 7.81049 1.69433C8.24981 1.00441 8.64729 0.453878 8.68215 0.467816C8.71702 0.481754 8.73794 0.551442 8.73097 0.62113C8.71702 0.690818 8.54269 1.36679 7.98483 3.47834L9.26094 2.63512C10.0698 2.10549 10.5649 1.82673 10.5998 1.86855C10.6416 1.91036 10.293 2.39818 8.74491 4.30763L10.1814 4.08463C10.9694 3.95919 11.6876 3.85466 11.7853 3.85466C11.9247 3.84769 11.9457 3.8686 11.8759 3.93829C11.8341 3.98707 11.325 4.26582 10.7462 4.55154C10.1675 4.83726 9.69328 5.08814 9.69328 5.10905C9.69328 5.12995 10.2651 5.24842 10.9624 5.36689C11.6667 5.49233 12.364 5.60383 12.7964 5.63171L12.8382 6.32859L12.2943 6.27981C11.9945 6.25193 11.3529 6.1474 10.8578 6.04984C10.3697 5.95227 9.74209 5.84077 9.47014 5.80593C9.1912 5.76411 8.66123 5.72927 8.29862 5.72927C7.91509 5.72927 7.48972 5.77108 7.2875 5.8338C7.09922 5.88955 6.82029 6.01499 6.41584 6.29374L6.08112 6.09165C5.89981 5.97318 5.59299 5.84774 5.40471 5.80593C5.20946 5.76411 4.7562 5.72927 4.39358 5.72927C4.03097 5.73624 3.45219 5.78502 3.10353 5.84077C2.75486 5.89652 2.05056 6.02196 1.53454 6.11952C1.01851 6.21709 0.460652 6.29374 0.000414776 6.29374V5.59686L0.328159 5.58989C0.516438 5.58989 1.22771 5.48536 3.17326 5.13692L2.11332 4.57942C1.52756 4.27976 1.04641 3.98707 1.04641 3.94525C1.04641 3.89647 1.08825 3.85466 1.13706 3.85466C1.1789 3.86163 1.85531 3.95919 2.62934 4.08463C3.76599 4.26582 4.01703 4.28673 3.94729 4.2031C3.89848 4.14735 3.45916 3.60378 2.97801 3.00446C2.48988 2.39818 2.12727 1.88945 2.16213 1.86855C2.20397 1.84764 2.7967 2.19608 3.48706 2.63512C4.17741 3.07415 4.74922 3.43653 4.76317 3.43653C4.77014 3.43653 4.60976 2.80237 4.4145 2.02186C4.21228 1.24832 4.04492 0.572348 4.04492 0.530535C4.04492 0.481754 4.07979 0.439941 4.11465 0.439941C4.15649 0.439941 4.55397 1.02532 5.82311 3.03234L6.0602 1.54101Z" fill="#DDDEE2"/>
<path fill-rule="evenodd" clip-rule="evenodd" d="M0 6.85124H12.7611V8.48891L12.4682 8.53073C12.3009 8.55163 12.0289 8.65617 11.8546 8.7607C11.6803 8.86523 11.4641 9.06733 11.3665 9.2067C11.2688 9.34608 11.1503 9.61786 11.1015 9.81299C11.0596 10.0011 11.0178 10.5168 11.0178 11.7294H9.135V10.0569H8.22848V11.7294H6.83382V8.31469H5.92729V11.7294H4.53264V10.0569H3.62611V11.7294H1.74332L1.72937 10.7329C1.70845 9.90358 1.68754 9.70149 1.56899 9.46455C1.49228 9.3182 1.3319 9.10217 1.22032 8.9837C1.10875 8.8722 0.885607 8.72585 0.732195 8.65617C0.578783 8.58648 0.348664 8.52376 0 8.52376V6.85124ZM82.473 7.09515L82.5567 7.81294C82.5986 8.20319 82.6195 8.55163 82.5986 8.59345C82.5776 8.63526 82.487 8.66314 82.3894 8.66314C82.2429 8.66314 82.2011 8.61435 82.1523 8.40529C82.1104 8.25894 82.0198 8.05685 81.9431 7.95232C81.8594 7.84082 81.6781 7.72235 81.5316 7.68053C81.3922 7.64569 80.925 7.61781 79.7395 7.65266L79.7047 9.84783L80.4299 9.8339C81.0435 9.81299 81.176 9.79208 81.3015 9.67361C81.3782 9.59696 81.4619 9.4297 81.4828 9.31123C81.5038 9.1858 81.5735 9.05339 81.6362 9.01855C81.706 8.9837 81.8036 8.96976 81.8524 8.99764C81.9152 9.03248 81.9291 9.3182 81.9012 11.2068H81.7339C81.5944 11.2068 81.5526 11.151 81.4759 10.8932C81.4271 10.7189 81.3364 10.5308 81.2667 10.475C81.176 10.3984 80.9668 10.3705 79.7395 10.3705L79.7186 11.4158C79.6977 12.3705 79.7116 12.4751 79.8371 12.6354C79.9627 12.8026 80.0115 12.8096 80.7646 12.8305C81.2806 12.8444 81.6572 12.8235 81.8594 12.7608C82.0407 12.705 82.2569 12.5726 82.3894 12.4263C82.5079 12.2939 82.6544 12.0639 82.7101 11.9176C82.7938 11.6946 82.8426 11.6597 83.2262 11.6597L83.1774 12.0221C83.1495 12.2242 83.0658 12.6005 82.8426 13.3322H80.1579C78.4355 13.3322 77.4593 13.3044 77.4383 13.2626C77.4174 13.2207 77.4174 13.1371 77.4383 13.0744C77.4593 12.9768 77.5708 12.935 77.8707 12.9071C78.1845 12.8723 78.303 12.8235 78.4007 12.6981C78.5122 12.5448 78.5262 12.3357 78.5192 7.89657L78.3449 7.72235C78.2472 7.62478 78.1078 7.54812 78.0311 7.54812C77.9544 7.54812 77.8428 7.53419 77.787 7.51328C77.7312 7.49237 77.6754 7.40875 77.6685 7.31815C77.6615 7.22756 77.6754 7.13696 77.6963 7.12303C77.7242 7.10909 78.8051 7.09515 82.473 7.09515ZM2.30118 12.496H3.62611L3.59124 19.8411L2.99851 20.2035C2.67077 20.4056 2.38486 20.5728 2.35 20.5728C2.3221 20.5798 2.30118 18.7609 2.30118 16.5379V12.496ZM59.5867 17.0815C59.7401 17.0954 59.9214 17.1442 59.9842 17.1721C60.0679 17.2139 60.1097 17.3161 60.1097 17.4787C60.1097 17.6111 60.1167 17.7435 60.1237 17.7714C60.1376 17.7923 60.1097 17.8271 60.0749 17.8411C60.04 17.855 59.9563 17.7644 59.9005 17.6459C59.8378 17.5135 59.7053 17.3811 59.5867 17.3323C59.4752 17.2836 59.3008 17.2627 59.2032 17.2766C59.1056 17.2905 58.98 17.3672 58.9243 17.4369C58.8615 17.5135 58.7987 17.6599 58.7848 17.7783C58.7639 17.8968 58.7918 18.0292 58.8545 18.1059C58.9103 18.1756 59.1753 18.3777 59.4473 18.5588C59.7959 18.7888 59.9772 18.963 60.0679 19.1582C60.1655 19.3533 60.1864 19.5136 60.1585 19.7435C60.1306 19.9596 60.0539 20.1199 59.9214 20.2523C59.8168 20.3568 59.6007 20.4822 59.4473 20.5171C59.2799 20.5589 59.0219 20.5659 58.8197 20.538C58.6244 20.5101 58.4152 20.4335 58.3525 20.3777C58.2897 20.315 58.22 20.1338 58.199 19.9735C58.1642 19.7366 58.1781 19.6739 58.2618 19.6739C58.3176 19.6739 58.3803 19.7296 58.4013 19.7993C58.4152 19.862 58.5198 20.0084 58.6244 20.1129C58.7709 20.2592 58.8964 20.315 59.1195 20.322C59.3775 20.3359 59.4473 20.308 59.6007 20.1268C59.7471 19.9596 59.768 19.869 59.7332 19.6739C59.7122 19.5415 59.6495 19.3881 59.6007 19.3324C59.5588 19.2766 59.3148 19.0954 59.0637 18.9282C58.8127 18.7609 58.5547 18.5379 58.4919 18.4334C58.4222 18.3289 58.3664 18.1128 58.3664 17.9317C58.3664 17.7505 58.4152 17.5553 58.478 17.4647C58.5407 17.3742 58.6593 17.2696 58.743 17.2208C58.8197 17.179 58.987 17.1163 59.0986 17.0884C59.2102 17.0675 59.4333 17.0606 59.5867 17.0815ZM22.8375 17.1302C23.2629 17.1302 23.4302 17.1512 23.4302 17.2208C23.4302 17.2627 23.3535 17.3184 23.0816 17.3742V18.4404C23.0816 19.3115 23.1025 19.5415 23.2071 19.7366C23.2699 19.869 23.4163 20.0432 23.5209 20.1199C23.6464 20.2174 23.8277 20.2662 24.016 20.2662C24.1834 20.2662 24.3926 20.2244 24.4832 20.1826C24.5739 20.1338 24.7273 19.9596 24.8179 19.7993C24.9644 19.5415 24.9923 19.3881 25.0132 18.7679C25.0271 18.3637 25.0132 17.8968 24.9853 17.7226C24.9434 17.4996 24.8807 17.3881 24.7691 17.3393C24.6854 17.2975 24.6157 17.2417 24.6157 17.1999C24.6157 17.1581 24.8388 17.1302 25.1387 17.1302C25.4385 17.1302 25.6617 17.1581 25.6617 17.1999C25.6617 17.2417 25.592 17.2975 25.5083 17.3393C25.3897 17.3881 25.3339 17.4926 25.2991 17.7226C25.2782 17.8968 25.2503 18.3637 25.2503 18.7679C25.2503 19.1721 25.2084 19.6111 25.1666 19.7435C25.1178 19.876 25.0201 20.0641 24.9365 20.1477C24.8598 20.2383 24.6924 20.3638 24.5808 20.4265C24.4553 20.4892 24.1903 20.538 23.9184 20.538C23.5976 20.538 23.3884 20.5031 23.1931 20.4056C23.0467 20.3289 22.8584 20.1547 22.7747 20.0223C22.6423 19.8063 22.6213 19.646 22.5934 18.5937C22.5586 17.4508 22.5516 17.409 22.3982 17.3393C22.3145 17.2975 22.2448 17.2417 22.2448 17.1999C22.2448 17.1581 22.4888 17.1302 22.8375 17.1302ZM29.5528 17.1302L29.8387 17.5135C29.9991 17.7226 30.4802 18.2871 31.6936 19.639L31.7145 19.186C31.7284 18.9352 31.7145 18.4334 31.6866 18.071C31.6378 17.4229 31.6308 17.409 31.4356 17.3393C31.331 17.2975 31.2333 17.2348 31.2264 17.1999C31.2124 17.1581 31.4216 17.1302 31.7633 17.1302C32.1608 17.1302 32.3281 17.1511 32.3421 17.2139C32.3491 17.2627 32.2863 17.3184 32.2026 17.3323C32.0841 17.3602 32.0283 17.4299 31.9934 17.632C31.9655 17.7783 31.9376 18.5031 31.9376 19.2418C31.9376 20.085 31.9098 20.5798 31.8679 20.5798C31.8261 20.5798 31.7773 20.538 31.7424 20.4822C31.7145 20.4265 31.2055 19.8272 29.5319 17.9177L29.5179 19.0258C29.504 19.8202 29.5249 20.1547 29.5877 20.2174C29.6295 20.2662 29.7271 20.308 29.7899 20.3011C29.8596 20.3011 29.9154 20.3498 29.9154 20.4056C29.9154 20.4892 29.8038 20.5101 29.3575 20.5101C28.9112 20.5101 28.7997 20.4892 28.7997 20.4056C28.7997 20.3498 28.8624 20.3011 28.9391 20.3011C29.0228 20.3011 29.1065 20.2314 29.1483 20.1268C29.1902 20.0293 29.2181 19.423 29.2181 18.7679C29.2181 17.6738 29.2041 17.5693 29.0786 17.4438C29.0019 17.3672 28.8903 17.3045 28.8345 17.3045C28.7787 17.3045 28.723 17.2627 28.716 17.2139C28.702 17.1442 28.8136 17.1233 29.5528 17.1302ZM40.3056 17.1302C40.7031 17.1302 40.8635 17.1581 40.8635 17.2139C40.8635 17.2627 40.8146 17.3045 40.7589 17.3045C40.7031 17.3045 40.6403 17.3254 40.6264 17.3532C40.6054 17.3881 40.7728 17.862 40.9959 18.4195C41.2191 18.977 41.4283 19.4927 41.4701 19.5693C41.5329 19.6878 41.6096 19.5415 42.0071 18.5937C42.2651 17.9804 42.4603 17.4369 42.4324 17.3881C42.4115 17.3463 42.3488 17.3045 42.293 17.3045C42.2372 17.3045 42.1884 17.2627 42.1884 17.2139C42.1884 17.1581 42.3348 17.1302 42.7044 17.1302C43.0112 17.1302 43.2204 17.1581 43.2135 17.1999C43.2065 17.2417 43.1367 17.2905 43.06 17.3114C42.9833 17.3323 42.8578 17.4578 42.7811 17.5902C42.7044 17.7226 42.4813 18.1895 42.286 18.6285C42.0908 19.0676 41.8258 19.6878 41.6933 20.0084C41.5608 20.3289 41.4353 20.5798 41.4004 20.5659C41.3725 20.5519 41.0726 19.8551 40.731 19.0118C40.2289 17.7644 40.0824 17.4578 39.936 17.3742C39.8314 17.3184 39.7477 17.2417 39.7477 17.1999C39.7477 17.1581 39.9778 17.1302 40.3056 17.1302ZM19.6647 6.9279C19.8739 6.9279 20.2365 6.94881 20.4666 6.98365C20.6967 7.0185 21.0593 7.08121 21.6521 7.19968L21.7078 7.70841C21.7357 7.98019 21.7845 8.35651 21.8612 8.8722H21.6521C21.4707 8.87917 21.4289 8.83736 21.3034 8.54467C21.2337 8.36348 21.0733 8.10563 20.9547 7.97322C20.8431 7.84778 20.62 7.67356 20.4666 7.59691C20.2923 7.50631 19.9994 7.44359 19.6647 7.42269C19.2951 7.40178 19.0301 7.42269 18.7581 7.50631C18.5489 7.56903 18.2212 7.74325 18.0259 7.88263C17.761 8.07775 17.6145 8.27288 17.4123 8.66314C17.1822 9.11611 17.1403 9.26942 17.1055 9.81299C17.0845 10.1754 17.0985 10.6005 17.1473 10.8235C17.1891 11.0325 17.3147 11.3949 17.4262 11.6249C17.5518 11.8827 17.7819 12.1824 18.019 12.4124C18.3397 12.705 18.5001 12.8026 18.9185 12.9211C19.2672 13.0256 19.5252 13.0605 19.7693 13.0396C19.9645 13.0186 20.2574 12.942 20.4317 12.8653C20.6061 12.7956 20.871 12.6075 21.0245 12.4542C21.1779 12.3078 21.3871 12.043 21.4777 11.8688C21.5939 11.6597 21.7055 11.5505 21.8124 11.5413C21.8961 11.5273 21.9798 11.5622 22.0007 11.6109C22.0216 11.6528 21.9937 11.9176 21.931 12.1824C21.8682 12.4472 21.7636 12.7956 21.6939 12.949C21.5753 13.2277 21.5614 13.2277 20.9477 13.3671C20.5084 13.4646 20.097 13.5065 19.5252 13.4995C19.0231 13.4925 18.5629 13.4507 18.2909 13.381C18.0469 13.3113 17.6564 13.165 17.4193 13.0396C17.1752 12.9211 16.8196 12.6632 16.6313 12.4681C16.436 12.273 16.1989 11.9385 16.0943 11.7294C15.9897 11.5203 15.8782 11.2068 15.8363 11.0325C15.7945 10.8583 15.7596 10.5377 15.7596 10.3147C15.7596 10.0987 15.7945 9.75027 15.8363 9.55514C15.8782 9.35305 15.9967 9.01855 16.1013 8.80948C16.1989 8.60739 16.3942 8.30773 16.5267 8.15441C16.6592 7.99413 16.959 7.75022 17.1891 7.60388C17.4193 7.45753 17.7958 7.27634 18.0259 7.19968C18.2561 7.12303 18.6326 7.03243 18.8627 6.99759C19.0929 6.96274 19.4555 6.93487 19.6647 6.9279ZM40.8216 6.96274C40.8635 6.97668 40.989 7.22756 41.0936 7.52722C41.2051 7.82688 41.6584 9.03945 42.0977 10.2311C42.544 11.4228 42.9624 12.4681 43.0252 12.5657C43.0879 12.6632 43.2344 12.7747 43.3459 12.8235C43.4575 12.8653 43.6318 12.9211 43.7434 12.942C43.8899 12.9768 43.9317 13.0256 43.9317 13.3322H41.2121V13.158C41.2121 13.0465 41.2609 12.9699 41.3376 12.9559C41.4004 12.942 41.5399 12.9071 41.6514 12.8862C41.77 12.8584 41.8397 12.8026 41.8397 12.726C41.8397 12.6563 41.7281 12.3009 41.5887 11.9385C41.4562 11.5761 41.2888 11.2346 41.2261 11.1858C41.1494 11.1301 40.8565 11.1022 40.3405 11.1022C39.9221 11.1022 39.5037 11.1301 39.413 11.158C39.2945 11.1928 39.2038 11.3461 39.0434 11.7991C38.9249 12.1266 38.8063 12.489 38.7854 12.6145C38.7366 12.8375 38.7436 12.8444 39.0434 12.8932C39.2108 12.9211 39.3712 12.9908 39.406 13.0396C39.4409 13.0814 39.4548 13.172 39.4339 13.2277C39.406 13.3183 39.2108 13.3322 37.0979 13.3322L37.1188 13.1511C37.1327 12.9908 37.1816 12.949 37.4535 12.8862C37.6278 12.8444 37.8231 12.7608 37.8928 12.705C37.9626 12.6493 38.0951 12.4611 38.1787 12.2869C38.2694 12.1127 38.6808 11.144 39.1062 10.1266C39.5316 9.10914 39.9221 8.12654 39.9778 7.93141C40.0476 7.68053 40.1661 7.49237 40.4032 7.2624C40.5915 7.08121 40.7728 6.94881 40.8216 6.96274ZM39.8593 9.63877C39.685 10.0778 39.5385 10.482 39.5385 10.5308C39.5385 10.5935 39.7268 10.6144 40.2568 10.6144C40.6543 10.6144 40.9959 10.5935 41.0238 10.5656C41.0448 10.5308 40.9471 10.1823 40.8007 9.77814C40.6543 9.37395 40.4869 8.93492 40.4311 8.80251C40.3335 8.57254 40.3265 8.56557 40.2568 8.69798C40.2149 8.77464 40.0336 9.19973 39.8593 9.63877ZM28.0884 7.09515L28.1302 7.33906C28.1512 7.47147 28.193 7.82688 28.2767 8.67707L28.0814 8.6492C27.9141 8.63526 27.8583 8.56557 27.7328 8.25198C27.6142 7.97322 27.5166 7.84082 27.3353 7.74325C27.1261 7.63175 26.9587 7.61781 25.3479 7.65266V9.81299L25.9755 9.8339C26.3242 9.84086 26.6798 9.81996 26.7774 9.77814C26.875 9.7433 26.9936 9.6318 27.0424 9.53424C27.0842 9.43667 27.1261 9.31124 27.1261 9.25548C27.1261 9.19973 27.1749 9.10217 27.2307 9.04642C27.3004 8.97673 27.3701 8.96279 27.4608 9.00461C27.5654 9.06733 27.5793 9.19277 27.5793 10.1196C27.5793 11.0674 27.5654 11.1789 27.4608 11.2068C27.3911 11.2277 27.3074 11.2277 27.2655 11.2068C27.2307 11.1858 27.154 11.0465 27.1121 10.8862C27.0633 10.7259 26.9657 10.5517 26.889 10.482C26.7914 10.3914 26.617 10.3705 25.3479 10.3705L25.327 11.2764C25.313 11.7782 25.3409 12.3009 25.3758 12.4472C25.4385 12.6493 25.5013 12.719 25.6826 12.7747C25.8012 12.8165 26.2335 12.8444 26.638 12.8444C27.2098 12.8444 27.4329 12.8165 27.6491 12.712C27.8025 12.6354 28.0117 12.4542 28.1163 12.3078C28.2209 12.1615 28.3394 11.9594 28.3743 11.8549C28.4371 11.7015 28.4928 11.6667 28.6463 11.6806C28.8276 11.6946 28.8345 11.7085 28.8136 12.0082C28.7997 12.1824 28.716 12.5448 28.4789 13.2974L23.0816 13.3322L23.1025 13.1441C23.1164 12.9838 23.1513 12.949 23.3256 12.928C23.4442 12.9211 23.6534 12.8793 23.7998 12.8444C24.016 12.7887 24.0718 12.7329 24.1345 12.5169C24.1834 12.3427 24.1973 11.4716 24.1834 10.0499C24.1694 8.55163 24.1345 7.81991 24.0857 7.75022C24.0439 7.69447 23.8626 7.61084 23.6813 7.56903C23.4233 7.49237 23.3605 7.44359 23.3466 7.31815C23.3396 7.22756 23.3535 7.13696 23.3745 7.12303C23.4023 7.10909 24.4693 7.09515 28.0884 7.09515ZM32.5652 7.07425C32.8163 7.06728 33.3323 7.09515 33.7158 7.13C34.0994 7.16484 34.6014 7.2415 34.8316 7.30422C35.0617 7.36694 35.4103 7.49237 35.5986 7.58994C35.7939 7.68053 36.1007 7.9105 36.289 8.09169C36.4842 8.27985 36.7213 8.60739 36.8468 8.8722C37.0491 9.30427 37.063 9.36699 37.063 10.1614C37.063 10.9907 37.056 11.0116 36.812 11.5203C36.6307 11.8897 36.4424 12.1475 36.1704 12.3915C35.9612 12.5866 35.6195 12.8235 35.4173 12.928C35.2081 13.0326 34.8385 13.172 34.5875 13.2347C34.3295 13.2974 33.8204 13.3531 33.402 13.3601C32.9976 13.3601 32.0632 13.3601 29.9851 13.3322L30.006 13.1441C30.02 12.9699 30.0549 12.949 30.3687 12.8932C30.5988 12.8584 30.7592 12.7887 30.8428 12.6841C30.9544 12.5448 30.9684 12.3427 30.9614 10.2172C30.9614 7.99413 30.9544 7.8896 30.8219 7.75719C30.7452 7.68053 30.6058 7.61781 30.5081 7.61781C30.4105 7.61781 30.285 7.60388 30.2292 7.58297C30.1734 7.56206 30.1246 7.48541 30.1246 7.40875C30.1246 7.33209 30.1664 7.24847 30.2152 7.22059C30.2571 7.18575 30.7104 7.14393 31.2055 7.12303C31.7075 7.10212 32.3142 7.08121 32.5652 7.07425ZM32.1747 7.82688C32.0911 7.97322 32.0771 8.34257 32.0911 10.0917C32.112 12.0221 32.1259 12.2033 32.2514 12.4472C32.356 12.6493 32.4676 12.7399 32.7047 12.8235C32.9348 12.9071 33.158 12.928 33.5415 12.9002C33.8623 12.8793 34.2109 12.7956 34.4411 12.6981C34.6781 12.5935 34.9431 12.3984 35.1593 12.1684C35.4173 11.8827 35.5289 11.6876 35.6335 11.3322C35.7265 11.0163 35.773 10.6609 35.773 10.266C35.773 9.93843 35.7311 9.5203 35.6753 9.32517C35.6126 9.13701 35.4661 8.82342 35.3406 8.63526C35.1942 8.41226 34.9571 8.18926 34.6921 8.022C34.4341 7.85475 34.0924 7.71538 33.8065 7.65266C33.5415 7.59691 33.1649 7.54812 32.9697 7.55509C32.7675 7.56206 32.5304 7.58297 32.4397 7.61084C32.3491 7.63872 32.2305 7.73628 32.1747 7.82688ZM47.6624 7.10909C47.8925 7.12303 48.2412 7.1509 48.4295 7.17181C48.6247 7.18575 48.9664 7.29028 49.1965 7.40178C49.4266 7.50631 49.6707 7.65963 49.7335 7.72931C49.7962 7.799 49.9008 7.98019 49.9566 8.12654C50.0194 8.26591 50.0682 8.57254 50.0682 8.80251C50.0682 9.05339 50.0194 9.3182 49.9496 9.47849C49.8799 9.61786 49.6986 9.84086 49.5452 9.9663C49.3918 10.0917 49.1617 10.2311 49.0431 10.266C48.9176 10.3078 48.813 10.3775 48.813 10.4262C48.813 10.4681 48.8967 10.6353 49.0013 10.7886C49.1059 10.9419 49.322 11.2416 49.4964 11.4507C49.6637 11.6597 50.0682 12.1127 50.4029 12.4472C50.7376 12.7887 51.2606 13.2556 51.5674 13.4856C51.8743 13.7155 52.3485 14.0082 52.6134 14.1406C52.8854 14.2661 53.3526 14.4333 53.6594 14.5169C53.9663 14.5936 54.4056 14.6563 54.6357 14.6563C54.8658 14.6563 55.2424 14.6075 55.4725 14.5518C55.7026 14.496 55.9327 14.4542 55.9815 14.4473C56.0234 14.4473 56.0652 14.496 56.0652 14.5518C56.0652 14.6075 55.9188 14.726 55.7375 14.8166C55.4376 14.956 55.2982 14.9699 54.4614 14.9629C53.6455 14.9629 53.4363 14.9351 52.8924 14.7678C52.5507 14.6633 51.9858 14.4403 51.6372 14.2661C51.2955 14.0988 50.6818 13.7086 50.2774 13.4089C49.8729 13.1092 49.2174 12.5169 48.813 12.0988C48.4085 11.6806 47.9692 11.1928 47.8367 11.0186C47.7042 10.8374 47.5299 10.6771 47.4532 10.6562C47.3765 10.6353 47.2091 10.6144 47.0906 10.6144C46.8953 10.6144 46.8535 10.6423 46.8117 10.8095C46.7907 10.9141 46.7907 11.3392 46.8117 11.7643C46.8326 12.1894 46.8675 12.5866 46.8884 12.6563C46.9163 12.726 47.0557 12.8026 47.2301 12.8514C47.3904 12.8932 47.5996 12.949 47.6973 12.9699C47.8088 13.0047 47.8716 13.0744 47.8716 13.158C47.8716 13.2904 47.8158 13.2974 46.3235 13.3183C44.9916 13.3322 44.7615 13.3183 44.7336 13.2277C44.7127 13.172 44.7267 13.0814 44.7615 13.0396C44.7964 12.9908 44.9498 12.928 45.1102 12.9002C45.2636 12.8653 45.4588 12.7817 45.5356 12.705C45.668 12.5726 45.675 12.4751 45.675 10.252C45.675 8.48891 45.6541 7.90353 45.5913 7.80597C45.5425 7.72931 45.3752 7.65266 45.2287 7.63175C45.0823 7.60388 44.9219 7.52722 44.8801 7.4645C44.8243 7.3739 44.8243 7.31815 44.894 7.25543C44.9568 7.19272 45.3333 7.1509 46.1143 7.13C46.735 7.10909 47.4323 7.10212 47.6624 7.10909ZM46.8047 8.81645C46.7977 9.48546 46.8186 9.99418 46.8535 10.0569C46.9093 10.1336 47.0557 10.1614 47.4323 10.1614C47.76 10.1614 48.039 10.1126 48.2203 10.036C48.3737 9.9663 48.5689 9.81299 48.6526 9.68755C48.7433 9.56211 48.8339 9.31123 48.8618 9.11611C48.8897 8.86523 48.8758 8.67707 48.7921 8.45407C48.7293 8.27985 48.5899 8.05685 48.4853 7.95232C48.3807 7.84778 48.1505 7.71538 47.9762 7.65266C47.8019 7.59691 47.5229 7.54812 47.3486 7.54812C47.1743 7.54812 46.986 7.58297 46.9302 7.61781C46.8465 7.66659 46.8186 7.89657 46.8047 8.81645ZM58.5407 7.11606L58.5616 7.29725C58.5756 7.4645 58.5407 7.48541 58.1921 7.58297C57.9062 7.65963 57.7667 7.74325 57.6412 7.91747C57.5505 8.03594 57.0833 8.99067 56.6022 10.0221C56.121 11.0604 55.598 12.2312 55.4376 12.6354C55.2772 13.0395 55.1099 13.4089 55.068 13.4577C55.0192 13.5065 54.9286 13.5413 54.8519 13.5274C54.7612 13.5134 54.6706 13.3462 54.5311 12.9838C54.4265 12.6981 53.8826 11.4437 53.3177 10.1963C52.7529 8.94886 52.2439 7.87566 52.1741 7.80597C52.1114 7.74325 51.9022 7.64569 51.7069 7.59691C51.4071 7.52025 51.3582 7.47844 51.3234 7.13L52.739 7.1509C54.0918 7.16484 54.1476 7.17181 54.1476 7.30422C54.1476 7.39481 54.0778 7.45753 53.9384 7.49934C53.8268 7.53419 53.6804 7.58994 53.6246 7.61781C53.5688 7.64569 53.5269 7.74325 53.5269 7.83385C53.5339 7.92444 53.7989 8.60042 54.1127 9.32517C54.4335 10.0499 54.8031 10.8932 55.1936 11.7364L55.8002 10.3566C56.1349 9.59696 56.5045 8.72585 56.6301 8.41923C56.7556 8.10563 56.8323 7.80597 56.8044 7.74325C56.7835 7.67356 56.637 7.58994 56.4836 7.54812C56.3302 7.51328 56.1907 7.42966 56.1698 7.3739C56.1489 7.31815 56.1628 7.22756 56.1977 7.18575C56.2465 7.11606 56.5603 7.09515 58.5407 7.11606ZM62.8642 7.12303L62.8851 7.30422C62.899 7.44359 62.8642 7.48541 62.7108 7.52025C62.5992 7.54116 62.4249 7.576 62.3063 7.60388C62.1878 7.63872 62.0622 7.72931 62.0134 7.82688C61.9507 7.95232 61.9228 8.60042 61.9228 10.2172C61.9228 11.5273 61.9507 12.496 61.9925 12.6005C62.0343 12.705 62.1459 12.8026 62.2924 12.8375C62.4109 12.8793 62.5922 12.9141 62.6898 12.928C62.8223 12.942 62.8711 12.9908 62.899 13.3322L61.351 13.3183C59.8796 13.2974 59.7959 13.2904 59.7959 13.165C59.7959 13.0953 59.8447 13.0117 59.9005 12.9768C59.9563 12.949 60.1237 12.9071 60.2701 12.8862C60.4096 12.8584 60.5769 12.7956 60.6327 12.7399C60.6885 12.6841 60.7582 12.4681 60.7792 12.273C60.8001 12.0709 60.807 11.0116 60.7931 9.91752C60.7792 8.82342 60.7443 7.87566 60.7164 7.81294C60.6885 7.74325 60.5351 7.65266 60.3747 7.61084C60.2073 7.56903 60.0051 7.50631 59.9214 7.47147C59.8308 7.43662 59.7541 7.36694 59.7471 7.31815C59.7401 7.26937 59.768 7.19968 59.8099 7.16484C59.8587 7.12303 60.5211 7.10212 62.8642 7.12303ZM67.4177 7.12303L67.4456 7.31815C67.4665 7.49237 67.4386 7.51328 67.1876 7.56206C67.0342 7.58994 66.8459 7.68053 66.7692 7.76416C66.6367 7.90353 66.6297 8.022 66.6088 9.98024C66.5949 11.3043 66.6088 12.1475 66.6576 12.3427C66.7204 12.5796 66.7831 12.6563 66.9784 12.7399C67.1388 12.8096 67.4526 12.8444 67.871 12.8444C68.401 12.8444 68.5683 12.8165 68.8263 12.6911C69.0564 12.5726 69.1959 12.4333 69.3633 12.1475C69.4888 11.9385 69.6213 11.7224 69.6631 11.6806C69.698 11.6318 69.7538 11.59 69.7886 11.59C69.8165 11.59 69.8863 11.6249 69.942 11.6597C70.0327 11.7155 70.0327 11.7852 69.9351 12.266C69.8723 12.5657 69.7677 12.928 69.5934 13.3322H64.5029L64.5238 13.1441C64.5308 12.9908 64.5796 12.942 64.7121 12.928C64.8097 12.9141 64.991 12.8793 65.1165 12.8375C65.256 12.8026 65.3676 12.705 65.4094 12.6005C65.4513 12.496 65.4791 11.5273 65.4791 10.2172C65.4791 8.60042 65.4513 7.95232 65.3885 7.82688C65.3397 7.72931 65.2142 7.63872 65.0956 7.60388C64.984 7.576 64.8027 7.54116 64.6981 7.52025C64.5587 7.49237 64.5029 7.43662 64.4889 7.31815C64.482 7.22756 64.4959 7.13696 64.5168 7.12303C64.5447 7.10909 65.2072 7.10212 67.4177 7.12303ZM72.5501 7.09515C73.861 7.09515 73.9935 7.10909 74.0214 7.22059C74.0423 7.28331 74.0145 7.38784 73.9726 7.44359C73.9238 7.49934 73.7774 7.56206 73.6588 7.58297C73.5333 7.60388 73.3659 7.68053 73.2892 7.75719C73.1567 7.8896 73.1498 7.98716 73.1498 12.4263L73.3171 12.6214C73.4775 12.8026 73.5193 12.8096 74.2097 12.8305C74.7327 12.8514 75.0047 12.8305 75.2069 12.7538C75.3603 12.6911 75.5834 12.5378 75.702 12.4124C75.8136 12.2869 75.96 12.0639 76.0158 11.9176C76.0716 11.7712 76.1692 11.6388 76.2389 11.6249C76.3017 11.604 76.3993 11.6179 76.4481 11.6597C76.5109 11.7015 76.5179 11.82 76.476 12.0918C76.4411 12.2939 76.3714 12.6214 76.3156 12.8096C76.2598 13.0047 76.1901 13.1998 76.1622 13.2416C76.1273 13.3113 75.5346 13.3253 71.0229 13.2974L71.009 13.1441C70.995 13.0396 71.0299 12.9768 71.1136 12.9559C71.1763 12.942 71.3437 12.9071 71.4762 12.8862C71.6087 12.8653 71.783 12.7817 71.8597 12.6981C71.9922 12.5587 71.9992 12.4542 71.9992 10.2241C71.9992 7.99413 71.9922 7.89657 71.8597 7.75719C71.783 7.68053 71.5808 7.59691 71.4134 7.56903C71.2461 7.53419 71.0717 7.4645 71.0299 7.39481C70.9741 7.31119 70.9741 7.25543 71.0369 7.18575C71.0996 7.11606 71.4413 7.09515 72.5501 7.09515ZM4.60237 12.496H5.92729L5.89243 18.8515L5.2997 19.0885C4.97195 19.2209 4.68605 19.3254 4.65815 19.3254C4.62329 19.3254 4.60237 17.7853 4.60237 15.9107V12.496ZM6.83382 12.496H8.22848V18.2453L7.69153 18.3707C7.39168 18.4473 7.07788 18.517 6.83382 18.5588V12.496ZM9.135 12.496H10.5297V15.2487C10.5297 17.3881 10.5087 18.0083 10.446 18.0292C10.3972 18.0501 10.0834 18.078 9.135 18.1407V12.496ZM67.871 17.0536C67.9965 17.1442 68.2406 17.1651 69.1959 17.1651C69.8374 17.1651 70.4232 17.1302 70.5069 17.0954C70.5999 17.0489 70.658 17.0489 70.6812 17.0954C70.6952 17.1302 70.6882 17.3045 70.6603 17.4787C70.6254 17.6599 70.5696 17.7923 70.5208 17.7923C70.472 17.7923 70.4302 17.7296 70.4302 17.6529C70.4302 17.5762 70.3674 17.4857 70.2907 17.4438C70.214 17.402 69.963 17.3742 69.3145 17.3742V18.6982C69.3145 19.4439 69.3423 20.085 69.3842 20.1617C69.426 20.2383 69.5167 20.3011 69.5934 20.3011C69.6701 20.3011 69.7328 20.3498 69.7328 20.4056C69.7328 20.4892 69.6143 20.5101 69.0704 20.5101C68.5265 20.5101 68.4079 20.4892 68.4079 20.4056C68.4079 20.3429 68.4846 20.2941 68.5962 20.2801C68.7287 20.2732 68.7984 20.2174 68.8333 20.092C68.8612 19.9944 68.8821 19.3463 68.8961 17.3742H68.4428C68.0593 17.3742 67.9686 17.402 67.8501 17.5275C67.7734 17.6181 67.7106 17.7087 67.7106 17.7365C67.7106 17.7714 67.6618 17.7923 67.606 17.7923C67.5502 17.7923 67.5014 17.7505 67.5014 17.7017C67.5014 17.6599 67.5363 17.5066 67.5781 17.3742C67.6199 17.2417 67.6688 17.0884 67.6827 17.0396C67.7106 16.963 67.7524 16.97 67.871 17.0536ZM36.0519 17.1302C36.5051 17.1302 36.6795 17.1511 36.6795 17.2139C36.6795 17.2627 36.6167 17.3045 36.54 17.3045C36.4633 17.3045 36.3727 17.3672 36.3308 17.4438C36.289 17.5205 36.2611 18.1268 36.2611 18.8028C36.2611 19.4787 36.289 20.085 36.3308 20.1617C36.3727 20.2383 36.4633 20.3011 36.54 20.3011C36.6167 20.3011 36.6795 20.3498 36.6795 20.4056C36.6795 20.4892 36.5609 20.5101 36.0519 20.5101C35.5428 20.5101 35.4243 20.4892 35.4243 20.4056C35.4243 20.3498 35.494 20.2941 35.5777 20.2801C35.6753 20.2732 35.752 20.2035 35.7799 20.092C35.8078 19.9944 35.8357 19.4439 35.8357 18.8724C35.8427 18.294 35.8218 17.7226 35.7939 17.5972C35.752 17.4369 35.6893 17.3532 35.5847 17.3323C35.494 17.3184 35.4243 17.2627 35.4243 17.2139C35.4243 17.1511 35.5986 17.1302 36.0519 17.1302ZM47.4881 17.1302C48.1854 17.1302 48.6038 17.1581 48.6038 17.1999C48.6038 17.2417 48.6317 17.3881 48.6596 17.5344C48.7014 17.7574 48.6875 17.7923 48.5899 17.7923C48.5201 17.7923 48.4643 17.7644 48.4643 17.7226C48.4643 17.6808 48.4016 17.5902 48.3249 17.5135C48.2133 17.402 48.0947 17.3742 47.2091 17.3742V18.6285L47.6485 18.6076C48.039 18.5937 48.0808 18.5798 48.1017 18.4334C48.1087 18.3498 48.1645 18.2801 48.2203 18.2801C48.3039 18.2801 48.3249 18.3777 48.3249 18.7679C48.3249 19.0467 48.297 19.2557 48.2551 19.2557C48.2203 19.2557 48.1575 19.186 48.1296 19.0954C48.0947 19.0118 48.018 18.9212 47.9553 18.8864C47.8856 18.8585 47.6973 18.8376 47.2091 18.8376V19.4439C47.2022 19.9387 47.2231 20.0781 47.3207 20.1617C47.4044 20.2314 47.5927 20.2662 47.9204 20.2662C48.3528 20.2662 48.4225 20.2453 48.562 20.092C48.6456 19.9944 48.7502 19.8551 48.7921 19.7784C48.8479 19.6855 48.899 19.6622 48.9455 19.7087C48.9873 19.7575 48.9734 19.8969 48.7781 20.4753L47.5439 20.4892C46.4769 20.5101 46.3026 20.4962 46.3026 20.4056C46.3026 20.3498 46.3654 20.3011 46.4421 20.3011C46.5188 20.3011 46.6164 20.2383 46.6513 20.1617C46.6931 20.085 46.721 19.4787 46.721 18.8028C46.721 18.1268 46.6931 17.5205 46.6513 17.4438C46.6164 17.3672 46.5327 17.3045 46.4769 17.3045C46.4212 17.3045 46.3723 17.2627 46.3723 17.2139C46.3723 17.1511 46.6443 17.1302 47.4881 17.1302ZM52.9621 17.1024C53.1155 17.1024 53.4154 17.1233 53.6246 17.1651C53.8826 17.2139 54.0709 17.3045 54.1964 17.4299C54.301 17.5344 54.4056 17.6947 54.4195 17.7923C54.4404 17.8898 54.4265 18.085 54.3916 18.2243C54.3428 18.3986 54.2312 18.5589 53.7989 18.9003L54.0918 19.3394C54.2522 19.5833 54.5171 19.9108 54.6845 20.0781C54.8519 20.2383 55.0053 20.3707 55.0401 20.3707C55.068 20.3707 55.089 20.3986 55.089 20.4404C55.089 20.4822 54.9704 20.5101 54.8309 20.5101C54.6845 20.5101 54.4614 20.4474 54.3428 20.3707C54.2173 20.2941 53.9523 19.9875 53.7571 19.6878C53.5618 19.3951 53.3456 19.1094 53.2829 19.0606C53.2201 19.0118 53.1016 18.977 53.0179 18.977C52.8645 18.977 52.8575 18.9979 52.8784 19.5902C52.8924 20.1408 52.9063 20.2035 53.0528 20.2662C53.1364 20.308 53.2062 20.3777 53.2062 20.4265C53.2062 20.4892 53.0388 20.5101 52.6134 20.5101C52.1323 20.5101 52.0207 20.4892 52.0207 20.4056C52.0207 20.3498 52.0974 20.2871 52.3694 20.2314L52.3554 18.8237C52.3345 17.416 52.3345 17.416 52.1741 17.3742C52.0835 17.3532 52.0137 17.3114 52.0137 17.2696C52.0137 17.2278 52.1671 17.179 52.3485 17.1581C52.5367 17.1372 52.8087 17.1093 52.9621 17.1024ZM52.8436 18.078L52.8575 18.7679C53.4921 18.7679 53.5967 18.7331 53.7292 18.5937C53.8617 18.4613 53.9035 18.3428 53.9035 18.1198C53.9035 17.9526 53.8547 17.7574 53.785 17.6599C53.7152 17.5623 53.5548 17.4438 53.4363 17.3951C53.3108 17.3463 53.1643 17.3045 53.1225 17.3114C53.0737 17.3114 52.983 17.3323 52.9342 17.3532C52.8505 17.3811 52.8296 17.5275 52.8436 18.078ZM63.8056 17.1302C64.1751 17.1302 64.4332 17.1581 64.4332 17.1999C64.4332 17.2417 64.3634 17.2975 64.2797 17.3393C64.1194 17.409 64.1194 17.4299 64.0845 20.2314L64.2588 20.2662C64.3564 20.2871 64.4332 20.3498 64.4332 20.4056C64.4332 20.4892 64.3146 20.5101 63.8056 20.5101C63.2965 20.5101 63.178 20.4892 63.178 20.4056C63.178 20.3498 63.2338 20.3011 63.3035 20.3011C63.3732 20.3011 63.4639 20.2592 63.5127 20.2105C63.5754 20.1547 63.5964 19.7505 63.5964 18.8028C63.5964 17.8271 63.5754 17.4578 63.5127 17.3881C63.4639 17.3393 63.3662 17.3045 63.3035 17.3045C63.2338 17.3045 63.178 17.2627 63.178 17.2139C63.178 17.1511 63.3523 17.1302 63.8056 17.1302ZM74.3282 17.1302C74.663 17.1302 74.8931 17.1581 74.8931 17.1999C74.8861 17.2417 74.8373 17.3045 74.7676 17.3532C74.656 17.4299 74.6769 17.4926 75.3185 18.8028L75.4649 18.5588C75.5416 18.4264 75.7159 18.1059 75.8414 17.8411C76.0646 17.3951 76.0716 17.3742 75.9391 17.3393C75.8624 17.3184 75.7996 17.2627 75.7996 17.2139C75.7996 17.1581 75.9461 17.1302 76.2877 17.1302C76.5667 17.1302 76.7759 17.1581 76.7759 17.1999C76.7689 17.2417 76.6713 17.3323 76.5527 17.409C76.4202 17.4926 76.1762 17.8271 75.9112 18.2801C75.5207 18.9561 75.4858 19.0536 75.4579 19.4996C75.444 19.7784 75.4649 20.0571 75.5137 20.1408C75.5625 20.2453 75.6532 20.3011 75.7647 20.3011C75.8763 20.3011 75.9391 20.3429 75.9391 20.4056C75.9391 20.4892 75.8205 20.5101 75.2766 20.5101C74.7327 20.5101 74.6142 20.4892 74.6142 20.4056C74.6142 20.3498 74.6839 20.2941 74.7676 20.2801C74.8861 20.2732 74.9349 20.2035 74.9837 19.9875C75.0186 19.8341 75.0256 19.5763 75.0047 19.409C74.9837 19.2488 74.7745 18.74 74.5444 18.2801C74.2236 17.639 74.0842 17.4229 73.9377 17.3602C73.8262 17.3114 73.7355 17.2696 73.7285 17.2557C73.7146 17.2417 73.7216 17.2139 73.7355 17.179C73.7495 17.1511 74.0214 17.1302 74.3282 17.1302Z" fill="#DDDEE2"/>
<path d="M6.0602 1.54101C6.19269 0.725662 6.33216 0.0357497 6.36702 0.00787445C6.40886 -0.0200008 6.45768 0.0287809 6.48557 0.112407C6.51346 0.196032 6.62504 0.872007 6.73661 1.6107C6.84818 2.34243 6.95278 2.94871 6.9737 2.94871C6.99462 2.94871 7.37118 2.38424 7.81049 1.69433C8.24981 1.00441 8.64729 0.453878 8.68215 0.467816C8.71702 0.481754 8.73794 0.551442 8.73097 0.62113C8.71702 0.690818 8.54269 1.36679 7.98483 3.47834L9.26094 2.63512C10.0698 2.10549 10.5649 1.82673 10.5998 1.86855C10.6416 1.91036 10.293 2.39818 8.74491 4.30763L10.1814 4.08463C10.9694 3.95919 11.6876 3.85466 11.7853 3.85466C11.9247 3.84769 11.9457 3.8686 11.8759 3.93829C11.8341 3.98707 11.325 4.26582 10.7462 4.55154C10.1675 4.83726 9.69328 5.08814 9.69328 5.10905C9.69328 5.12995 10.2651 5.24842 10.9624 5.36689C11.6667 5.49233 12.364 5.60383 12.7964 5.63171L12.8382 6.32859L12.2943 6.27981C11.9945 6.25193 11.3529 6.1474 10.8578 6.04984C10.3697 5.95227 9.74209 5.84077 9.47014 5.80593C9.1912 5.76411 8.66123 5.72927 8.29862 5.72927C7.91509 5.72927 7.48972 5.77108 7.2875 5.8338C7.09922 5.88955 6.82029 6.01499 6.41584 6.29374L6.08112 6.09165C5.89981 5.97318 5.59299 5.84774 5.40471 5.80593C5.20946 5.76411 4.7562 5.72927 4.39358 5.72927C4.03097 5.73624 3.45219 5.78502 3.10353 5.84077C2.75486 5.89652 2.05056 6.02196 1.53454 6.11952C1.01851 6.21709 0.460652 6.29374 0.000414776 6.29374V5.59686L0.328159 5.58989C0.516438 5.58989 1.22771 5.48536 3.17326 5.13692L2.11332 4.57942C1.52756 4.27976 1.04641 3.98707 1.04641 3.94525C1.04641 3.89647 1.08825 3.85466 1.13706 3.85466C1.1789 3.86163 1.85531 3.95919 2.62934 4.08463C3.76599 4.26582 4.01703 4.28673 3.94729 4.2031C3.89848 4.14735 3.45916 3.60378 2.97801 3.00446C2.48988 2.39818 2.12727 1.88945 2.16213 1.86855C2.20397 1.84764 2.7967 2.19608 3.48706 2.63512C4.17741 3.07415 4.74922 3.43653 4.76317 3.43653C4.77014 3.43653 4.60976 2.80237 4.4145 2.02186C4.21228 1.24832 4.04492 0.572348 4.04492 0.530535C4.04492 0.481754 4.07979 0.439941 4.11465 0.439941C4.15649 0.439941 4.55397 1.02532 5.82311 3.03234L6.0602 1.54101Z" stroke="#DDDEE2"/>
<path fill-rule="evenodd" clip-rule="evenodd" d="M0 6.85124H12.7611V8.48891L12.4682 8.53073C12.3009 8.55163 12.0289 8.65617 11.8546 8.7607C11.6803 8.86523 11.4641 9.06733 11.3665 9.2067C11.2688 9.34608 11.1503 9.61786 11.1015 9.81299C11.0596 10.0011 11.0178 10.5168 11.0178 11.7294H9.135V10.0569H8.22848V11.7294H6.83382V8.31469H5.92729V11.7294H4.53264V10.0569H3.62611V11.7294H1.74332L1.72937 10.7329C1.70845 9.90358 1.68754 9.70149 1.56899 9.46455C1.49228 9.3182 1.3319 9.10217 1.22032 8.9837C1.10875 8.8722 0.885607 8.72585 0.732195 8.65617C0.578783 8.58648 0.348664 8.52376 0 8.52376V6.85124ZM82.473 7.09515L82.5567 7.81294C82.5986 8.20319 82.6195 8.55163 82.5986 8.59345C82.5776 8.63526 82.487 8.66314 82.3894 8.66314C82.2429 8.66314 82.2011 8.61435 82.1523 8.40529C82.1104 8.25894 82.0198 8.05685 81.9431 7.95232C81.8594 7.84082 81.6781 7.72235 81.5316 7.68053C81.3922 7.64569 80.925 7.61781 79.7395 7.65266L79.7047 9.84783L80.4299 9.8339C81.0435 9.81299 81.176 9.79208 81.3015 9.67361C81.3782 9.59696 81.4619 9.4297 81.4828 9.31123C81.5038 9.1858 81.5735 9.05339 81.6362 9.01855C81.706 8.9837 81.8036 8.96976 81.8524 8.99764C81.9152 9.03248 81.9291 9.3182 81.9012 11.2068H81.7339C81.5944 11.2068 81.5526 11.151 81.4759 10.8932C81.4271 10.7189 81.3364 10.5308 81.2667 10.475C81.176 10.3984 80.9668 10.3705 79.7395 10.3705L79.7186 11.4158C79.6977 12.3705 79.7116 12.4751 79.8371 12.6354C79.9627 12.8026 80.0115 12.8096 80.7646 12.8305C81.2806 12.8444 81.6572 12.8235 81.8594 12.7608C82.0407 12.705 82.2569 12.5726 82.3894 12.4263C82.5079 12.2939 82.6544 12.0639 82.7101 11.9176C82.7938 11.6946 82.8426 11.6597 83.2262 11.6597L83.1774 12.0221C83.1495 12.2242 83.0658 12.6005 82.8426 13.3322H80.1579C78.4355 13.3322 77.4593 13.3044 77.4383 13.2626C77.4174 13.2207 77.4174 13.1371 77.4383 13.0744C77.4593 12.9768 77.5708 12.935 77.8707 12.9071C78.1845 12.8723 78.303 12.8235 78.4007 12.6981C78.5122 12.5448 78.5262 12.3357 78.5192 7.89657L78.3449 7.72235C78.2472 7.62478 78.1078 7.54812 78.0311 7.54812C77.9544 7.54812 77.8428 7.53419 77.787 7.51328C77.7312 7.49237 77.6754 7.40875 77.6685 7.31815C77.6615 7.22756 77.6754 7.13696 77.6963 7.12303C77.7242 7.10909 78.8051 7.09515 82.473 7.09515ZM2.30118 12.496H3.62611L3.59124 19.8411L2.99851 20.2035C2.67077 20.4056 2.38486 20.5728 2.35 20.5728C2.3221 20.5798 2.30118 18.7609 2.30118 16.5379V12.496ZM59.5867 17.0815C59.7401 17.0954 59.9214 17.1442 59.9842 17.1721C60.0679 17.2139 60.1097 17.3161 60.1097 17.4787C60.1097 17.6111 60.1167 17.7435 60.1237 17.7714C60.1376 17.7923 60.1097 17.8271 60.0749 17.8411C60.04 17.855 59.9563 17.7644 59.9005 17.6459C59.8378 17.5135 59.7053 17.3811 59.5867 17.3323C59.4752 17.2836 59.3008 17.2627 59.2032 17.2766C59.1056 17.2905 58.98 17.3672 58.9243 17.4369C58.8615 17.5135 58.7987 17.6599 58.7848 17.7783C58.7639 17.8968 58.7918 18.0292 58.8545 18.1059C58.9103 18.1756 59.1753 18.3777 59.4473 18.5588C59.7959 18.7888 59.9772 18.963 60.0679 19.1582C60.1655 19.3533 60.1864 19.5136 60.1585 19.7435C60.1306 19.9596 60.0539 20.1199 59.9214 20.2523C59.8168 20.3568 59.6007 20.4822 59.4473 20.5171C59.2799 20.5589 59.0219 20.5659 58.8197 20.538C58.6244 20.5101 58.4152 20.4335 58.3525 20.3777C58.2897 20.315 58.22 20.1338 58.199 19.9735C58.1642 19.7366 58.1781 19.6739 58.2618 19.6739C58.3176 19.6739 58.3803 19.7296 58.4013 19.7993C58.4152 19.862 58.5198 20.0084 58.6244 20.1129C58.7709 20.2592 58.8964 20.315 59.1195 20.322C59.3775 20.3359 59.4473 20.308 59.6007 20.1268C59.7471 19.9596 59.768 19.869 59.7332 19.6739C59.7122 19.5415 59.6495 19.3881 59.6007 19.3324C59.5588 19.2766 59.3148 19.0954 59.0637 18.9282C58.8127 18.7609 58.5547 18.5379 58.4919 18.4334C58.4222 18.3289 58.3664 18.1128 58.3664 17.9317C58.3664 17.7505 58.4152 17.5553 58.478 17.4647C58.5407 17.3742 58.6593 17.2696 58.743 17.2208C58.8197 17.179 58.987 17.1163 59.0986 17.0884C59.2102 17.0675 59.4333 17.0606 59.5867 17.0815ZM22.8375 17.1302C23.2629 17.1302 23.4302 17.1512 23.4302 17.2208C23.4302 17.2627 23.3535 17.3184 23.0816 17.3742V18.4404C23.0816 19.3115 23.1025 19.5415 23.2071 19.7366C23.2699 19.869 23.4163 20.0432 23.5209 20.1199C23.6464 20.2174 23.8277 20.2662 24.016 20.2662C24.1834 20.2662 24.3926 20.2244 24.4832 20.1826C24.5739 20.1338 24.7273 19.9596 24.8179 19.7993C24.9644 19.5415 24.9923 19.3881 25.0132 18.7679C25.0271 18.3637 25.0132 17.8968 24.9853 17.7226C24.9434 17.4996 24.8807 17.3881 24.7691 17.3393C24.6854 17.2975 24.6157 17.2417 24.6157 17.1999C24.6157 17.1581 24.8388 17.1302 25.1387 17.1302C25.4385 17.1302 25.6617 17.1581 25.6617 17.1999C25.6617 17.2417 25.592 17.2975 25.5083 17.3393C25.3897 17.3881 25.3339 17.4926 25.2991 17.7226C25.2782 17.8968 25.2503 18.3637 25.2503 18.7679C25.2503 19.1721 25.2084 19.6111 25.1666 19.7435C25.1178 19.876 25.0201 20.0641 24.9365 20.1477C24.8598 20.2383 24.6924 20.3638 24.5808 20.4265C24.4553 20.4892 24.1903 20.538 23.9184 20.538C23.5976 20.538 23.3884 20.5031 23.1931 20.4056C23.0467 20.3289 22.8584 20.1547 22.7747 20.0223C22.6423 19.8063 22.6213 19.646 22.5934 18.5937C22.5586 17.4508 22.5516 17.409 22.3982 17.3393C22.3145 17.2975 22.2448 17.2417 22.2448 17.1999C22.2448 17.1581 22.4888 17.1302 22.8375 17.1302ZM29.5528 17.1302L29.8387 17.5135C29.9991 17.7226 30.4802 18.2871 31.6936 19.639L31.7145 19.186C31.7284 18.9352 31.7145 18.4334 31.6866 18.071C31.6378 17.4229 31.6308 17.409 31.4356 17.3393C31.331 17.2975 31.2333 17.2348 31.2264 17.1999C31.2124 17.1581 31.4216 17.1302 31.7633 17.1302C32.1608 17.1302 32.3281 17.1511 32.3421 17.2139C32.3491 17.2627 32.2863 17.3184 32.2026 17.3323C32.0841 17.3602 32.0283 17.4299 31.9934 17.632C31.9655 17.7783 31.9376 18.5031 31.9376 19.2418C31.9376 20.085 31.9098 20.5798 31.8679 20.5798C31.8261 20.5798 31.7773 20.538 31.7424 20.4822C31.7145 20.4265 31.2055 19.8272 29.5319 17.9177L29.5179 19.0258C29.504 19.8202 29.5249 20.1547 29.5877 20.2174C29.6295 20.2662 29.7271 20.308 29.7899 20.3011C29.8596 20.3011 29.9154 20.3498 29.9154 20.4056C29.9154 20.4892 29.8038 20.5101 29.3575 20.5101C28.9112 20.5101 28.7997 20.4892 28.7997 20.4056C28.7997 20.3498 28.8624 20.3011 28.9391 20.3011C29.0228 20.3011 29.1065 20.2314 29.1483 20.1268C29.1902 20.0293 29.2181 19.423 29.2181 18.7679C29.2181 17.6738 29.2041 17.5693 29.0786 17.4438C29.0019 17.3672 28.8903 17.3045 28.8345 17.3045C28.7787 17.3045 28.723 17.2627 28.716 17.2139C28.702 17.1442 28.8136 17.1233 29.5528 17.1302ZM40.3056 17.1302C40.7031 17.1302 40.8635 17.1581 40.8635 17.2139C40.8635 17.2627 40.8146 17.3045 40.7589 17.3045C40.7031 17.3045 40.6403 17.3254 40.6264 17.3532C40.6054 17.3881 40.7728 17.862 40.9959 18.4195C41.2191 18.977 41.4283 19.4927 41.4701 19.5693C41.5329 19.6878 41.6096 19.5415 42.0071 18.5937C42.2651 17.9804 42.4603 17.4369 42.4324 17.3881C42.4115 17.3463 42.3488 17.3045 42.293 17.3045C42.2372 17.3045 42.1884 17.2627 42.1884 17.2139C42.1884 17.1581 42.3348 17.1302 42.7044 17.1302C43.0112 17.1302 43.2204 17.1581 43.2135 17.1999C43.2065 17.2417 43.1367 17.2905 43.06 17.3114C42.9833 17.3323 42.8578 17.4578 42.7811 17.5902C42.7044 17.7226 42.4813 18.1895 42.286 18.6285C42.0908 19.0676 41.8258 19.6878 41.6933 20.0084C41.5608 20.3289 41.4353 20.5798 41.4004 20.5659C41.3725 20.5519 41.0726 19.8551 40.731 19.0118C40.2289 17.7644 40.0824 17.4578 39.936 17.3742C39.8314 17.3184 39.7477 17.2417 39.7477 17.1999C39.7477 17.1581 39.9778 17.1302 40.3056 17.1302ZM19.6647 6.9279C19.8739 6.9279 20.2365 6.94881 20.4666 6.98365C20.6967 7.0185 21.0593 7.08121 21.6521 7.19968L21.7078 7.70841C21.7357 7.98019 21.7845 8.35651 21.8612 8.8722H21.6521C21.4707 8.87917 21.4289 8.83736 21.3034 8.54467C21.2337 8.36348 21.0733 8.10563 20.9547 7.97322C20.8431 7.84778 20.62 7.67356 20.4666 7.59691C20.2923 7.50631 19.9994 7.44359 19.6647 7.42269C19.2951 7.40178 19.0301 7.42269 18.7581 7.50631C18.5489 7.56903 18.2212 7.74325 18.0259 7.88263C17.761 8.07775 17.6145 8.27288 17.4123 8.66314C17.1822 9.11611 17.1403 9.26942 17.1055 9.81299C17.0845 10.1754 17.0985 10.6005 17.1473 10.8235C17.1891 11.0325 17.3147 11.3949 17.4262 11.6249C17.5518 11.8827 17.7819 12.1824 18.019 12.4124C18.3397 12.705 18.5001 12.8026 18.9185 12.9211C19.2672 13.0256 19.5252 13.0605 19.7693 13.0396C19.9645 13.0186 20.2574 12.942 20.4317 12.8653C20.6061 12.7956 20.871 12.6075 21.0245 12.4542C21.1779 12.3078 21.3871 12.043 21.4777 11.8688C21.5939 11.6597 21.7055 11.5505 21.8124 11.5413C21.8961 11.5273 21.9798 11.5622 22.0007 11.6109C22.0216 11.6528 21.9937 11.9176 21.931 12.1824C21.8682 12.4472 21.7636 12.7956 21.6939 12.949C21.5753 13.2277 21.5614 13.2277 20.9477 13.3671C20.5084 13.4646 20.097 13.5065 19.5252 13.4995C19.0231 13.4925 18.5629 13.4507 18.2909 13.381C18.0469 13.3113 17.6564 13.165 17.4193 13.0396C17.1752 12.9211 16.8196 12.6632 16.6313 12.4681C16.436 12.273 16.1989 11.9385 16.0943 11.7294C15.9897 11.5203 15.8782 11.2068 15.8363 11.0325C15.7945 10.8583 15.7596 10.5377 15.7596 10.3147C15.7596 10.0987 15.7945 9.75027 15.8363 9.55514C15.8782 9.35305 15.9967 9.01855 16.1013 8.80948C16.1989 8.60739 16.3942 8.30773 16.5267 8.15441C16.6592 7.99413 16.959 7.75022 17.1891 7.60388C17.4193 7.45753 17.7958 7.27634 18.0259 7.19968C18.2561 7.12303 18.6326 7.03243 18.8627 6.99759C19.0929 6.96274 19.4555 6.93487 19.6647 6.9279ZM40.8216 6.96274C40.8635 6.97668 40.989 7.22756 41.0936 7.52722C41.2051 7.82688 41.6584 9.03945 42.0977 10.2311C42.544 11.4228 42.9624 12.4681 43.0252 12.5657C43.0879 12.6632 43.2344 12.7747 43.3459 12.8235C43.4575 12.8653 43.6318 12.9211 43.7434 12.942C43.8899 12.9768 43.9317 13.0256 43.9317 13.3322H41.2121V13.158C41.2121 13.0465 41.2609 12.9699 41.3376 12.9559C41.4004 12.942 41.5399 12.9071 41.6514 12.8862C41.77 12.8584 41.8397 12.8026 41.8397 12.726C41.8397 12.6563 41.7281 12.3009 41.5887 11.9385C41.4562 11.5761 41.2888 11.2346 41.2261 11.1858C41.1494 11.1301 40.8565 11.1022 40.3405 11.1022C39.9221 11.1022 39.5037 11.1301 39.413 11.158C39.2945 11.1928 39.2038 11.3461 39.0434 11.7991C38.9249 12.1266 38.8063 12.489 38.7854 12.6145C38.7366 12.8375 38.7436 12.8444 39.0434 12.8932C39.2108 12.9211 39.3712 12.9908 39.406 13.0396C39.4409 13.0814 39.4548 13.172 39.4339 13.2277C39.406 13.3183 39.2108 13.3322 37.0979 13.3322L37.1188 13.1511C37.1327 12.9908 37.1816 12.949 37.4535 12.8862C37.6278 12.8444 37.8231 12.7608 37.8928 12.705C37.9626 12.6493 38.0951 12.4611 38.1787 12.2869C38.2694 12.1127 38.6808 11.144 39.1062 10.1266C39.5316 9.10914 39.9221 8.12654 39.9778 7.93141C40.0476 7.68053 40.1661 7.49237 40.4032 7.2624C40.5915 7.08121 40.7728 6.94881 40.8216 6.96274ZM39.8593 9.63877C39.685 10.0778 39.5385 10.482 39.5385 10.5308C39.5385 10.5935 39.7268 10.6144 40.2568 10.6144C40.6543 10.6144 40.9959 10.5935 41.0238 10.5656C41.0448 10.5308 40.9471 10.1823 40.8007 9.77814C40.6543 9.37395 40.4869 8.93492 40.4311 8.80251C40.3335 8.57254 40.3265 8.56557 40.2568 8.69798C40.2149 8.77464 40.0336 9.19973 39.8593 9.63877ZM28.0884 7.09515L28.1302 7.33906C28.1512 7.47147 28.193 7.82688 28.2767 8.67707L28.0814 8.6492C27.9141 8.63526 27.8583 8.56557 27.7328 8.25198C27.6142 7.97322 27.5166 7.84082 27.3353 7.74325C27.1261 7.63175 26.9587 7.61781 25.3479 7.65266V9.81299L25.9755 9.8339C26.3242 9.84086 26.6798 9.81996 26.7774 9.77814C26.875 9.7433 26.9936 9.6318 27.0424 9.53424C27.0842 9.43667 27.1261 9.31124 27.1261 9.25548C27.1261 9.19973 27.1749 9.10217 27.2307 9.04642C27.3004 8.97673 27.3701 8.96279 27.4608 9.00461C27.5654 9.06733 27.5793 9.19277 27.5793 10.1196C27.5793 11.0674 27.5654 11.1789 27.4608 11.2068C27.3911 11.2277 27.3074 11.2277 27.2655 11.2068C27.2307 11.1858 27.154 11.0465 27.1121 10.8862C27.0633 10.7259 26.9657 10.5517 26.889 10.482C26.7914 10.3914 26.617 10.3705 25.3479 10.3705L25.327 11.2764C25.313 11.7782 25.3409 12.3009 25.3758 12.4472C25.4385 12.6493 25.5013 12.719 25.6826 12.7747C25.8012 12.8165 26.2335 12.8444 26.638 12.8444C27.2098 12.8444 27.4329 12.8165 27.6491 12.712C27.8025 12.6354 28.0117 12.4542 28.1163 12.3078C28.2209 12.1615 28.3394 11.9594 28.3743 11.8549C28.4371 11.7015 28.4928 11.6667 28.6463 11.6806C28.8276 11.6946 28.8345 11.7085 28.8136 12.0082C28.7997 12.1824 28.716 12.5448 28.4789 13.2974L23.0816 13.3322L23.1025 13.1441C23.1164 12.9838 23.1513 12.949 23.3256 12.928C23.4442 12.9211 23.6534 12.8793 23.7998 12.8444C24.016 12.7887 24.0718 12.7329 24.1345 12.5169C24.1834 12.3427 24.1973 11.4716 24.1834 10.0499C24.1694 8.55163 24.1345 7.81991 24.0857 7.75022C24.0439 7.69447 23.8626 7.61084 23.6813 7.56903C23.4233 7.49237 23.3605 7.44359 23.3466 7.31815C23.3396 7.22756 23.3535 7.13696 23.3745 7.12303C23.4023 7.10909 24.4693 7.09515 28.0884 7.09515ZM32.5652 7.07425C32.8163 7.06728 33.3323 7.09515 33.7158 7.13C34.0994 7.16484 34.6014 7.2415 34.8316 7.30422C35.0617 7.36694 35.4103 7.49237 35.5986 7.58994C35.7939 7.68053 36.1007 7.9105 36.289 8.09169C36.4842 8.27985 36.7213 8.60739 36.8468 8.8722C37.0491 9.30427 37.063 9.36699 37.063 10.1614C37.063 10.9907 37.056 11.0116 36.812 11.5203C36.6307 11.8897 36.4424 12.1475 36.1704 12.3915C35.9612 12.5866 35.6195 12.8235 35.4173 12.928C35.2081 13.0326 34.8385 13.172 34.5875 13.2347C34.3295 13.2974 33.8204 13.3531 33.402 13.3601C32.9976 13.3601 32.0632 13.3601 29.9851 13.3322L30.006 13.1441C30.02 12.9699 30.0549 12.949 30.3687 12.8932C30.5988 12.8584 30.7592 12.7887 30.8428 12.6841C30.9544 12.5448 30.9684 12.3427 30.9614 10.2172C30.9614 7.99413 30.9544 7.8896 30.8219 7.75719C30.7452 7.68053 30.6058 7.61781 30.5081 7.61781C30.4105 7.61781 30.285 7.60388 30.2292 7.58297C30.1734 7.56206 30.1246 7.48541 30.1246 7.40875C30.1246 7.33209 30.1664 7.24847 30.2152 7.22059C30.2571 7.18575 30.7104 7.14393 31.2055 7.12303C31.7075 7.10212 32.3142 7.08121 32.5652 7.07425ZM32.1747 7.82688C32.0911 7.97322 32.0771 8.34257 32.0911 10.0917C32.112 12.0221 32.1259 12.2033 32.2514 12.4472C32.356 12.6493 32.4676 12.7399 32.7047 12.8235C32.9348 12.9071 33.158 12.928 33.5415 12.9002C33.8623 12.8793 34.2109 12.7956 34.4411 12.6981C34.6781 12.5935 34.9431 12.3984 35.1593 12.1684C35.4173 11.8827 35.5289 11.6876 35.6335 11.3322C35.7265 11.0163 35.773 10.6609 35.773 10.266C35.773 9.93843 35.7311 9.5203 35.6753 9.32517C35.6126 9.13701 35.4661 8.82342 35.3406 8.63526C35.1942 8.41226 34.9571 8.18926 34.6921 8.022C34.4341 7.85475 34.0924 7.71538 33.8065 7.65266C33.5415 7.59691 33.1649 7.54812 32.9697 7.55509C32.7675 7.56206 32.5304 7.58297 32.4397 7.61084C32.3491 7.63872 32.2305 7.73628 32.1747 7.82688ZM47.6624 7.10909C47.8925 7.12303 48.2412 7.1509 48.4295 7.17181C48.6247 7.18575 48.9664 7.29028 49.1965 7.40178C49.4266 7.50631 49.6707 7.65963 49.7335 7.72931C49.7962 7.799 49.9008 7.98019 49.9566 8.12654C50.0194 8.26591 50.0682 8.57254 50.0682 8.80251C50.0682 9.05339 50.0194 9.3182 49.9496 9.47849C49.8799 9.61786 49.6986 9.84086 49.5452 9.9663C49.3918 10.0917 49.1617 10.2311 49.0431 10.266C48.9176 10.3078 48.813 10.3775 48.813 10.4262C48.813 10.4681 48.8967 10.6353 49.0013 10.7886C49.1059 10.9419 49.322 11.2416 49.4964 11.4507C49.6637 11.6597 50.0682 12.1127 50.4029 12.4472C50.7376 12.7887 51.2606 13.2556 51.5674 13.4856C51.8743 13.7155 52.3485 14.0082 52.6134 14.1406C52.8854 14.2661 53.3526 14.4333 53.6594 14.5169C53.9663 14.5936 54.4056 14.6563 54.6357 14.6563C54.8658 14.6563 55.2424 14.6075 55.4725 14.5518C55.7026 14.496 55.9327 14.4542 55.9815 14.4473C56.0234 14.4473 56.0652 14.496 56.0652 14.5518C56.0652 14.6075 55.9188 14.726 55.7375 14.8166C55.4376 14.956 55.2982 14.9699 54.4614 14.9629C53.6455 14.9629 53.4363 14.9351 52.8924 14.7678C52.5507 14.6633 51.9858 14.4403 51.6372 14.2661C51.2955 14.0988 50.6818 13.7086 50.2774 13.4089C49.8729 13.1092 49.2174 12.5169 48.813 12.0988C48.4085 11.6806 47.9692 11.1928 47.8367 11.0186C47.7042 10.8374 47.5299 10.6771 47.4532 10.6562C47.3765 10.6353 47.2091 10.6144 47.0906 10.6144C46.8953 10.6144 46.8535 10.6423 46.8117 10.8095C46.7907 10.9141 46.7907 11.3392 46.8117 11.7643C46.8326 12.1894 46.8675 12.5866 46.8884 12.6563C46.9163 12.726 47.0557 12.8026 47.2301 12.8514C47.3904 12.8932 47.5996 12.949 47.6973 12.9699C47.8088 13.0047 47.8716 13.0744 47.8716 13.158C47.8716 13.2904 47.8158 13.2974 46.3235 13.3183C44.9916 13.3322 44.7615 13.3183 44.7336 13.2277C44.7127 13.172 44.7267 13.0814 44.7615 13.0396C44.7964 12.9908 44.9498 12.928 45.1102 12.9002C45.2636 12.8653 45.4588 12.7817 45.5356 12.705C45.668 12.5726 45.675 12.4751 45.675 10.252C45.675 8.48891 45.6541 7.90353 45.5913 7.80597C45.5425 7.72931 45.3752 7.65266 45.2287 7.63175C45.0823 7.60388 44.9219 7.52722 44.8801 7.4645C44.8243 7.3739 44.8243 7.31815 44.894 7.25543C44.9568 7.19272 45.3333 7.1509 46.1143 7.13C46.735 7.10909 47.4323 7.10212 47.6624 7.10909ZM46.8047 8.81645C46.7977 9.48546 46.8186 9.99418 46.8535 10.0569C46.9093 10.1336 47.0557 10.1614 47.4323 10.1614C47.76 10.1614 48.039 10.1126 48.2203 10.036C48.3737 9.9663 48.5689 9.81299 48.6526 9.68755C48.7433 9.56211 48.8339 9.31123 48.8618 9.11611C48.8897 8.86523 48.8758 8.67707 48.7921 8.45407C48.7293 8.27985 48.5899 8.05685 48.4853 7.95232C48.3807 7.84778 48.1505 7.71538 47.9762 7.65266C47.8019 7.59691 47.5229 7.54812 47.3486 7.54812C47.1743 7.54812 46.986 7.58297 46.9302 7.61781C46.8465 7.66659 46.8186 7.89657 46.8047 8.81645ZM58.5407 7.11606L58.5616 7.29725C58.5756 7.4645 58.5407 7.48541 58.1921 7.58297C57.9062 7.65963 57.7667 7.74325 57.6412 7.91747C57.5505 8.03594 57.0833 8.99067 56.6022 10.0221C56.121 11.0604 55.598 12.2312 55.4376 12.6354C55.2772 13.0395 55.1099 13.4089 55.068 13.4577C55.0192 13.5065 54.9286 13.5413 54.8519 13.5274C54.7612 13.5134 54.6706 13.3462 54.5311 12.9838C54.4265 12.6981 53.8826 11.4437 53.3177 10.1963C52.7529 8.94886 52.2439 7.87566 52.1741 7.80597C52.1114 7.74325 51.9022 7.64569 51.7069 7.59691C51.4071 7.52025 51.3582 7.47844 51.3234 7.13L52.739 7.1509C54.0918 7.16484 54.1476 7.17181 54.1476 7.30422C54.1476 7.39481 54.0778 7.45753 53.9384 7.49934C53.8268 7.53419 53.6804 7.58994 53.6246 7.61781C53.5688 7.64569 53.5269 7.74325 53.5269 7.83385C53.5339 7.92444 53.7989 8.60042 54.1127 9.32517C54.4335 10.0499 54.8031 10.8932 55.1936 11.7364L55.8002 10.3566C56.1349 9.59696 56.5045 8.72585 56.6301 8.41923C56.7556 8.10563 56.8323 7.80597 56.8044 7.74325C56.7835 7.67356 56.637 7.58994 56.4836 7.54812C56.3302 7.51328 56.1907 7.42966 56.1698 7.3739C56.1489 7.31815 56.1628 7.22756 56.1977 7.18575C56.2465 7.11606 56.5603 7.09515 58.5407 7.11606ZM62.8642 7.12303L62.8851 7.30422C62.899 7.44359 62.8642 7.48541 62.7108 7.52025C62.5992 7.54116 62.4249 7.576 62.3063 7.60388C62.1878 7.63872 62.0622 7.72931 62.0134 7.82688C61.9507 7.95232 61.9228 8.60042 61.9228 10.2172C61.9228 11.5273 61.9507 12.496 61.9925 12.6005C62.0343 12.705 62.1459 12.8026 62.2924 12.8375C62.4109 12.8793 62.5922 12.9141 62.6898 12.928C62.8223 12.942 62.8711 12.9908 62.899 13.3322L61.351 13.3183C59.8796 13.2974 59.7959 13.2904 59.7959 13.165C59.7959 13.0953 59.8447 13.0117 59.9005 12.9768C59.9563 12.949 60.1237 12.9071 60.2701 12.8862C60.4096 12.8584 60.5769 12.7956 60.6327 12.7399C60.6885 12.6841 60.7582 12.4681 60.7792 12.273C60.8001 12.0709 60.807 11.0116 60.7931 9.91752C60.7792 8.82342 60.7443 7.87566 60.7164 7.81294C60.6885 7.74325 60.5351 7.65266 60.3747 7.61084C60.2073 7.56903 60.0051 7.50631 59.9214 7.47147C59.8308 7.43662 59.7541 7.36694 59.7471 7.31815C59.7401 7.26937 59.768 7.19968 59.8099 7.16484C59.8587 7.12303 60.5211 7.10212 62.8642 7.12303ZM67.4177 7.12303L67.4456 7.31815C67.4665 7.49237 67.4386 7.51328 67.1876 7.56206C67.0342 7.58994 66.8459 7.68053 66.7692 7.76416C66.6367 7.90353 66.6297 8.022 66.6088 9.98024C66.5949 11.3043 66.6088 12.1475 66.6576 12.3427C66.7204 12.5796 66.7831 12.6563 66.9784 12.7399C67.1388 12.8096 67.4526 12.8444 67.871 12.8444C68.401 12.8444 68.5683 12.8165 68.8263 12.6911C69.0564 12.5726 69.1959 12.4333 69.3633 12.1475C69.4888 11.9385 69.6213 11.7224 69.6631 11.6806C69.698 11.6318 69.7538 11.59 69.7886 11.59C69.8165 11.59 69.8863 11.6249 69.942 11.6597C70.0327 11.7155 70.0327 11.7852 69.9351 12.266C69.8723 12.5657 69.7677 12.928 69.5934 13.3322H64.5029L64.5238 13.1441C64.5308 12.9908 64.5796 12.942 64.7121 12.928C64.8097 12.9141 64.991 12.8793 65.1165 12.8375C65.256 12.8026 65.3676 12.705 65.4094 12.6005C65.4513 12.496 65.4791 11.5273 65.4791 10.2172C65.4791 8.60042 65.4513 7.95232 65.3885 7.82688C65.3397 7.72931 65.2142 7.63872 65.0956 7.60388C64.984 7.576 64.8027 7.54116 64.6981 7.52025C64.5587 7.49237 64.5029 7.43662 64.4889 7.31815C64.482 7.22756 64.4959 7.13696 64.5168 7.12303C64.5447 7.10909 65.2072 7.10212 67.4177 7.12303ZM72.5501 7.09515C73.861 7.09515 73.9935 7.10909 74.0214 7.22059C74.0423 7.28331 74.0145 7.38784 73.9726 7.44359C73.9238 7.49934 73.7774 7.56206 73.6588 7.58297C73.5333 7.60388 73.3659 7.68053 73.2892 7.75719C73.1567 7.8896 73.1498 7.98716 73.1498 12.4263L73.3171 12.6214C73.4775 12.8026 73.5193 12.8096 74.2097 12.8305C74.7327 12.8514 75.0047 12.8305 75.2069 12.7538C75.3603 12.6911 75.5834 12.5378 75.702 12.4124C75.8136 12.2869 75.96 12.0639 76.0158 11.9176C76.0716 11.7712 76.1692 11.6388 76.2389 11.6249C76.3017 11.604 76.3993 11.6179 76.4481 11.6597C76.5109 11.7015 76.5179 11.82 76.476 12.0918C76.4411 12.2939 76.3714 12.6214 76.3156 12.8096C76.2598 13.0047 76.1901 13.1998 76.1622 13.2416C76.1273 13.3113 75.5346 13.3253 71.0229 13.2974L71.009 13.1441C70.995 13.0396 71.0299 12.9768 71.1136 12.9559C71.1763 12.942 71.3437 12.9071 71.4762 12.8862C71.6087 12.8653 71.783 12.7817 71.8597 12.6981C71.9922 12.5587 71.9992 12.4542 71.9992 10.2241C71.9992 7.99413 71.9922 7.89657 71.8597 7.75719C71.783 7.68053 71.5808 7.59691 71.4134 7.56903C71.2461 7.53419 71.0717 7.4645 71.0299 7.39481C70.9741 7.31119 70.9741 7.25543 71.0369 7.18575C71.0996 7.11606 71.4413 7.09515 72.5501 7.09515ZM4.60237 12.496H5.92729L5.89243 18.8515L5.2997 19.0885C4.97195 19.2209 4.68605 19.3254 4.65815 19.3254C4.62329 19.3254 4.60237 17.7853 4.60237 15.9107V12.496ZM6.83382 12.496H8.22848V18.2453L7.69153 18.3707C7.39168 18.4473 7.07788 18.517 6.83382 18.5588V12.496ZM9.135 12.496H10.5297V15.2487C10.5297 17.3881 10.5087 18.0083 10.446 18.0292C10.3972 18.0501 10.0834 18.078 9.135 18.1407V12.496ZM67.871 17.0536C67.9965 17.1442 68.2406 17.1651 69.1959 17.1651C69.8374 17.1651 70.4232 17.1302 70.5069 17.0954C70.5999 17.0489 70.658 17.0489 70.6812 17.0954C70.6952 17.1302 70.6882 17.3045 70.6603 17.4787C70.6254 17.6599 70.5696 17.7923 70.5208 17.7923C70.472 17.7923 70.4302 17.7296 70.4302 17.6529C70.4302 17.5762 70.3674 17.4857 70.2907 17.4438C70.214 17.402 69.963 17.3742 69.3145 17.3742V18.6982C69.3145 19.4439 69.3423 20.085 69.3842 20.1617C69.426 20.2383 69.5167 20.3011 69.5934 20.3011C69.6701 20.3011 69.7328 20.3498 69.7328 20.4056C69.7328 20.4892 69.6143 20.5101 69.0704 20.5101C68.5265 20.5101 68.4079 20.4892 68.4079 20.4056C68.4079 20.3429 68.4846 20.2941 68.5962 20.2801C68.7287 20.2732 68.7984 20.2174 68.8333 20.092C68.8612 19.9944 68.8821 19.3463 68.8961 17.3742H68.4428C68.0593 17.3742 67.9686 17.402 67.8501 17.5275C67.7734 17.6181 67.7106 17.7087 67.7106 17.7365C67.7106 17.7714 67.6618 17.7923 67.606 17.7923C67.5502 17.7923 67.5014 17.7505 67.5014 17.7017C67.5014 17.6599 67.5363 17.5066 67.5781 17.3742C67.6199 17.2417 67.6688 17.0884 67.6827 17.0396C67.7106 16.963 67.7524 16.97 67.871 17.0536ZM36.0519 17.1302C36.5051 17.1302 36.6795 17.1511 36.6795 17.2139C36.6795 17.2627 36.6167 17.3045 36.54 17.3045C36.4633 17.3045 36.3727 17.3672 36.3308 17.4438C36.289 17.5205 36.2611 18.1268 36.2611 18.8028C36.2611 19.4787 36.289 20.085 36.3308 20.1617C36.3727 20.2383 36.4633 20.3011 36.54 20.3011C36.6167 20.3011 36.6795 20.3498 36.6795 20.4056C36.6795 20.4892 36.5609 20.5101 36.0519 20.5101C35.5428 20.5101 35.4243 20.4892 35.4243 20.4056C35.4243 20.3498 35.494 20.2941 35.5777 20.2801C35.6753 20.2732 35.752 20.2035 35.7799 20.092C35.8078 19.9944 35.8357 19.4439 35.8357 18.8724C35.8427 18.294 35.8218 17.7226 35.7939 17.5972C35.752 17.4369 35.6893 17.3532 35.5847 17.3323C35.494 17.3184 35.4243 17.2627 35.4243 17.2139C35.4243 17.1511 35.5986 17.1302 36.0519 17.1302ZM47.4881 17.1302C48.1854 17.1302 48.6038 17.1581 48.6038 17.1999C48.6038 17.2417 48.6317 17.3881 48.6596 17.5344C48.7014 17.7574 48.6875 17.7923 48.5899 17.7923C48.5201 17.7923 48.4643 17.7644 48.4643 17.7226C48.4643 17.6808 48.4016 17.5902 48.3249 17.5135C48.2133 17.402 48.0947 17.3742 47.2091 17.3742V18.6285L47.6485 18.6076C48.039 18.5937 48.0808 18.5798 48.1017 18.4334C48.1087 18.3498 48.1645 18.2801 48.2203 18.2801C48.3039 18.2801 48.3249 18.3777 48.3249 18.7679C48.3249 19.0467 48.297 19.2557 48.2551 19.2557C48.2203 19.2557 48.1575 19.186 48.1296 19.0954C48.0947 19.0118 48.018 18.9212 47.9553 18.8864C47.8856 18.8585 47.6973 18.8376 47.2091 18.8376V19.4439C47.2022 19.9387 47.2231 20.0781 47.3207 20.1617C47.4044 20.2314 47.5927 20.2662 47.9204 20.2662C48.3528 20.2662 48.4225 20.2453 48.562 20.092C48.6456 19.9944 48.7502 19.8551 48.7921 19.7784C48.8479 19.6855 48.899 19.6622 48.9455 19.7087C48.9873 19.7575 48.9734 19.8969 48.7781 20.4753L47.5439 20.4892C46.4769 20.5101 46.3026 20.4962 46.3026 20.4056C46.3026 20.3498 46.3654 20.3011 46.4421 20.3011C46.5188 20.3011 46.6164 20.2383 46.6513 20.1617C46.6931 20.085 46.721 19.4787 46.721 18.8028C46.721 18.1268 46.6931 17.5205 46.6513 17.4438C46.6164 17.3672 46.5327 17.3045 46.4769 17.3045C46.4212 17.3045 46.3723 17.2627 46.3723 17.2139C46.3723 17.1511 46.6443 17.1302 47.4881 17.1302ZM52.9621 17.1024C53.1155 17.1024 53.4154 17.1233 53.6246 17.1651C53.8826 17.2139 54.0709 17.3045 54.1964 17.4299C54.301 17.5344 54.4056 17.6947 54.4195 17.7923C54.4404 17.8898 54.4265 18.085 54.3916 18.2243C54.3428 18.3986 54.2312 18.5589 53.7989 18.9003L54.0918 19.3394C54.2522 19.5833 54.5171 19.9108 54.6845 20.0781C54.8519 20.2383 55.0053 20.3707 55.0401 20.3707C55.068 20.3707 55.089 20.3986 55.089 20.4404C55.089 20.4822 54.9704 20.5101 54.8309 20.5101C54.6845 20.5101 54.4614 20.4474 54.3428 20.3707C54.2173 20.2941 53.9523 19.9875 53.7571 19.6878C53.5618 19.3951 53.3456 19.1094 53.2829 19.0606C53.2201 19.0118 53.1016 18.977 53.0179 18.977C52.8645 18.977 52.8575 18.9979 52.8784 19.5902C52.8924 20.1408 52.9063 20.2035 53.0528 20.2662C53.1364 20.308 53.2062 20.3777 53.2062 20.4265C53.2062 20.4892 53.0388 20.5101 52.6134 20.5101C52.1323 20.5101 52.0207 20.4892 52.0207 20.4056C52.0207 20.3498 52.0974 20.2871 52.3694 20.2314L52.3554 18.8237C52.3345 17.416 52.3345 17.416 52.1741 17.3742C52.0835 17.3532 52.0137 17.3114 52.0137 17.2696C52.0137 17.2278 52.1671 17.179 52.3485 17.1581C52.5367 17.1372 52.8087 17.1093 52.9621 17.1024ZM52.8436 18.078L52.8575 18.7679C53.4921 18.7679 53.5967 18.7331 53.7292 18.5937C53.8617 18.4613 53.9035 18.3428 53.9035 18.1198C53.9035 17.9526 53.8547 17.7574 53.785 17.6599C53.7152 17.5623 53.5548 17.4438 53.4363 17.3951C53.3108 17.3463 53.1643 17.3045 53.1225 17.3114C53.0737 17.3114 52.983 17.3323 52.9342 17.3532C52.8505 17.3811 52.8296 17.5275 52.8436 18.078ZM63.8056 17.1302C64.1751 17.1302 64.4332 17.1581 64.4332 17.1999C64.4332 17.2417 64.3634 17.2975 64.2797 17.3393C64.1194 17.409 64.1194 17.4299 64.0845 20.2314L64.2588 20.2662C64.3564 20.2871 64.4332 20.3498 64.4332 20.4056C64.4332 20.4892 64.3146 20.5101 63.8056 20.5101C63.2965 20.5101 63.178 20.4892 63.178 20.4056C63.178 20.3498 63.2338 20.3011 63.3035 20.3011C63.3732 20.3011 63.4639 20.2592 63.5127 20.2105C63.5754 20.1547 63.5964 19.7505 63.5964 18.8028C63.5964 17.8271 63.5754 17.4578 63.5127 17.3881C63.4639 17.3393 63.3662 17.3045 63.3035 17.3045C63.2338 17.3045 63.178 17.2627 63.178 17.2139C63.178 17.1511 63.3523 17.1302 63.8056 17.1302ZM74.3282 17.1302C74.663 17.1302 74.8931 17.1581 74.8931 17.1999C74.8861 17.2417 74.8373 17.3045 74.7676 17.3532C74.656 17.4299 74.6769 17.4926 75.3185 18.8028L75.4649 18.5588C75.5416 18.4264 75.7159 18.1059 75.8414 17.8411C76.0646 17.3951 76.0716 17.3742 75.9391 17.3393C75.8624 17.3184 75.7996 17.2627 75.7996 17.2139C75.7996 17.1581 75.9461 17.1302 76.2877 17.1302C76.5667 17.1302 76.7759 17.1581 76.7759 17.1999C76.7689 17.2417 76.6713 17.3323 76.5527 17.409C76.4202 17.4926 76.1762 17.8271 75.9112 18.2801C75.5207 18.9561 75.4858 19.0536 75.4579 19.4996C75.444 19.7784 75.4649 20.0571 75.5137 20.1408C75.5625 20.2453 75.6532 20.3011 75.7647 20.3011C75.8763 20.3011 75.9391 20.3429 75.9391 20.4056C75.9391 20.4892 75.8205 20.5101 75.2766 20.5101C74.7327 20.5101 74.6142 20.4892 74.6142 20.4056C74.6142 20.3498 74.6839 20.2941 74.7676 20.2801C74.8861 20.2732 74.9349 20.2035 74.9837 19.9875C75.0186 19.8341 75.0256 19.5763 75.0047 19.409C74.9837 19.2488 74.7745 18.74 74.5444 18.2801C74.2236 17.639 74.0842 17.4229 73.9377 17.3602C73.8262 17.3114 73.7355 17.2696 73.7285 17.2557C73.7146 17.2417 73.7216 17.2139 73.7355 17.179C73.7495 17.1511 74.0214 17.1302 74.3282 17.1302Z" stroke="#DDDEE2"/>
</svg>
