<svg width="57" height="14" viewBox="0 0 57 14" fill="none" xmlns="http://www.w3.org/2000/svg">
<path fill-rule="evenodd" clip-rule="evenodd" d="M4.01853 0.695919C2.31171 1.49102 1.35651 2.76738 1.35478 4.25488C1.35335 5.54821 2.48595 6.63471 4.66376 7.42894C8.96848 8.99872 9.60308 9.55362 8.61567 10.8849C8.30743 11.3003 7.74443 11.8 7.36431 11.9953C5.73484 12.8333 2.98138 12.0574 1.55175 10.3579C0.457667 9.05711 -0.201943 9.33729 0.05569 10.9934C0.394984 13.1773 0.396997 13.1796 1.86947 13.1923C2.61362 13.1986 4.12837 13.28 5.23539 13.3729C7.05636 13.5257 7.39824 13.465 8.82356 12.7349C10.0798 12.0914 10.5384 11.6527 11.0856 10.5714C12.3031 8.1668 11.4574 6.93244 7.6944 5.62185C4.00501 4.33715 3.11624 3.26963 4.69913 2.02434C5.25379 1.58767 5.874 1.42802 7.0138 1.42802C8.78963 1.42802 9.9579 1.932 10.7711 3.04871C11.6092 4.19993 12.3735 3.81044 12.1098 2.36666C11.7257 0.26385 11.5184 -0.0439485 10.7291 0.315917C10.2098 0.552663 9.78077 0.551799 9.09672 0.313327C7.58514 -0.213958 5.66065 -0.0686876 4.01853 0.695919ZM32.527 0.973799C31.4165 1.45765 30.4941 2.61232 30.0599 4.06243C29.8296 4.83078 29.5214 5.23149 29.0742 5.34397C28.1903 5.56575 27.9275 6.32835 28.6685 6.52223C29.3701 6.70576 29.3692 6.60709 28.6941 9.22079C27.9629 12.0523 27.8476 12.3077 27.2055 12.5114C26.9036 12.6072 26.6569 12.8709 26.6569 13.0976C26.6569 13.4189 27.1334 13.5098 28.8134 13.5098C31.0174 13.5098 31.2469 13.3703 30.6399 12.3977C30.3811 11.9835 30.4504 11.2983 30.9596 9.23748C31.5525 6.83665 31.6695 6.60594 32.2961 6.60594C33.1021 6.60594 33.2706 5.62731 32.5146 5.33706C31.9398 5.11642 32.1279 3.4802 32.8562 2.3681L33.3309 1.64319L34.0311 2.39859C34.9063 3.34299 35.1462 3.34299 35.7652 2.39773C36.2448 1.66505 36.2397 1.62449 35.5962 1.10325C34.8212 0.475282 33.7729 0.431268 32.527 0.973799ZM54.617 2.34624C53.7924 3.38527 52.7233 4.42488 51.9602 4.92973C51.2767 5.38194 51.2672 5.4248 51.7661 5.80164C52.2727 6.18452 52.2701 6.27829 51.6942 8.53558C50.9601 11.4116 50.9443 12.4187 51.6235 13.0338C52.2345 13.5869 53.9882 13.6672 54.4905 13.1646C55.0017 12.6532 54.9161 12.4417 54.1167 12.241C53.2288 12.018 53.2228 11.5926 54.0624 8.33192C54.6826 5.92303 54.7064 5.88477 55.6754 5.74295C56.9668 5.55396 57.164 4.92887 56.0055 4.69701C55.1202 4.51981 55.1145 4.50687 55.2988 3.11717C55.5044 1.56696 55.3626 1.40673 54.617 2.34624ZM15.3846 3.18362C14.8633 3.83287 14.0809 4.54829 13.6458 4.77324C12.806 5.2079 12.6035 5.8724 13.237 6.11548C13.5426 6.23313 13.4883 6.76876 12.9641 8.80713C12.1553 11.9536 12.1397 12.4305 12.8258 13.0519C13.5697 13.7253 15.8271 13.5892 15.9648 12.8626C16.0295 12.5214 15.878 12.3592 15.4947 12.3592C14.4596 12.3592 14.4751 12.0499 15.7549 7.12718C15.9927 6.21213 16.1581 6.05392 16.9566 5.97653C18.1843 5.85744 18.4187 4.96195 17.257 4.82876C16.8128 4.77785 16.466 4.60669 16.4861 4.44847C16.5063 4.29026 16.6092 3.67552 16.7147 3.08208C16.9658 1.67167 16.575 1.70158 15.3846 3.18362ZM23.6378 4.78418C21.2874 4.98784 20.5812 5.21826 19.5611 6.11433C17.6662 7.77874 16.9353 10.5181 17.8922 12.3693C18.4512 13.4503 19.0173 13.5763 22.6081 13.4172C25.8115 13.2751 26.485 12.9938 25.6988 12.125C25.2434 11.6213 25.2601 11.3981 25.9789 8.37392C26.3993 6.60537 26.6914 5.11067 26.6282 5.05256C26.3912 4.83538 24.7479 4.68781 23.6378 4.78418ZM38.4459 4.86213C35.5864 5.13167 34.3756 5.94806 33.2924 8.33709C32.2426 10.6525 32.6305 12.5652 34.3114 13.3634C35.1338 13.7538 35.6948 13.7765 38.184 13.5211C39.785 13.3565 41.1456 13.2222 41.208 13.2222C41.4705 13.2222 41.2911 12.5139 40.9222 12.0942C40.5797 11.7045 40.6188 11.2526 41.1979 8.90724C41.9898 5.70096 42.0491 4.87997 41.4886 4.87997C41.2644 4.87997 40.9084 4.83624 40.6979 4.78303C40.4872 4.72981 39.4739 4.76548 38.4459 4.86213ZM44.8155 5.36755C44.2706 5.63623 43.6504 6.26621 43.387 6.81881C42.7311 8.1947 43.2975 9.14197 45.2102 9.86918C47.3406 10.6792 47.4953 10.7816 47.5948 11.4507C47.8196 12.9616 44.6777 12.9866 43.5664 11.483C42.8703 10.5412 41.876 10.3306 41.9303 11.1366C42.0502 12.9092 42.3058 13.2886 43.4778 13.4342C46.8716 13.8547 48.703 13.3568 49.5112 11.7934C50.475 9.92901 49.6768 8.63425 47.1753 8.00398C46.4955 7.83282 45.7916 7.51467 45.6108 7.29691C44.5158 5.97682 47.3941 5.46363 48.6797 6.74977C49.7413 7.81182 50.235 7.68755 50.235 6.35826V5.24789L48.7254 5.06637C46.4866 4.79741 45.877 4.8443 44.8155 5.36755ZM23.9305 6.32691C24.2341 6.81824 23.1403 11.2747 22.5782 11.8371C21.5091 12.9066 19.756 12.2116 19.756 10.7181C19.756 8.41332 21.3406 6.03062 22.8735 6.03062C23.3543 6.03062 23.8298 6.1638 23.9305 6.32691ZM39.2988 6.67786C39.2798 7.91711 38.2122 11.8607 37.8272 12.1121C37.6141 12.2516 36.989 12.3319 36.4383 12.2904C35.0481 12.1863 34.7623 11.2951 35.4072 9.0761C36.0157 6.98192 36.9159 6.03062 38.2892 6.03062C39.1576 6.03062 39.3071 6.12641 39.2988 6.67786Z" fill="#DDDEE2"/>
</svg>
