<svg width="54" height="16" viewBox="0 0 54 16" fill="none" xmlns="http://www.w3.org/2000/svg">
<path d="M15.218 10.9585C13.8623 11.5504 12.2405 10.9294 11.6777 9.47532C11.3395 8.6048 11.4116 7.46399 12.0797 6.60872H16.1744C17.2556 7.94083 16.9022 10.2238 15.218 10.9585ZM17.8572 3.11766C17.8572 2.60665 17.443 2.1924 16.932 2.1924C16.421 2.1924 16.0067 2.60665 16.0067 3.11766V3.44688C15.6621 3.09087 14.7883 2.18598 14.2722 1.65194C14.198 1.57512 14.074 1.57144 13.9957 1.64418C13.3096 2.28214 10.3291 5.02854 9.04971 6.29371C8.93092 6.41119 9.0162 6.60872 9.18327 6.60872H9.82301C9.32677 7.74954 9.34617 9.11214 9.80361 10.1975C11.3381 13.8528 16.855 13.9318 18.463 10.1726C18.944 9.04838 18.9218 7.68855 18.4671 6.60872H19.0462C19.2191 6.60872 19.3014 6.39594 19.1736 6.27958L17.8572 5.08175V3.11766Z" fill="#DDDEE2"/>
<path d="M4.56678 3.65947C5.11117 3.65947 5.61623 3.77289 6.08501 3.9982C6.55681 4.22503 6.96358 4.53503 7.30685 4.9297C7.65314 5.32136 7.92382 5.78106 8.11738 6.30881C8.31094 6.83354 8.40771 7.39456 8.40771 7.99035V12.1277H6.16364V10.6155C6.16364 10.1966 6.16515 9.76263 6.16969 9.31502C6.17725 8.86439 6.18179 8.47879 6.18179 8.15972C6.18179 7.84972 6.13037 7.54577 6.03057 7.24636C5.92925 6.94846 5.79013 6.68686 5.61321 6.46003C5.43931 6.23018 5.23214 6.0472 4.99019 5.9096C4.75127 5.76896 4.50176 5.69789 4.24015 5.69789C3.98157 5.69789 3.73508 5.74628 3.50221 5.84306C3.27236 5.93682 3.06821 6.07594 2.89129 6.26042C2.71285 6.44188 2.57222 6.67173 2.46788 6.94998C2.36202 7.22519 2.31061 7.5488 2.31061 7.92382V12.1277H0V0H2.31061V4.51839C2.59641 4.24469 2.92455 4.03298 3.29655 3.88328C3.66703 3.73508 4.09044 3.65947 4.56678 3.65947Z" fill="#DDDEE2"/>
<path d="M28.9932 3.88931C29.2957 3.88931 29.6177 3.94072 29.961 4.04053C30.3028 4.13731 30.6203 4.31574 30.9107 4.57281C31.204 4.82686 31.446 5.17617 31.6365 5.61924C31.8255 6.05929 31.9208 6.62333 31.9208 7.31288V12.1277H29.6283V7.7242C29.6283 7.39454 29.592 7.11328 29.5195 6.88342C29.4469 6.65055 29.3501 6.46001 29.2291 6.31484C29.1081 6.16968 28.966 6.06685 28.8057 6.00636C28.6439 5.94587 28.4806 5.91563 28.3158 5.91563C28.1585 5.91563 28.0012 5.94436 27.844 6.00031C27.6897 6.05324 27.5536 6.14548 27.4326 6.27855C27.3117 6.41162 27.2149 6.59611 27.1423 6.82899C27.0697 7.06337 27.0334 7.35825 27.0334 7.7121V12.1277H24.741V7.7242C24.741 7.05128 24.623 6.58099 24.3901 6.31484C24.1603 6.0487 23.8231 5.91563 23.38 5.91563C23.0609 5.91563 22.7721 6.06534 22.515 6.36323C22.261 6.66265 22.134 7.1284 22.134 7.76049V12.1277H19.8415V3.88931H21.8013L22.134 4.65145C22.388 4.4095 22.6844 4.22199 23.0231 4.08892C23.3619 3.95585 23.7248 3.88931 24.1119 3.88931C24.3085 3.88931 24.5187 3.91048 24.741 3.9498C24.9617 3.98609 25.178 4.05565 25.3882 4.15545C25.6014 4.25677 25.8055 4.38833 25.9991 4.54862C26.1927 4.70589 26.365 4.90852 26.5193 5.15349C26.6524 4.94481 26.8127 4.75881 27.0032 4.59701C27.1922 4.43672 27.3964 4.30365 27.6141 4.19779C27.8349 4.09345 28.0647 4.01633 28.3037 3.96794C28.5411 3.91653 28.7709 3.88931 28.9932 3.88931Z" fill="#DDDEE2"/>
<path d="M35.5817 12.1277H33.2953V3.88934H35.5817V12.1277ZM34.4385 2.75823C34.0832 2.75823 33.7822 2.63726 33.5373 2.39531C33.2953 2.15033 33.1743 1.85092 33.1743 1.5001C33.1743 1.14625 33.2953 0.843812 33.5373 0.59279C33.7822 0.343281 34.0832 0.21777 34.4385 0.21777C34.7924 0.21777 35.0918 0.343281 35.3337 0.59279C35.5787 0.843812 35.7027 1.14625 35.7027 1.5001C35.7027 1.85092 35.5787 2.15033 35.3337 2.39531C35.0918 2.63726 34.7924 2.75823 34.4385 2.75823Z" fill="#DDDEE2"/>
<path d="M41.1922 3.88931C41.5022 3.88931 41.8454 3.93468 42.2204 4.02238C42.5985 4.1116 42.9539 4.27945 43.285 4.52442C43.6147 4.76637 43.8929 5.10359 44.1197 5.53456C44.3496 5.96704 44.4645 6.52504 44.4645 7.21005V12.1277H42.1539V7.29474C42.1539 7.04069 42.1116 6.82596 42.0269 6.64752C41.9452 6.4706 41.8348 6.32997 41.6942 6.22411C41.5566 6.11977 41.3993 6.04265 41.2224 5.99426C41.0485 5.94285 40.8731 5.91563 40.6962 5.91563C40.551 5.91563 40.3907 5.94285 40.2183 5.99426C40.049 6.04265 39.8887 6.12431 39.7405 6.23621C39.5908 6.34509 39.4653 6.48874 39.3655 6.66567C39.2641 6.84411 39.2142 7.05279 39.2142 7.29474V12.1277H36.9218V3.88931H38.8816L39.2142 4.51838C39.4804 4.33389 39.7783 4.18267 40.1094 4.06472C40.4436 3.94828 40.805 3.88931 41.1922 3.88931Z" fill="#DDDEE2"/>
<path d="M51.0411 3.88931H53.5513L48.3494 15.4182H45.8453L47.8897 10.8816L44.3996 3.88931H46.9582L49.0995 8.18995L51.0411 3.88931Z" fill="#DDDEE2"/>
</svg>
