<svg width="76" height="18" viewBox="0 0 76 18" fill="none" xmlns="http://www.w3.org/2000/svg">
<path fill-rule="evenodd" clip-rule="evenodd" d="M8.11389 3.41751L7.00622 6.83503L3.50311 6.86711L0 6.89918L2.73878 8.89631C4.24517 9.99473 5.52174 10.922 5.57579 10.9569C5.62984 10.9917 5.19056 12.5132 4.59946 14.3378C4.00837 16.1625 3.54657 17.6773 3.57317 17.7041C3.5999 17.7309 4.88442 16.8279 6.42788 15.6976L9.23396 13.6423L9.92413 14.1439C10.3036 14.4199 11.5667 15.3468 12.7309 16.2038C13.8951 17.0607 14.8687 17.7406 14.8946 17.7147C14.9204 17.6886 14.4552 16.1775 13.8607 14.3563C13.2664 12.5352 12.7959 11.034 12.8154 11.0204C12.8348 11.0067 14.1118 10.0739 15.6531 8.94739L18.4555 6.89918L14.9346 6.83866L11.4138 6.77814L10.3177 3.38907L9.22156 0L8.11389 3.41751ZM11.7489 8.56007L13.3049 8.59372L12.1347 9.42743C11.4911 9.88604 10.9368 10.3335 10.9031 10.4219C10.8693 10.5104 11.0364 11.1701 11.2744 11.8881C11.5124 12.6061 11.707 13.235 11.707 13.2856C11.707 13.3364 11.2457 13.0367 10.6818 12.6198C10.1179 12.2028 9.55767 11.7926 9.43657 11.7083C9.24407 11.5739 9.07457 11.6582 8.08415 12.3805C7.4614 12.8348 6.8874 13.2455 6.80866 13.2931C6.72993 13.3408 6.87897 12.7413 7.13972 11.9608C7.4006 11.1803 7.61392 10.5035 7.61392 10.4566C7.61392 10.4099 7.06015 9.97162 6.38322 9.48274L5.15264 8.59372L6.70453 8.5332L8.25654 8.47268L8.73869 7.02022L9.22084 5.56776L9.70683 7.04709L10.1928 8.52654L11.7489 8.56007ZM21.7228 10.5606C21.756 13.9547 21.7792 14.3157 21.9863 14.6594C22.4178 15.376 22.7705 15.4888 24.7087 15.5299C26.3344 15.5645 26.4915 15.5478 26.996 15.2879C27.9416 14.8007 27.9588 14.7152 27.9589 10.5001L27.9591 6.83866H27.0562H26.1533L26.1515 10.137C26.1505 11.9511 26.1053 13.5054 26.0511 13.5914C25.9794 13.705 25.6448 13.738 24.819 13.7124L23.6854 13.6773L23.6534 10.258L23.6215 6.83866H22.6539H21.6862L21.7228 10.5606ZM32.3433 6.95595C32.2056 7.01199 31.9482 7.23058 31.7715 7.44167C31.4662 7.8066 31.4503 7.89121 31.4503 9.15364C31.4503 11.1811 31.5035 11.2423 33.858 11.9191C35.6854 12.4444 35.6642 12.4311 35.662 13.0461C35.6591 13.8436 35.6093 13.873 34.3295 13.8335L33.1959 13.7984L33.1596 13.1629L33.1231 12.5275H32.2266H31.3299L31.3326 13.3445C31.3361 14.4069 31.6264 15.0745 32.2056 15.3508C32.8507 15.6585 36.0373 15.6444 36.6288 15.3313C37.3301 14.9601 37.4855 14.4992 37.4447 12.9107L37.4094 11.5387L37.0238 11.1926C36.8012 10.9928 36.2925 10.7452 35.82 10.6067C35.37 10.4748 34.609 10.2515 34.1289 10.1106L33.2561 9.85433V9.19382V8.5332H34.46H35.6638V9.13839V9.74358H36.5667H37.4696L37.4691 8.86605C37.4688 8.2093 37.4095 7.89097 37.2337 7.60108C36.8247 6.92666 36.4952 6.83781 34.4359 6.84629C33.4228 6.85052 32.4812 6.89991 32.3433 6.95595ZM43.9812 11.0447C43.2956 13.3581 42.7081 15.3213 42.6756 15.4072C42.6296 15.5291 42.8385 15.5558 43.6188 15.5282L44.6211 15.4929L44.8011 14.7969L44.9811 14.101H46.5065H48.0318L48.2345 14.8272L48.4371 15.5534H49.3941C49.9766 15.5534 50.3509 15.5042 50.3509 15.4274C50.3509 15.3196 48.9056 10.1647 48.1719 7.65567L47.933 6.83866H46.5803H45.2276L43.9812 11.0447ZM51.3425 11.1658L51.3742 15.4929L52.3072 15.5282L53.2402 15.5636V14.0455V12.5275L53.8722 12.5284L54.5042 12.5294L55.17 14.0111L55.8357 15.4929L56.8855 15.5279C57.4628 15.5471 57.9352 15.5341 57.9352 15.4988C57.9352 15.4636 57.5981 14.7544 57.1862 13.923L56.4371 12.4111L56.887 11.9479C57.462 11.3559 57.5741 10.9402 57.5741 9.39959C57.5741 7.89339 57.4018 7.42461 56.7196 7.07469C56.3075 6.86335 56.0007 6.83866 53.7852 6.83866H51.311L51.3425 11.1658ZM59.0187 11.1918V15.5534H59.8614H60.7041L60.7112 12.8603L60.7182 10.1672L61.6442 12.8301C62.4992 15.2892 62.5919 15.4929 62.8555 15.4929C63.1188 15.4929 63.2071 15.2997 63.9996 12.9909C64.4719 11.6148 64.8988 10.4484 64.9482 10.3988C64.9975 10.349 65.038 11.4886 65.038 12.9309V15.5534H65.9409H66.8438V11.196V6.83866H65.5914H64.3391L64.0779 7.71619C63.9343 8.19877 63.6135 9.24732 63.3649 10.0462L62.9129 11.4986L62.4038 9.86462C62.1238 8.96591 61.7985 7.93103 61.6809 7.56489L61.4671 6.89918L60.2429 6.86468L59.0187 6.83019V11.1918ZM67.6865 6.90971C67.6865 6.94868 68.3095 8.16488 69.0709 9.61225L70.4553 12.2439V13.8986V15.5534H71.4184H72.3815V13.8459V12.1384L73.6017 9.88192C74.2729 8.6408 74.9273 7.44845 75.0563 7.23204L75.2904 6.83866H74.2043H73.118L72.3365 8.47268C71.9067 9.37139 71.5226 10.1067 71.483 10.1067C71.4432 10.1067 71.0592 9.37139 70.6294 8.47268L69.848 6.83866H68.7672C68.1728 6.83866 67.6865 6.87062 67.6865 6.90971ZM55.5877 9.68306V10.7724L54.4139 10.807L53.2402 10.8416V9.68306V8.52448L54.4139 8.5591L55.5877 8.59372V9.68306ZM47.0298 10.3834C47.2599 11.2345 47.4819 12.0379 47.5232 12.1687C47.5938 12.3924 47.5372 12.4064 46.5668 12.4064C45.8036 12.4064 45.5355 12.3658 45.5355 12.2499C45.5355 12.1101 45.7223 11.4155 46.3399 9.25943C46.4449 8.89329 46.5489 8.64818 46.571 8.71475C46.5933 8.78132 46.7998 9.53225 47.0298 10.3834ZM28.8018 14.5851V15.5534H29.7047H30.6076V14.5851V13.6168H29.7047H28.8018V14.5851ZM38.3123 14.5851V15.5636L39.2453 15.5282L40.1783 15.4929V14.5851V13.6773L39.2453 13.642L38.3123 13.6066V14.5851Z" fill="#DDDEE2"/>
</svg>
