<svg width="59" height="18" viewBox="0 0 59 18" fill="none" xmlns="http://www.w3.org/2000/svg">
<path fill-rule="evenodd" clip-rule="evenodd" d="M55.245 0.0687014C55.245 0.106899 55.0636 0.137403 54.8368 0.137403C54.6101 0.137403 54.4286 0.167906 54.4286 0.206104C54.4286 0.24389 54.3368 0.274806 54.2245 0.274806C54.1122 0.274806 54.0204 0.305721 54.0204 0.343507C54.0204 0.381293 53.9592 0.412209 53.8843 0.412209C53.8095 0.412209 53.7482 0.443124 53.7482 0.48091C53.7482 0.518696 53.7075 0.549612 53.6577 0.549612C53.559 0.549612 52.9498 1.1818 52.8127 1.42645C52.766 1.50992 52.7277 1.62506 52.7277 1.68222C52.7277 1.73945 52.6971 1.78624 52.6597 1.78624C52.6223 1.78624 52.5916 1.89444 52.5916 2.02669C52.5916 2.15894 52.561 2.26715 52.5236 2.26715C52.4828 2.26715 52.4556 2.54195 52.4556 2.95416C52.4556 3.36637 52.4828 3.64118 52.5236 3.64118C52.561 3.64118 52.5916 3.72774 52.5916 3.83361C52.5916 4.04232 52.7304 4.39552 52.8127 4.39634C52.8408 4.39662 52.8638 4.44395 52.8638 4.50146C52.8638 4.63749 53.578 5.35871 53.7127 5.35871C53.7697 5.35871 53.8163 5.38963 53.8163 5.42741C53.8163 5.4652 53.8622 5.49612 53.9183 5.49612C53.9745 5.49612 54.0204 5.52703 54.0204 5.56482C54.0204 5.6026 54.0816 5.63352 54.1565 5.63352C54.2313 5.63352 54.2925 5.66443 54.2925 5.70222C54.2925 5.74001 54.3538 5.77092 54.4286 5.77092C54.5034 5.77092 54.5647 5.80184 54.5647 5.83962C54.5647 5.87741 54.6565 5.90832 54.7688 5.90832C54.881 5.90832 54.9729 5.93526 54.9729 5.96816C54.9729 6.00107 55.126 6.04854 55.3131 6.07362C55.5002 6.09863 55.6532 6.14899 55.6532 6.18547C55.6532 6.22195 55.7026 6.25183 55.7628 6.25183C55.9698 6.25183 56.5494 6.69413 56.714 6.97766C56.846 7.20506 56.8779 7.35614 56.8779 7.75303C56.8779 8.02419 56.8396 8.31521 56.7928 8.39971C56.6413 8.67335 56.4488 8.86249 56.3218 8.86249C56.2535 8.86249 56.1975 8.8934 56.1975 8.93119C56.1975 8.97213 55.9367 8.99989 55.5512 8.99989C55.1656 8.99989 54.9048 8.97213 54.9048 8.93119C54.9048 8.8934 54.8489 8.86249 54.7806 8.86249C54.6535 8.86249 54.4611 8.67335 54.3095 8.39971C54.2628 8.31521 54.2245 8.02921 54.2245 7.76423V7.28235H53.272H52.3195V7.79761C52.3195 8.0953 52.3482 8.31288 52.3875 8.31288C52.4249 8.31288 52.4556 8.43654 52.4556 8.58768C52.4556 8.73882 52.4862 8.86249 52.5236 8.86249C52.561 8.86249 52.5916 8.92432 52.5916 8.99989C52.5916 9.07546 52.6223 9.13729 52.6597 9.13729C52.6971 9.13729 52.7277 9.17481 52.7277 9.22063C52.7277 9.35185 53.474 10.0304 53.6184 10.0304C53.6898 10.0304 53.7482 10.0613 53.7482 10.0991C53.7482 10.1369 53.8095 10.1678 53.8843 10.1678C53.9592 10.1678 54.0204 10.1987 54.0204 10.2365C54.0204 10.2747 54.2018 10.3052 54.4286 10.3052C54.6554 10.3052 54.8368 10.3357 54.8368 10.3739C54.8368 10.4143 55.0749 10.4426 55.4151 10.4426C55.7553 10.4426 55.9934 10.4143 55.9934 10.3739C55.9934 10.3357 56.1749 10.3052 56.4016 10.3052C56.6284 10.3052 56.8098 10.2747 56.8098 10.2365C56.8098 10.1987 56.9017 10.1678 57.014 10.1678C57.1262 10.1678 57.2181 10.1427 57.2181 10.112C57.2181 10.0812 57.3252 10.0136 57.4562 9.96171C57.5872 9.90984 57.6943 9.8498 57.6943 9.82822C57.6943 9.80672 57.7862 9.74812 57.8984 9.6979C58.0107 9.64774 58.1025 9.57533 58.1025 9.53693C58.1025 9.49859 58.1944 9.38056 58.3066 9.2747C58.4189 9.16883 58.5107 9.03273 58.5107 8.97234C58.5107 8.91188 58.5414 8.86249 58.5788 8.86249C58.6162 8.86249 58.6468 8.76974 58.6468 8.65638C58.6468 8.54303 58.6774 8.45028 58.7149 8.45028C58.7571 8.45028 58.7829 8.07242 58.7829 7.45411C58.7829 6.83579 58.7571 6.45794 58.7149 6.45794C58.6774 6.45794 58.6468 6.3961 58.6468 6.32053C58.6468 6.24496 58.6162 6.18313 58.5788 6.18313C58.5414 6.18313 58.5107 6.13435 58.5107 6.07472C58.5107 5.90461 57.7898 5.23725 57.4345 5.07841C57.3154 5.02517 57.2181 4.95832 57.2181 4.92974C57.2181 4.90116 57.1568 4.8778 57.082 4.8778C57.0072 4.8778 56.9459 4.84689 56.9459 4.8091C56.9459 4.77132 56.8847 4.7404 56.8098 4.7404C56.735 4.7404 56.6738 4.70948 56.6738 4.6717C56.6738 4.63391 56.5819 4.603 56.4697 4.603C56.3574 4.603 56.2656 4.57208 56.2656 4.5343C56.2656 4.49651 56.2043 4.46559 56.1295 4.46559C56.0547 4.46559 55.9934 4.43468 55.9934 4.39689C55.9934 4.35911 55.9322 4.32819 55.8573 4.32819C55.7825 4.32819 55.7213 4.29728 55.7213 4.25949C55.7213 4.2217 55.6294 4.19079 55.5172 4.19079C55.4049 4.19079 55.3131 4.15987 55.3131 4.12209C55.3131 4.0843 55.2586 4.05339 55.192 4.05339C55.1254 4.05339 55.0268 3.99155 54.9729 3.91598C54.9189 3.84041 54.8424 3.77858 54.8028 3.77858C54.7632 3.77858 54.6858 3.71297 54.6307 3.63273C54.5757 3.55255 54.4924 3.44655 54.4456 3.39722C54.3374 3.28297 54.331 2.24523 54.4373 2.04462C54.553 1.82636 54.8172 1.58013 54.9358 1.58013C54.9936 1.58013 55.0409 1.54922 55.0409 1.51143C55.0409 1.47275 55.2316 1.44273 55.4767 1.44273C55.9764 1.44273 56.4697 1.65385 56.4697 1.86772C56.4697 1.93621 56.4928 1.99234 56.5212 1.99234C56.5936 1.99234 56.7418 2.49895 56.7418 2.74696V2.95416H57.6263H58.5107V2.58036C58.5107 2.37473 58.4801 2.18745 58.4427 2.1641C58.4053 2.14074 58.3747 2.01529 58.3747 1.88524C58.3747 1.75518 58.3441 1.64883 58.3066 1.64883C58.2692 1.64883 58.2386 1.587 58.2386 1.51143C58.2386 1.43586 58.208 1.37403 58.1706 1.37403C58.1331 1.37403 58.1025 1.32683 58.1025 1.26919C58.1025 1.13282 57.525 0.549612 57.3899 0.549612C57.3328 0.549612 57.2861 0.518696 57.2861 0.48091C57.2861 0.443124 57.2402 0.412209 57.184 0.412209C57.1279 0.412209 57.082 0.381293 57.082 0.343507C57.082 0.305721 56.9901 0.274806 56.8779 0.274806C56.7656 0.274806 56.6738 0.24389 56.6738 0.206104C56.6738 0.167906 56.4923 0.137403 56.2656 0.137403C56.0388 0.137403 55.8573 0.106899 55.8573 0.0687014C55.8573 0.0309157 55.7196 0 55.5512 0C55.3828 0 55.245 0.0309157 55.245 0.0687014ZM0 0.858768V1.44273H0.370182C0.573814 1.44273 0.759279 1.47365 0.782411 1.51143C0.805543 1.54922 1.02162 1.58013 1.26268 1.58013C1.50944 1.58013 1.70089 1.61016 1.70089 1.64883C1.70089 1.68889 1.92766 1.71754 2.24518 1.71754C2.5627 1.71754 2.78947 1.74618 2.78947 1.78624C2.78947 1.82547 2.99357 1.85494 3.26572 1.85494C3.53786 1.85494 3.74197 1.88441 3.74197 1.92364C3.74197 1.96335 3.95744 1.99234 4.25223 1.99234C4.54703 1.99234 4.7625 2.02133 4.7625 2.06104C4.7625 2.1011 4.98927 2.12974 5.30679 2.12974C5.62431 2.12974 5.85107 2.15839 5.85107 2.19845C5.85107 2.23767 6.05518 2.26715 6.32732 2.26715C6.59947 2.26715 6.80357 2.29662 6.80357 2.33585C6.80357 2.37556 7.01904 2.40455 7.31384 2.40455C7.60864 2.40455 7.82411 2.43354 7.82411 2.47325C7.82411 2.51248 8.02822 2.54195 8.30036 2.54195C8.5725 2.54195 8.77661 2.57143 8.77661 2.61066C8.77661 2.65071 9.00337 2.67936 9.3209 2.67936C9.63842 2.67936 9.86518 2.70801 9.86518 2.74806C9.86518 2.78777 10.0807 2.81676 10.3755 2.81676C10.6561 2.81676 10.8857 2.843 10.8857 2.87502C10.8857 2.9071 11.3373 2.96976 11.8892 3.01428C12.4412 3.05886 13.0994 3.11245 13.352 3.1334C13.6046 3.15436 13.8113 3.1975 13.8113 3.22917C13.8113 3.26085 14.0409 3.30475 14.3215 3.32659C14.6022 3.34844 15.0614 3.3843 15.3421 3.40615C15.6227 3.428 15.8523 3.47437 15.8523 3.5092C15.8523 3.54403 16.0513 3.57248 16.2946 3.57248H16.7368V1.92364V0.274806H8.3684H0V0.858768ZM19.1861 1.06487V1.85494H20.2406H21.2952V6.08008V10.3052H22.2477H23.2002V6.08008V1.85494H24.2888H25.3773V1.06487V0.274806H22.2817H19.1861V1.06487ZM26.3298 5.29001V10.3052H29.1193H31.9088V9.55067V8.79605L30.1228 8.77778L28.3369 8.75944L28.3185 7.33388L28.3001 5.90832H29.9684H31.6366V5.11826V4.32819H29.9697H28.3029V3.09157V1.85494H30.0378H31.7727V1.06487V0.274806H29.0513H26.3298V5.29001ZM32.9973 5.29001V10.3052H33.9158H34.8343V6.80144C34.8343 4.31143 34.8558 3.29767 34.9087 3.29767C34.9496 3.29767 34.9992 3.3595 35.0187 3.43507C35.0383 3.51064 35.0774 3.57248 35.1056 3.57248C35.1339 3.57248 35.1773 3.72705 35.2021 3.91598C35.2269 4.10491 35.2767 4.25949 35.3129 4.25949C35.349 4.25949 35.3786 4.35224 35.3786 4.46559C35.3786 4.57895 35.4092 4.6717 35.4466 4.6717C35.484 4.6717 35.5147 4.76445 35.5147 4.8778C35.5147 4.99116 35.5453 5.08391 35.5827 5.08391C35.6201 5.08391 35.6507 5.17665 35.6507 5.29001C35.6507 5.40337 35.6813 5.49612 35.7188 5.49612C35.7562 5.49612 35.7868 5.58886 35.7868 5.70222C35.7868 5.81558 35.8174 5.90832 35.8548 5.90832C35.8923 5.90832 35.9229 5.98561 35.9229 6.08008C35.9229 6.17454 35.9535 6.25183 35.9909 6.25183C36.0283 6.25183 36.0589 6.34458 36.0589 6.45794C36.0589 6.57129 36.0896 6.66404 36.127 6.66404C36.1644 6.66404 36.195 6.72587 36.195 6.80144C36.195 6.87702 36.2256 6.93885 36.2631 6.93885C36.3005 6.93885 36.3311 7.03159 36.3311 7.14495C36.3311 7.25831 36.3617 7.35106 36.3991 7.35106C36.4365 7.35106 36.4672 7.4438 36.4672 7.55716C36.4672 7.67052 36.4978 7.76326 36.5352 7.76326C36.5726 7.76326 36.6032 7.85601 36.6032 7.96937C36.6032 8.08273 36.6338 8.17547 36.6713 8.17547C36.7087 8.17547 36.7393 8.26822 36.7393 8.38158C36.7393 8.49493 36.7699 8.58768 36.8073 8.58768C36.8448 8.58768 36.8754 8.68043 36.8754 8.79379C36.8754 8.90714 36.906 8.99989 36.9434 8.99989C36.9808 8.99989 37.0114 9.07718 37.0114 9.17164C37.0114 9.26611 37.0421 9.3434 37.0795 9.3434C37.1169 9.3434 37.1475 9.42069 37.1475 9.51515C37.1475 9.60962 37.1781 9.6869 37.2156 9.6869C37.253 9.6869 37.2836 9.74255 37.2836 9.81063C37.2836 9.87865 37.3219 10.0175 37.3686 10.1192L37.4537 10.3041L38.5252 10.3047L39.5968 10.3052V5.29001V0.274806H38.7123H37.8279V3.64118C37.8279 6.58771 37.8152 7.00755 37.7258 7.00755C37.6691 7.00755 37.6238 6.94647 37.6238 6.87014C37.6238 6.79457 37.5932 6.73274 37.5557 6.73274C37.5183 6.73274 37.4877 6.64 37.4877 6.52664C37.4877 6.41328 37.4571 6.32053 37.4197 6.32053C37.3822 6.32053 37.3516 6.2587 37.3516 6.18313C37.3516 6.10756 37.321 6.04573 37.2836 6.04573C37.2462 6.04573 37.2156 5.95298 37.2156 5.83962C37.2156 5.72627 37.1849 5.63352 37.1475 5.63352C37.1101 5.63352 37.0795 5.55623 37.0795 5.46177C37.0795 5.3673 37.0489 5.29001 37.0114 5.29001C36.974 5.29001 36.9434 5.19726 36.9434 5.08391C36.9434 4.97055 36.9128 4.8778 36.8754 4.8778C36.838 4.8778 36.8073 4.78506 36.8073 4.6717C36.8073 4.55834 36.7767 4.46559 36.7393 4.46559C36.7019 4.46559 36.6713 4.37285 36.6713 4.25949C36.6713 4.14613 36.6407 4.05339 36.6032 4.05339C36.5658 4.05339 36.5352 3.99155 36.5352 3.91598C36.5352 3.84041 36.5046 3.77858 36.4672 3.77858C36.4297 3.77858 36.3991 3.71627 36.3991 3.64008C36.3991 3.44661 36.2407 2.95416 36.1785 2.95416C36.1501 2.95416 36.127 2.87873 36.127 2.78646C36.127 2.6942 36.0964 2.59966 36.0589 2.5763C36.0215 2.55295 35.9909 2.45841 35.9909 2.36615C35.9909 2.27388 35.9603 2.19845 35.9229 2.19845C35.8855 2.19845 35.8548 2.1057 35.8548 1.99234C35.8548 1.87898 35.831 1.78624 35.8019 1.78624C35.7377 1.78624 35.5147 1.04996 35.5147 0.838227C35.5147 0.755029 35.484 0.687014 35.4466 0.687014C35.4092 0.687014 35.3786 0.594268 35.3786 0.48091V0.274806H34.188H32.9973V5.29001ZM41.1616 5.29001V10.3052H41.9781H42.7945V6.80144C42.7945 4.35567 42.8165 3.29767 42.8673 3.29767C42.9972 3.29767 43.1347 3.48948 43.1347 3.67065C43.1347 3.76779 43.1653 3.84728 43.2027 3.84728C43.2401 3.84728 43.2707 3.94003 43.2707 4.05339C43.2707 4.16674 43.3014 4.25949 43.3388 4.25949C43.3762 4.25949 43.4068 4.35224 43.4068 4.46559C43.4068 4.57895 43.4374 4.6717 43.4748 4.6717C43.5123 4.6717 43.5429 4.73353 43.5429 4.8091C43.5429 4.88467 43.5735 4.9465 43.6109 4.9465C43.6483 4.9465 43.6789 5.0374 43.6789 5.14856C43.6789 5.25971 43.7096 5.36971 43.747 5.39306C43.7844 5.41642 43.815 5.51096 43.815 5.60322C43.815 5.69549 43.8456 5.77092 43.8831 5.77092C43.9205 5.77092 43.9511 5.86367 43.9511 5.97703C43.9511 6.09038 43.9817 6.18313 44.0191 6.18313C44.0565 6.18313 44.0872 6.25857 44.0872 6.35083C44.0872 6.4431 44.1178 6.53763 44.1552 6.56099C44.1926 6.58435 44.2232 6.67888 44.2232 6.77115C44.2232 6.86341 44.2539 6.93885 44.2913 6.93885C44.3287 6.93885 44.3593 7.03159 44.3593 7.14495C44.3593 7.25831 44.3889 7.35106 44.425 7.35106C44.4612 7.35106 44.511 7.50563 44.5358 7.69456C44.5606 7.88349 44.6076 8.03807 44.6402 8.03807C44.6728 8.03807 44.6995 8.13082 44.6995 8.24417C44.6995 8.35753 44.7301 8.45028 44.7675 8.45028C44.8049 8.45028 44.8356 8.54303 44.8356 8.65638C44.8356 8.76974 44.8662 8.86249 44.9036 8.86249C44.941 8.86249 44.9716 8.93978 44.9716 9.03424C44.9716 9.12871 45.0022 9.20599 45.0397 9.20599C45.0771 9.20599 45.1077 9.29874 45.1077 9.4121C45.1077 9.52546 45.1383 9.6182 45.1757 9.6182C45.2132 9.6182 45.2438 9.71095 45.2438 9.82431C45.2438 9.93766 45.2744 10.0304 45.3118 10.0304C45.3492 10.0304 45.3798 10.0922 45.3798 10.1678C45.3798 10.2997 45.4252 10.3052 46.5024 10.3052H47.625V5.29001V0.274806H46.7746H45.9241V3.70988C45.9241 6.1068 45.9021 7.14495 45.8513 7.14495C45.7117 7.14495 45.6106 6.9699 45.4447 6.4411C45.3529 6.14844 45.2549 5.90887 45.2268 5.90867C45.1987 5.90846 45.1757 5.83289 45.1757 5.74062C45.1757 5.64836 45.1451 5.55383 45.1077 5.53047C45.0703 5.50711 45.0397 5.41258 45.0397 5.32031C45.0397 5.22804 45.013 5.15261 44.9804 5.15261C44.9478 5.15261 44.9008 4.99803 44.876 4.8091C44.8512 4.62017 44.8013 4.46559 44.7652 4.46559C44.7291 4.46559 44.6995 4.37285 44.6995 4.25949C44.6995 4.14613 44.6689 4.05339 44.6315 4.05339C44.594 4.05339 44.5634 3.96064 44.5634 3.84728C44.5634 3.73392 44.5328 3.64118 44.4954 3.64118C44.458 3.64118 44.4273 3.54843 44.4273 3.43507C44.4273 3.32172 44.3967 3.22897 44.3593 3.22897C44.3219 3.22897 44.2913 3.13622 44.2913 3.02286C44.2913 2.90951 44.2607 2.81676 44.2232 2.81676C44.1858 2.81676 44.1552 2.73947 44.1552 2.64501C44.1552 2.55054 44.1246 2.47325 44.0872 2.47325C44.0497 2.47325 44.0191 2.41328 44.0191 2.3399C44.0191 2.26653 43.9885 2.18745 43.9511 2.1641C43.9137 2.14074 43.8831 2.0462 43.8831 1.95394C43.8831 1.86167 43.8524 1.78624 43.815 1.78624C43.7776 1.78624 43.747 1.69349 43.747 1.58013C43.747 1.46678 43.7164 1.37403 43.6789 1.37403C43.6415 1.37403 43.6109 1.28128 43.6109 1.16792C43.6109 1.05457 43.5803 0.96182 43.5429 0.96182C43.5055 0.96182 43.4748 0.869073 43.4748 0.755716C43.4748 0.642359 43.4442 0.549612 43.4068 0.549612C43.3694 0.549612 43.3388 0.48778 43.3388 0.412209C43.3388 0.280508 43.2934 0.274806 42.2502 0.274806H41.1616V5.29001ZM49.2579 5.29001V10.3052H50.1423H51.0268V5.29001V0.274806H50.1423H49.2579V5.29001ZM0 11.164V17.1754H1.905C3.76462 17.1754 3.81 17.1721 3.81 17.038C3.81 16.9624 3.84062 16.9006 3.87804 16.9006C3.91546 16.9006 3.94607 16.7769 3.94607 16.6258C3.94607 16.4746 3.97669 16.3509 4.01411 16.3509C4.05153 16.3509 4.08214 16.2582 4.08214 16.1448C4.08214 16.0315 4.11276 15.9387 4.15018 15.9387C4.1876 15.9387 4.21822 15.8305 4.21822 15.6983C4.21822 15.566 4.24883 15.4578 4.28625 15.4578C4.32367 15.4578 4.35429 15.3342 4.35429 15.183C4.35429 15.0319 4.3849 14.9082 4.42232 14.9082C4.45974 14.9082 4.49036 14.8155 4.49036 14.7021C4.49036 14.5888 4.51662 14.496 4.54873 14.496C4.58078 14.496 4.62691 14.3041 4.6512 14.0696C4.67548 13.8351 4.72576 13.6125 4.76291 13.575C4.80013 13.5374 4.83054 13.422 4.83054 13.3184C4.83054 13.2148 4.86115 13.111 4.89857 13.0876C4.93599 13.0643 4.96661 12.9561 4.96661 12.8472C4.96661 12.7383 4.99723 12.6301 5.03465 12.6067C5.07207 12.5834 5.10268 12.4579 5.10268 12.3279C5.10268 12.1978 5.1333 12.0915 5.17072 12.0915C5.20814 12.0915 5.23875 11.9987 5.23875 11.8854C5.23875 11.772 5.26937 11.6792 5.30679 11.6792C5.34421 11.6792 5.37482 11.5556 5.37482 11.4044C5.37482 11.2533 5.40544 11.1296 5.44286 11.1296C5.48028 11.1296 5.5109 11.0369 5.5109 10.9235C5.5109 10.8102 5.54151 10.7174 5.57893 10.7174C5.61635 10.7174 5.64697 10.6111 5.64697 10.481C5.64697 10.351 5.67758 10.2255 5.715 10.2022C5.75242 10.1788 5.78304 10.0688 5.78304 9.95766C5.78304 9.8465 5.81365 9.75561 5.85107 9.75561C5.88849 9.75561 5.91911 9.64926 5.91911 9.5192C5.91911 9.38915 5.94973 9.2637 5.98715 9.24035C6.02457 9.21699 6.05518 9.09154 6.05518 8.96149C6.05518 8.83143 6.0858 8.72508 6.12322 8.72508C6.16064 8.72508 6.19125 8.63234 6.19125 8.51898C6.19125 8.40562 6.22187 8.31288 6.25929 8.31288C6.29671 8.31288 6.32732 8.18921 6.32732 8.03807C6.32732 7.88693 6.35794 7.76326 6.39536 7.76326C6.43278 7.76326 6.4634 7.67052 6.4634 7.55716C6.4634 7.4438 6.49401 7.35106 6.53143 7.35106C6.56885 7.35106 6.59947 7.2447 6.59947 7.11465C6.59947 6.9846 6.63008 6.85915 6.6675 6.83579C6.70492 6.81244 6.73554 6.70245 6.73554 6.59129C6.73554 6.48013 6.76616 6.38923 6.80357 6.38923C6.84099 6.38923 6.87161 6.31195 6.87161 6.21748C6.87161 6.0629 6.8444 6.04573 6.59947 6.04573C6.44979 6.04573 6.32732 6.01481 6.32732 5.97703C6.32732 5.93697 6.10056 5.90832 5.78304 5.90832C5.48368 5.90832 5.23875 5.8816 5.23875 5.8489C5.23875 5.8162 4.81782 5.76701 4.30326 5.73959C3.78877 5.71218 3.33715 5.6645 3.29973 5.63366C3.26231 5.60274 3.03269 5.56056 2.78947 5.53995C2.54624 5.51927 2.10999 5.4821 1.81996 5.45737C1.52992 5.43264 1.29268 5.38489 1.29268 5.35122C1.29268 5.31756 1.04775 5.29001 0.748393 5.29001C0.43087 5.29001 0.204107 5.26136 0.204107 5.22131C0.204107 5.18352 0.158183 5.15261 0.102054 5.15261C0.0121104 5.15261 0 5.86635 0 11.164ZM10.5455 6.80144C10.5455 6.9148 10.5149 7.00755 10.4775 7.00755C10.4401 7.00755 10.4095 7.1139 10.4095 7.24395C10.4095 7.374 10.3789 7.49945 10.3414 7.52281C10.304 7.54617 10.2734 7.65616 10.2734 7.76732C10.2734 7.87848 10.2428 7.96937 10.2054 7.96937C10.1679 7.96937 10.1373 8.07757 10.1373 8.20982C10.1373 8.34207 10.1067 8.45028 10.0693 8.45028C10.0319 8.45028 10.0013 8.57394 10.0013 8.72508C10.0013 8.87623 9.97064 8.99989 9.93322 8.99989C9.8958 8.99989 9.86518 9.09264 9.86518 9.20599C9.86518 9.31935 9.83457 9.4121 9.79715 9.4121C9.75973 9.4121 9.72911 9.53576 9.72911 9.6869C9.72911 9.83805 9.6985 9.96171 9.66108 9.96171C9.62366 9.96171 9.59304 10.0545 9.59304 10.1678C9.59304 10.2812 9.56242 10.3739 9.525 10.3739C9.48759 10.3739 9.45697 10.4803 9.45697 10.6103C9.45697 10.7404 9.42635 10.8658 9.38893 10.8892C9.35151 10.9125 9.3209 11.0225 9.3209 11.1337C9.3209 11.2448 9.29028 11.3357 9.25286 11.3357C9.21544 11.3357 9.18483 11.4439 9.18483 11.5762C9.18483 11.7084 9.15421 11.8166 9.11679 11.8166C9.07937 11.8166 9.04875 11.9094 9.04875 12.0228C9.04875 12.1361 9.01814 12.2289 8.98072 12.2289C8.9433 12.2289 8.91268 12.3525 8.91268 12.5037C8.91268 12.6548 8.88207 12.7785 8.84465 12.7785C8.80723 12.7785 8.77661 12.8712 8.77661 12.9846C8.77661 13.0979 8.746 13.1907 8.70858 13.1907C8.67116 13.1907 8.64054 13.3143 8.64054 13.4655C8.64054 13.6166 8.60992 13.7403 8.5725 13.7403C8.53508 13.7403 8.50447 13.833 8.50447 13.9464C8.50447 14.0598 8.47385 14.1525 8.43643 14.1525C8.39901 14.1525 8.3684 14.2762 8.3684 14.4273C8.3684 14.5784 8.33778 14.7021 8.30036 14.7021C8.26294 14.7021 8.23233 14.8103 8.23233 14.9426C8.23233 15.0748 8.20171 15.183 8.16429 15.183C8.12687 15.183 8.09625 15.2758 8.09625 15.3891C8.09625 15.5025 8.06564 15.5952 8.02822 15.5952C7.9908 15.5952 7.96018 15.7189 7.96018 15.87C7.96018 16.0212 7.92957 16.1448 7.89215 16.1448C7.85473 16.1448 7.82411 16.2376 7.82411 16.3509C7.82411 16.4643 7.79349 16.557 7.75608 16.557C7.71866 16.557 7.68804 16.6781 7.68804 16.8262C7.68804 16.9771 7.65069 17.1104 7.60299 17.1299C7.55625 17.1489 9.59222 17.167 12.1274 17.1699L16.7368 17.1754V12.2976V7.41976H16.5327C16.4204 7.41976 16.3286 7.38884 16.3286 7.35106C16.3286 7.31183 16.1245 7.28235 15.8523 7.28235C15.5802 7.28235 15.3761 7.25288 15.3761 7.21365C15.3761 7.17394 15.1606 7.14495 14.8658 7.14495C14.571 7.14495 14.3555 7.11596 14.3555 7.07625C14.3555 7.03702 14.1514 7.00755 13.8793 7.00755C13.6071 7.00755 13.403 6.97808 13.403 6.93885C13.403 6.89962 13.1989 6.87014 12.9268 6.87014C12.6546 6.87014 12.4505 6.84067 12.4505 6.80144C12.4505 6.76173 12.2351 6.73274 11.9403 6.73274C11.6455 6.73274 11.43 6.70375 11.43 6.66404C11.43 6.62529 11.2373 6.59534 10.9878 6.59534H10.5455V6.80144ZM21.2952 12.1602C21.2952 12.1979 21.2176 12.2289 21.1229 12.2289C20.9312 12.2289 20.4788 12.6374 20.4788 12.8106C20.4788 12.8685 20.4481 12.9159 20.4107 12.9159C20.3733 12.9159 20.3427 12.9777 20.3427 13.0533C20.3427 13.1288 20.3121 13.1907 20.2747 13.1907C20.235 13.1907 20.2066 13.4197 20.2066 13.7403C20.2066 14.0609 20.1782 14.2899 20.1386 14.2899C20.1002 14.2899 20.0705 14.4845 20.0705 14.7365C20.0705 14.9884 20.1002 15.183 20.1386 15.183C20.1779 15.183 20.2066 15.4006 20.2066 15.6983C20.2066 15.996 20.2353 16.2135 20.2747 16.2135C20.3121 16.2135 20.3427 16.2754 20.3427 16.3509C20.3427 16.4265 20.3733 16.4883 20.4107 16.4883C20.4481 16.4883 20.4788 16.5358 20.4788 16.5937C20.4788 16.7668 20.9312 17.1754 21.1229 17.1754C21.2176 17.1754 21.2952 17.2063 21.2952 17.2441C21.2952 17.2845 21.5333 17.3128 21.8735 17.3128C22.2137 17.3128 22.4518 17.2845 22.4518 17.2441C22.4518 17.2063 22.5001 17.1754 22.5592 17.1754C22.7241 17.1754 23.2002 16.6385 23.2002 16.4524C23.2002 16.3633 23.2308 16.2713 23.2682 16.2479C23.3056 16.2245 23.3363 16.0063 23.3363 15.7629V15.3204H22.928H22.5198V15.5952C22.5198 15.7464 22.4892 15.87 22.4518 15.87C22.4144 15.87 22.3838 15.9804 22.3838 16.1154C22.3838 16.3752 22.2597 16.557 22.0824 16.557C22.0236 16.557 21.9755 16.588 21.9755 16.6258C21.9755 16.6635 21.8823 16.6945 21.7684 16.6945C21.5116 16.6945 21.2272 16.4253 21.2272 16.1823C21.2272 16.0861 21.1965 16.0074 21.1591 16.0074C21.1162 16.0074 21.0911 15.5393 21.0911 14.7405C21.0911 13.97 21.1178 13.457 21.1591 13.4311C21.1965 13.4078 21.2281 13.3209 21.2293 13.2382C21.2321 13.0446 21.3808 12.8472 21.5238 12.8472C21.5852 12.8472 21.6354 12.8163 21.6354 12.7785C21.6354 12.684 21.7907 12.6924 21.9916 12.7976C22.2771 12.9472 22.3838 13.1007 22.3838 13.3624C22.3838 13.7129 22.5071 13.809 22.9572 13.809H23.3363V13.4998C23.3363 13.3298 23.3056 13.1907 23.2682 13.1907C23.2308 13.1907 23.2002 13.1005 23.2002 12.9902C23.2002 12.7668 22.7473 12.2289 22.5592 12.2289C22.5001 12.2289 22.4518 12.1979 22.4518 12.1602C22.4518 12.1198 22.2137 12.0915 21.8735 12.0915C21.5333 12.0915 21.2952 12.1198 21.2952 12.1602ZM26.1938 14.7021V17.1754H26.636H27.0782V16.1105V15.0456H27.4864C27.7132 15.0456 27.8947 15.0151 27.8947 14.9769C27.8947 14.9391 28.0018 14.9082 28.1328 14.9082H28.3709V16.0418V17.1754H28.8812H29.3914V14.7021V12.2289H28.8812H28.3709V13.1907V14.1525H27.7246H27.0782V13.1907V12.2289H26.636H26.1938V14.7021ZM33.1334 12.435C33.1334 12.5483 33.1028 12.6411 33.0654 12.6411C33.028 12.6411 32.9973 12.7647 32.9973 12.9159C32.9973 13.067 32.9667 13.1907 32.9293 13.1907C32.8919 13.1907 32.8613 13.3143 32.8613 13.4655C32.8613 13.6166 32.8306 13.7403 32.7932 13.7403C32.7558 13.7403 32.7252 13.864 32.7252 14.0151C32.7252 14.1662 32.6946 14.2899 32.6572 14.2899C32.6197 14.2899 32.5891 14.3981 32.5891 14.5304C32.5891 14.6626 32.5585 14.7708 32.5211 14.7708C32.4837 14.7708 32.4531 14.8636 32.4531 14.9769C32.4531 15.0903 32.4224 15.183 32.385 15.183C32.3476 15.183 32.317 15.3067 32.317 15.4578C32.317 15.609 32.29 15.7326 32.2569 15.7326C32.2239 15.7326 32.1754 15.9643 32.1491 16.2474C32.1229 16.5306 32.0733 16.7797 32.0391 16.8011C32.0048 16.8224 31.9768 16.9154 31.9768 17.0077C31.9768 17.1654 31.9993 17.1754 32.3558 17.1754C32.8166 17.1754 32.9293 17.0801 32.9293 16.6902C32.9293 16.4602 32.9675 16.3681 33.1164 16.2388C33.2823 16.0948 33.3711 16.0763 33.8988 16.0762C34.4428 16.0761 34.4941 16.0876 34.4941 16.2095C34.4941 16.2829 34.5247 16.3619 34.5622 16.3853C34.5996 16.4087 34.6302 16.5125 34.6302 16.6161C34.6302 16.7197 34.6685 16.8876 34.7152 16.9894C34.7934 17.1593 34.8327 17.1743 35.2003 17.1748L35.6002 17.1754L35.5526 16.746C35.5264 16.5099 35.4766 16.3063 35.4418 16.2937C35.407 16.2811 35.3786 16.1497 35.3786 16.0017C35.3786 15.8537 35.348 15.7326 35.3106 15.7326C35.2731 15.7326 35.2425 15.609 35.2425 15.4578C35.2425 15.3067 35.2119 15.183 35.1745 15.183C35.1371 15.183 35.1064 15.0748 35.1064 14.9426C35.1064 14.8103 35.0758 14.7021 35.0384 14.7021C35.001 14.7021 34.9704 14.6094 34.9704 14.496C34.9704 14.3826 34.9398 14.2899 34.9023 14.2899C34.8649 14.2899 34.8343 14.1662 34.8343 14.0151C34.8343 13.864 34.8037 13.7403 34.7663 13.7403C34.7288 13.7403 34.6982 13.6166 34.6982 13.4655C34.6982 13.3143 34.6676 13.1907 34.6302 13.1907C34.5928 13.1907 34.5622 13.0979 34.5622 12.9846C34.5622 12.8712 34.5315 12.7785 34.4941 12.7785C34.4567 12.7785 34.4261 12.6548 34.4261 12.5037V12.2289H33.7797H33.1334V12.435ZM38.2361 14.3586C38.2361 15.7326 38.2602 16.4883 38.3041 16.4883C38.3415 16.4883 38.3722 16.6429 38.3722 16.8319V17.1754H38.7123H39.0525V15.4922C39.0525 14.0418 39.0666 13.809 39.1546 13.809C39.2112 13.809 39.2566 13.8701 39.2566 13.9464C39.2566 14.022 39.2872 14.0838 39.3247 14.0838C39.3621 14.0838 39.3927 14.1765 39.3927 14.2899C39.3927 14.4033 39.4233 14.496 39.4607 14.496C39.4982 14.496 39.5288 14.5578 39.5288 14.6334C39.5288 14.709 39.5594 14.7708 39.5968 14.7708C39.6342 14.7708 39.6648 14.8636 39.6648 14.9769C39.6648 15.0903 39.6955 15.183 39.7329 15.183C39.7703 15.183 39.8009 15.2758 39.8009 15.3891C39.8009 15.5025 39.8315 15.5952 39.8689 15.5952C39.9064 15.5952 39.937 15.6725 39.937 15.767C39.937 15.8614 39.9676 15.9387 40.005 15.9387C40.0424 15.9387 40.0731 16.0315 40.0731 16.1448C40.0731 16.2582 40.1037 16.3509 40.1411 16.3509C40.1785 16.3509 40.2091 16.4109 40.2091 16.4843C40.2091 16.5577 40.2397 16.6367 40.2772 16.6601C40.3146 16.6835 40.3452 16.7718 40.3452 16.8565C40.3452 17.1125 40.4754 17.1754 41.0051 17.1754H41.5018V14.7021V12.2289H41.0596C40.7199 12.2289 40.6173 12.2518 40.6173 12.3279C40.6173 12.3823 40.648 12.446 40.6854 12.4693C40.7273 12.4955 40.7534 13.0769 40.7534 13.9848V15.4578H40.5833C40.4397 15.4578 40.4132 15.4257 40.4132 15.2517C40.4132 15.1384 40.3826 15.0456 40.3452 15.0456C40.3078 15.0456 40.2772 14.9683 40.2772 14.8739C40.2772 14.7794 40.2465 14.7021 40.2091 14.7021C40.1717 14.7021 40.1411 14.6094 40.1411 14.496C40.1411 14.3826 40.1105 14.2899 40.0731 14.2899C40.0356 14.2899 40.005 14.1972 40.005 14.0838C40.005 13.9704 39.9744 13.8777 39.937 13.8777C39.8996 13.8777 39.8689 13.8177 39.8689 13.7443C39.8689 13.671 39.8383 13.5919 39.8009 13.5685C39.7635 13.5452 39.7329 13.4506 39.7329 13.3584C39.7329 13.2661 39.7023 13.1907 39.6648 13.1907C39.6274 13.1907 39.5968 13.0979 39.5968 12.9846C39.5968 12.8712 39.5662 12.7785 39.5288 12.7785C39.4913 12.7785 39.4607 12.699 39.4607 12.6018C39.4607 12.3035 39.3186 12.2289 38.7512 12.2289H38.2361V14.3586ZM44.4954 14.7021V17.1754H44.8356H45.1757V15.5306C45.1757 14.4999 45.2013 13.8699 45.2443 13.843C45.3498 13.7772 45.5159 13.9845 45.5159 14.182C45.5159 14.2791 45.5465 14.3586 45.584 14.3586C45.6214 14.3586 45.652 14.4514 45.652 14.5647C45.652 14.6781 45.6826 14.7708 45.72 14.7708C45.7574 14.7708 45.7881 14.8326 45.7881 14.9082C45.7881 14.9838 45.8187 15.0456 45.8561 15.0456C45.8935 15.0456 45.9241 15.1384 45.9241 15.2517C45.9241 15.3651 45.9547 15.4578 45.9922 15.4578C46.0296 15.4578 46.0602 15.5506 46.0602 15.6639C46.0602 15.7773 46.0908 15.87 46.1282 15.87C46.1657 15.87 46.1963 15.9473 46.1963 16.0418C46.1963 16.1363 46.2269 16.2135 46.2643 16.2135C46.3017 16.2135 46.3323 16.3063 46.3323 16.4196C46.3323 16.533 46.363 16.6258 46.4004 16.6258C46.4378 16.6258 46.4684 16.6659 46.4684 16.7151C46.4684 16.7643 46.5067 16.8876 46.5535 16.9894C46.6357 17.1681 46.6571 17.1743 47.1998 17.1748L47.7611 17.1754V15.6639C47.7611 14.7021 47.7363 14.1525 47.6931 14.1525C47.6509 14.1525 47.625 13.7861 47.625 13.1907V12.2289H47.2508H46.8766V13.8433C46.8766 14.9456 46.8535 15.4578 46.8038 15.4578C46.6739 15.4578 46.5365 15.266 46.5365 15.0848C46.5365 14.9877 46.5058 14.9082 46.4684 14.9082C46.431 14.9082 46.4004 14.8309 46.4004 14.7365C46.4004 14.642 46.3698 14.5647 46.3323 14.5647C46.2949 14.5647 46.2643 14.472 46.2643 14.3586C46.2643 14.2452 46.2337 14.1525 46.1963 14.1525C46.1589 14.1525 46.1282 14.0925 46.1282 14.0191C46.1282 13.9458 46.0976 13.8667 46.0602 13.8433C46.0228 13.82 45.9922 13.7255 45.9922 13.6332C45.9922 13.5409 45.9615 13.4655 45.9241 13.4655C45.8867 13.4655 45.8561 13.3727 45.8561 13.2594C45.8561 13.146 45.8255 13.0533 45.7881 13.0533C45.7506 13.0533 45.72 12.9605 45.72 12.8472C45.72 12.7338 45.6932 12.6411 45.6605 12.6411C45.6278 12.6411 45.5826 12.5483 45.5601 12.435L45.5193 12.2289H45.0073H44.4954V14.7021ZM50.6186 14.7021V17.1754H51.9793H53.34V16.7975V16.4196H52.3875H51.435V15.7326V15.0456H52.3195H53.204V14.6698V14.294L52.3365 14.2748L51.469 14.2556V13.6372V13.0189L52.4045 12.9998L53.34 12.9807V12.6048V12.2289H51.9793H50.6186V14.7021ZM56.0615 14.4273C56.0615 15.8472 56.0855 16.6258 56.1295 16.6258C56.1669 16.6258 56.1975 16.7494 56.1975 16.9006V17.1754H57.4902H58.7829V16.7975V16.4196H57.9324H57.082V14.3243V12.2289H56.5717H56.0615V14.4273ZM33.9498 13.5342C33.9498 13.6853 33.9805 13.809 34.0179 13.809C34.0553 13.809 34.0859 13.9327 34.0859 14.0838C34.0859 14.2349 34.1165 14.3586 34.1539 14.3586C34.1914 14.3586 34.222 14.5132 34.222 14.7021C34.222 14.891 34.2526 15.0456 34.29 15.0456C34.3274 15.0456 34.3581 15.1074 34.3581 15.183C34.3581 15.3096 34.3127 15.3204 33.7797 15.3204C33.4396 15.3204 33.2014 15.2921 33.2014 15.2517C33.2014 15.2139 33.2321 15.183 33.2695 15.183C33.3069 15.183 33.3375 15.0284 33.3375 14.8395C33.3375 14.6506 33.3681 14.496 33.4056 14.496C33.443 14.496 33.4736 14.3587 33.4736 14.1909C33.4736 14.0231 33.5042 13.8667 33.5416 13.8433C33.579 13.82 33.6097 13.6791 33.6097 13.5301C33.6097 13.2871 33.6271 13.2594 33.7797 13.2594C33.9328 13.2594 33.9498 13.2869 33.9498 13.5342Z" fill="#DDDEE2"/>
</svg>
