<svg width="104" height="20" viewBox="0 0 104 20" fill="none" xmlns="http://www.w3.org/2000/svg">
<path fill-rule="evenodd" clip-rule="evenodd" d="M29.3873 11.8665L26.5232 6.72941H25.4645V14.6411H26.4677V8.60148L29.0866 13.2482H29.6995L32.3071 8.60148V14.6411H33.3102V6.72941H32.2625L29.3873 11.8665Z" fill="#DDDEE2"/>
<path fill-rule="evenodd" clip-rule="evenodd" d="M39.4161 11.5432L40.8216 7.88816L42.221 11.5432H39.4161ZM41.2449 6.72928H40.398L37.1551 14.641H38.2249L39.1162 12.323H42.5195L43.4068 14.641H44.4767L41.2449 6.72928Z" fill="#DDDEE2"/>
<path fill-rule="evenodd" clip-rule="evenodd" d="M53.2805 6.72905H46.8168V7.62066H49.5472V14.6408H50.5501V7.62066H53.2805V6.72905Z" fill="#DDDEE2"/>
<path fill-rule="evenodd" clip-rule="evenodd" d="M61.8727 13.1979C61.6199 13.4021 61.3489 13.5527 61.0592 13.6492C60.7694 13.7459 60.4869 13.794 60.212 13.794C59.8184 13.794 59.4544 13.7087 59.1201 13.5377C58.7857 13.367 58.496 13.1366 58.2508 12.8468C58.0056 12.5571 57.8142 12.2228 57.6769 11.8439C57.5393 11.4652 57.4707 11.0715 57.4707 10.6628C57.4707 10.2915 57.5283 9.92174 57.6435 9.55401C57.7586 9.18628 57.9312 8.85399 58.1617 8.55669C58.3918 8.25969 58.6761 8.02196 59.0142 7.84352C59.3522 7.66522 59.7404 7.57608 60.1788 7.57608C60.4462 7.57608 60.7193 7.61694 60.9979 7.69881C61.2765 7.78053 61.5363 7.91966 61.778 8.11653C62.0193 8.31339 62.2182 8.57897 62.3742 8.91327L63.1654 8.40068C62.9202 7.89552 62.5451 7.48136 62.0398 7.15836C61.5345 6.83521 60.929 6.67347 60.2233 6.67347C59.6288 6.67347 59.0978 6.78676 58.6297 7.01334C58.1617 7.24008 57.766 7.54466 57.4429 7.92709C57.1197 8.30983 56.8745 8.73312 56.7073 9.19742C56.5402 9.66173 56.4566 10.1355 56.4566 10.6182C56.4566 11.1161 56.5475 11.6082 56.7295 12.0947C56.9115 12.5814 57.168 13.0196 57.4986 13.4096C57.829 13.7997 58.2209 14.1116 58.6743 14.3456C59.1275 14.5796 59.6251 14.6966 60.1676 14.6966C60.5761 14.6966 60.9904 14.6262 61.4102 14.4849C61.83 14.3438 62.2107 14.1359 62.5525 13.8609C62.8942 13.5862 63.1467 13.252 63.3103 12.8581L62.4745 12.4011C62.3257 12.7281 62.1251 12.9937 61.8727 13.1979Z" fill="#DDDEE2"/>
<path fill-rule="evenodd" clip-rule="evenodd" d="M72.7161 10.1503H68.3587V6.72928H67.3558V14.641H68.3587V11.0417H72.7161V14.641H73.719V6.72928H72.7161V10.1503Z" fill="#DDDEE2"/>
<path fill-rule="evenodd" clip-rule="evenodd" d="M82.6233 10.6755C82.222 10.5051 81.7465 10.3607 81.1967 10.2421C80.7212 10.131 80.3293 10.0239 80.0211 9.91988C79.7126 9.81634 79.4842 9.68308 79.3358 9.51996C79.187 9.35699 79.1127 9.1349 79.1127 8.85353C79.1127 8.45392 79.2577 8.13897 79.5475 7.90945C79.8372 7.67993 80.2866 7.56478 80.896 7.56478C81.1335 7.56478 81.3621 7.58923 81.5813 7.63737C81.8003 7.68581 82.0028 7.7488 82.1885 7.82696C82.3743 7.90496 82.5414 7.99225 82.6902 8.08867C82.8388 8.1854 82.9575 8.28569 83.0466 8.38938L83.5148 7.57608C83.2918 7.39036 83.0466 7.23064 82.7793 7.09692C82.5117 6.96335 82.2238 6.85935 81.9156 6.78491C81.6073 6.71077 81.2747 6.67347 80.9181 6.67347C80.3757 6.67347 79.8891 6.76247 79.4583 6.94029C79.0274 7.11812 78.6894 7.38107 78.4442 7.7293C78.199 8.07753 78.0765 8.50345 78.0765 9.00706C78.0765 9.42199 78.1673 9.75907 78.3495 10.0185C78.5314 10.2779 78.8044 10.4869 79.1686 10.6464C79.5325 10.8056 79.9821 10.9519 80.517 11.0851C81.0074 11.2037 81.4233 11.3224 81.765 11.4409C82.1068 11.5595 82.365 11.7076 82.5397 11.8853C82.7142 12.0631 82.8015 12.3 82.8015 12.5964C82.8015 12.9881 82.6456 13.2858 82.3335 13.4893C82.0214 13.6925 81.5829 13.7939 81.0185 13.7939C80.7212 13.7939 80.4314 13.7624 80.1493 13.6993C79.8667 13.6363 79.6049 13.5527 79.3635 13.4486C79.122 13.3447 78.9066 13.2314 78.7173 13.1087C78.5278 12.9863 78.3735 12.8619 78.2546 12.7354L77.7756 13.5823C78.0726 13.8274 78.3921 14.0319 78.7338 14.1952C79.0756 14.3586 79.4378 14.4832 79.8205 14.5685C80.203 14.6538 80.5951 14.6965 80.9961 14.6965C81.4047 14.6965 81.7836 14.6539 82.133 14.5689C82.482 14.4838 82.7866 14.3504 83.0466 14.169C83.3067 13.9876 83.5093 13.758 83.654 13.4803C83.799 13.2027 83.8713 12.875 83.8713 12.4972C83.8713 12.0232 83.7636 11.6438 83.5483 11.3584C83.3327 11.0734 83.0245 10.8459 82.6233 10.6755Z" fill="#DDDEE2"/>
<path fill-rule="evenodd" clip-rule="evenodd" d="M88.9752 11.0192H92.6863V10.1836H88.9752V7.62066H93.2434V6.72905H87.9723V14.6408H93.3439V13.7495H88.9752V11.0192Z" fill="#DDDEE2"/>
<path fill-rule="evenodd" clip-rule="evenodd" d="M96.7427 6.72905V7.62066H99.4731V14.6408H100.476V7.62066H103.206V6.72905H96.7427Z" fill="#DDDEE2"/>
<path fill-rule="evenodd" clip-rule="evenodd" d="M19.4767 10.6059C19.8027 5.77634 16.8313 1.93084 13.055 0.603704C10.3725 -0.33914 7.73518 -0.190563 5.21829 1.14075C3.78131 1.90066 3.54016 3.46412 4.74017 4.53031C5.54318 5.24379 6.51938 5.79074 7.4815 6.29017C8.98875 7.07283 10.5678 7.7162 12.0807 8.48911C12.9655 8.94118 13.823 9.5033 14.2183 10.4873C15.0021 12.4382 14.1112 14.4156 12.0612 15.3489C8.88459 16.7952 5.01507 15.8661 2.77508 13.1309C1.56423 11.6526 0.968785 9.91715 0.542673 8.05886C0.529362 8.13392 0.505681 8.20898 0.504288 8.28435C0.441756 11.6507 1.69208 14.378 4.49686 16.3075C7.81412 18.5899 12.512 18.2416 15.2142 15.5499C16.9522 13.8184 17.4002 11.6275 16.4359 9.54338C15.7906 8.14893 14.6739 7.20392 13.3578 6.51041C12.0635 5.82835 10.7025 5.27397 9.39258 4.61992C8.84047 4.34443 8.30339 4.00534 7.83393 3.60743C7.29452 3.15025 7.3439 2.55517 7.972 2.2187C8.49052 1.94105 9.09184 1.72174 9.67304 1.6733C13.0347 1.39364 16.1967 3.45824 17.5297 6.53795C19.8281 11.8476 16.5656 17.3062 11.0811 18.3582C6.29371 19.2764 1.99189 16.6344 0.531994 11.993C0.261591 11.1341 0.185439 10.2143 0.0198238 9.32269C-0.00710811 9.91189 -0.0167045 10.5107 0.0577451 11.099C0.790478 16.8854 6.62107 20.7529 12.278 19.2162C16.2611 18.1342 19.2147 14.4882 19.4767 10.6059Z" fill="#DDDEE2"/>
</svg>
