<svg width="90" height="11" viewBox="0 0 90 11" fill="none" xmlns="http://www.w3.org/2000/svg">
<path d="M24.5927 10.2415V3.13095C24.5927 2.34893 25.2261 1.71495 26.0074 1.71495H30.6585V3.10681H26.2164V5.49309H29.3884V6.81576H26.2164V10.2431H24.5911L24.5927 10.2415Z" fill="#DDDEE2"/>
<path d="M30.2856 10.2415L33.2197 1.7133H35.4753L38.4206 10.2415H36.8081L36.165 8.38137H32.4946L31.8515 10.2415H30.2856ZM35.7791 7.14076L34.8676 4.45036L34.3644 2.9877H34.2936L33.7904 4.46163L32.8789 7.14076H35.7791Z" fill="#DDDEE2"/>
<path d="M39.0732 10.2415L42.0073 1.7133H44.2629L47.2082 10.2415H45.5957L44.9526 8.38137H41.2822L40.6391 10.2415H39.0732ZM44.5667 7.14076L43.6552 4.45036L43.152 2.9877H43.0812L42.578 4.46163L41.6665 7.14076H44.5667Z" fill="#DDDEE2"/>
<path d="M49.4363 10.2415L46.4443 1.7133H48.2449L50.3253 8.19472L50.4893 8.73215H50.5713L50.724 8.19472L52.8285 1.7133H54.6162L51.6243 10.2415H49.4363Z" fill="#DDDEE2"/>
<path d="M55.9702 10.2415V1.7133H57.5956V10.2415H55.9702Z" fill="#DDDEE2"/>
<path d="M58.7483 10.2768L61.6823 1.74864H63.9379L66.8832 10.2768H65.2707L64.6276 8.41671H60.9573L60.3142 10.2768H58.7483ZM64.2418 7.1761L63.3302 4.4857L62.827 3.02304H62.7563L62.2531 4.49697L61.3415 7.1761H64.2418Z" fill="#DDDEE2"/>
<path d="M72.8702 3.10517H70.2512V10.2415H68.6387V3.10517H66.0198V1.7133H72.8686V3.10517H72.8702Z" fill="#DDDEE2"/>
<path d="M77.1208 10.3589C75.788 10.3589 74.7687 9.97757 74.0646 9.21326C73.3588 8.44894 73.0067 7.3805 73.0067 6.00795V5.97255C73.0067 5.02158 73.1755 4.22186 73.5147 3.575C73.854 2.92815 74.3315 2.43899 74.9472 2.10751C75.5629 1.77604 76.288 1.61031 77.1208 1.61031C77.9536 1.61031 78.6819 1.77604 79.3008 2.10751C79.9198 2.43899 80.3973 2.92815 80.7333 3.575C81.0677 4.22186 81.2365 5.02158 81.2365 5.97255V6.00795C81.2365 7.3805 80.8844 8.44894 80.1786 9.21326C79.4729 9.97757 78.4552 10.3589 77.1224 10.3589H77.1208ZM77.1208 8.94293C77.8845 8.94293 78.4761 8.73697 78.8973 8.32343C79.3185 7.90989 79.5291 7.3451 79.5291 6.62745V5.34018C79.5291 4.66114 79.3282 4.106 78.9278 3.67316C78.5259 3.24031 77.9246 3.02309 77.1224 3.02309C76.3202 3.02309 75.7173 3.24031 75.317 3.67316C74.915 4.106 74.7157 4.66114 74.7157 5.34018V6.62745C74.7157 7.3451 74.9263 7.90989 75.3475 8.32343C75.7687 8.73697 76.3604 8.94293 77.124 8.94293H77.1208Z" fill="#DDDEE2"/>
<path d="M82.4037 10.2415V1.7133H86.32C87.3088 1.7133 88.0531 1.95306 88.5531 2.43257C89.0515 2.91207 89.3007 3.56858 89.3007 4.4037C89.3007 5.0586 89.1238 5.60408 88.7685 6.04175C88.4132 6.47782 87.9133 6.75941 87.267 6.88331L89.4052 10.2415H87.5001L85.5596 7.11823H84.0291V10.2415H82.4037ZM86.0387 3.10517H84.0291V5.88889H86.0387C86.529 5.88889 86.9117 5.78752 87.185 5.58477C87.4583 5.38203 87.5933 5.094 87.5933 4.71908V4.27497C87.5933 3.90006 87.4535 3.61203 87.1721 3.40928C86.8924 3.20654 86.513 3.10517 86.0387 3.10517Z" fill="#DDDEE2"/>
<path d="M13.1782 0.0268502C10.8551 0.271432 10.4692 2.89264 10.4692 2.89264L21.4305 1.73892V0.878059C18.8791 1.14517 15.302 -0.198422 13.1766 0.0252411L13.1782 0.0268502Z" fill="#DDDEE2"/>
<path d="M7.76195 5.76C10.0851 5.51542 10.4709 2.89421 10.4709 2.89421L0 3.99483V4.875C2.50318 4.80259 5.77001 5.96918 7.76195 5.76Z" fill="#DDDEE2"/>
<path d="M13.6704 4.7078C11.3473 4.95238 10.9614 7.57359 10.9614 7.57359L21.4307 6.47297V5.5928C18.9275 5.66521 15.6607 4.49862 13.6688 4.7078H13.6704Z" fill="#DDDEE2"/>
<path d="M8.2539 10.4409C10.577 10.1963 10.9629 7.57507 10.9629 7.57507L0 8.72718V9.58805C2.55141 9.32094 6.12853 10.6645 8.2539 10.4409Z" fill="#DDDEE2"/>
</svg>
