<svg width="36" height="26" viewBox="0 0 36 26" fill="none" xmlns="http://www.w3.org/2000/svg">
<path fill-rule="evenodd" clip-rule="evenodd" d="M25.5724 0.0296257C24.4649 0.214097 23.6009 0.815876 23.1355 1.72711C22.8669 2.2529 22.7611 2.71084 22.7611 3.34632C22.7611 3.78858 22.8011 4.07239 22.9154 4.4408C23.361 5.87653 24.7223 6.77352 26.3355 6.69436C27.2039 6.65172 27.9387 6.35822 28.5057 5.82748C29.1897 5.18729 29.5365 4.35249 29.5365 3.34632C29.5365 2.76691 29.4366 2.30436 29.2073 1.82177C29.0366 1.46254 28.9128 1.28233 28.641 0.997259C28.1869 0.521058 27.6163 0.213497 26.9042 0.0610805C26.5997 -0.00407804 25.8772 -0.0211398 25.5724 0.0296257ZM5.37233 0.595153C5.34363 0.680402 0.598535 19.361 0.598535 19.3887C0.598535 19.4088 1.45058 19.4163 3.14665 19.4112L5.69479 19.4036L6.79023 14.795C7.39275 12.2603 7.89354 10.1958 7.90312 10.2072C7.91269 10.2186 8.56471 11.7156 9.35205 13.5339L10.7836 16.8398H12.5071H14.2307L15.6669 13.527C16.4568 11.705 17.1106 10.214 17.1196 10.2136C17.1287 10.2133 17.6274 12.2809 18.2279 14.8083L19.3197 19.4036L21.87 19.4112C23.3113 19.4156 24.4202 19.4075 24.4202 19.3927C24.4202 19.3662 19.6803 0.723191 19.6463 0.615603C19.6284 0.55917 19.5802 0.557671 17.7922 0.557671H15.9566L15.8664 0.775066C15.8168 0.894618 15.0472 2.76685 14.1562 4.93556C13.2651 7.10426 12.5267 8.88762 12.5152 8.8986C12.5038 8.90957 11.7215 7.03733 10.7769 4.7381L9.05937 0.557671H7.22216C5.77907 0.557671 5.38224 0.565707 5.37233 0.595153ZM23.9028 8.28644C23.8934 8.30371 26.0035 16.611 26.6218 18.9913L26.7328 19.4186L28.038 19.4178C29.5286 19.417 30.2495 19.3862 30.7728 19.3008C32.706 18.9854 34.1439 17.9911 34.9218 16.4318C35.6745 14.9229 35.6745 12.7596 34.9218 11.2507C34.143 9.68967 32.7081 8.69751 30.7728 8.38173C30.5715 8.34887 30.1675 8.30926 29.875 8.2937C29.2462 8.2602 23.9205 8.25376 23.9028 8.28644ZM10.4444 21.6862C10.1293 21.7473 9.83657 21.9036 9.64593 22.1124C9.54295 22.2252 9.40493 22.5193 9.36537 22.7102C9.34448 22.811 9.33628 23.0946 9.34367 23.4618C9.35319 23.9339 9.36636 24.0812 9.40978 24.2013C9.58781 24.6936 9.98886 24.9695 10.5945 25.0163C11.3741 25.0765 11.9234 24.6889 12.0148 24.0138L12.0362 23.8564H11.5878H11.1394L11.1187 23.9667C11.1065 24.0322 11.0577 24.1175 10.9987 24.1766C10.9119 24.2636 10.8799 24.2762 10.7452 24.2762C10.5326 24.2762 10.4229 24.2119 10.3452 24.0417C10.2871 23.9142 10.2811 23.8493 10.2805 23.3317C10.2799 22.8023 10.2846 22.7524 10.3465 22.6264C10.4265 22.4637 10.5442 22.3871 10.7139 22.3871C10.8796 22.3871 11.0255 22.5246 11.0568 22.7102L11.0782 22.8369H11.5433H12.0083L11.9877 22.6811C11.9587 22.4619 11.8657 22.2127 11.7665 22.0883C11.6533 21.9462 11.4303 21.7985 11.242 21.7407C11.0874 21.6934 10.5847 21.659 10.4444 21.6862ZM17.1986 21.7125C16.6498 21.8636 16.2906 22.2658 16.2211 22.8069C16.1826 23.1067 16.183 23.5878 16.222 23.8768C16.2988 24.4452 16.6526 24.8414 17.1964 24.9678C17.2768 24.9865 17.4638 25.0022 17.6119 25.0027C18.2456 25.0048 18.688 24.7539 18.9177 24.2622C19.0413 23.9976 19.09 23.4795 19.0417 22.9435C19.0135 22.63 18.9933 22.5392 18.9153 22.3754C18.7529 22.0345 18.4613 21.8054 18.0732 21.7137C17.8409 21.6588 17.3957 21.6582 17.1986 21.7125ZM33.9293 21.6982C33.3979 21.8322 33.1004 22.2812 33.1846 22.8225C33.2565 23.2854 33.4956 23.501 34.1722 23.7129C34.5059 23.8174 34.6253 23.9128 34.6253 24.075C34.6253 24.2881 34.4205 24.412 34.1928 24.3367C34.0768 24.2983 33.9968 24.1824 33.9968 24.0528V23.9764H33.5441H33.0913L33.1113 24.1038C33.1684 24.4673 33.2991 24.6903 33.5393 24.8339C33.9481 25.0784 34.7231 25.0633 35.0874 24.8037C35.3704 24.6021 35.4759 24.3784 35.4772 23.9764C35.4784 23.6333 35.4374 23.5023 35.2733 23.3239C35.1237 23.1612 34.9155 23.0534 34.5092 22.9279C34.1336 22.8119 34.0566 22.7485 34.0566 22.5551C34.0566 22.3956 34.1285 22.3272 34.2961 22.3272C34.4388 22.3272 34.5264 22.3948 34.5693 22.5381L34.6048 22.657H35.0229H35.441L35.4205 22.4996C35.3751 22.1508 35.1653 21.8686 34.865 21.7527C34.6783 21.6806 34.1267 21.6485 33.9293 21.6982ZM0 23.3319V24.9676L0.39653 24.9593L0.793059 24.9509L0.808022 24.0145L0.822986 23.078L1.01595 23.723L1.20889 24.368L1.5385 24.3596L1.86809 24.3512L2.06378 23.7093L2.25947 23.0674L2.27443 24.0091L2.2894 24.9509L2.73082 24.9592L3.17224 24.9675V23.3325V21.6975H2.60587H2.03951L1.99345 21.8549C1.96813 21.9415 1.87024 22.292 1.77597 22.6337C1.68167 22.9755 1.59884 23.2495 1.59192 23.2425C1.58498 23.2356 1.48299 22.8885 1.36526 22.4712L1.15119 21.7125L0.575611 21.7043L0 21.6962V23.3319ZM3.89539 23.3092C3.67755 24.1957 3.49975 24.931 3.50035 24.9434C3.50095 24.9558 3.68731 24.9659 3.91451 24.9659H4.32759L4.38349 24.681L4.43939 24.3962H4.83712H5.23488L5.26367 24.5086C5.2795 24.5705 5.3079 24.6986 5.32678 24.7935L5.36114 24.9659H5.83401H6.30691L6.20759 24.5536C6.15297 24.3268 5.97547 23.6015 5.81315 22.9419L5.51804 21.7424L5.2654 21.7229C5.12642 21.7122 4.85047 21.7021 4.65211 21.7004L4.29153 21.6975L3.89539 23.3092ZM6.61381 23.3317V24.9659H7.06271H7.51162V24.3662V23.7665H7.59484C7.67511 23.7665 7.68648 23.7877 7.91655 24.3658L8.15504 24.9651L8.62564 24.9655L9.09624 24.9659L9.06673 24.888C9.05048 24.8453 8.92287 24.5426 8.78314 24.2154C8.64345 23.8883 8.52912 23.6072 8.52912 23.5906C8.52912 23.5741 8.5548 23.5524 8.58622 23.5424C8.61762 23.5325 8.69773 23.4651 8.76426 23.3928C8.93158 23.2109 8.99143 22.9969 8.96507 22.6749C8.92978 22.244 8.81373 22.0192 8.54529 21.8615C8.32356 21.7313 8.07603 21.6985 7.30961 21.698L6.61381 21.6975V23.3317ZM12.3897 23.3317V24.9659H12.838H13.2863L13.2944 24.3137L13.3024 23.6615L13.669 23.6531L14.0356 23.6447V24.3061V24.9674L14.492 24.9592L14.9484 24.9509V23.3317V21.7125L14.492 21.7042L14.0356 21.6959V22.3114V22.9269H13.6616H13.2875V22.3122V21.6975H12.8386H12.3897V23.3317ZM19.4823 23.3317V24.9659H19.9312H20.3801V24.3812V23.7965H20.7991H21.2181V23.4516V23.1068H20.7991H20.3801V22.762V22.4171H20.8889H21.3976V22.0573V21.6975H20.44H19.4823V23.3317ZM22.6246 23.3284V24.9659L23.3204 24.9654C24.083 24.9648 24.3042 24.9359 24.5674 24.8022C24.8682 24.6495 25.0651 24.4001 25.1566 24.0558C25.2132 23.8429 25.2132 22.8205 25.1566 22.6075C25.0692 22.2787 24.8683 22.0147 24.6021 21.8786C24.3384 21.7438 24.1722 21.7202 23.3803 21.7052L22.6246 21.6908V23.3284ZM25.6472 23.3317V24.9659H26.0961H26.545V23.3317V21.6975H26.0961H25.6472V23.3317ZM27.1136 23.3319V24.9676L27.5102 24.9593L27.9067 24.9509L27.9217 24.0145L27.9366 23.078L28.1296 23.723L28.3225 24.368L28.6521 24.3596L28.9817 24.3512L29.1774 23.7094L29.3731 23.0675L29.381 24.0167L29.3889 24.9659H29.8374H30.2859V23.3317V21.6975H29.7187H29.1515L29.1241 21.7949C29.1091 21.8485 29.0116 22.199 28.9074 22.5737C28.8033 22.9485 28.7124 23.2494 28.7055 23.2425C28.6986 23.2356 28.5966 22.8885 28.4789 22.4712L28.2648 21.7125L27.6893 21.7043L27.1136 21.6962V23.3319ZM30.8246 23.3321V24.9667L31.8346 24.9588L32.8446 24.9509V24.6061V24.2612L32.2835 24.2531L31.7224 24.2449V23.9307V23.6165H32.1413H32.5603V23.2867V22.9569H32.1413H31.7224V22.687V22.4171H32.2461H32.7698V22.0573V21.6975H31.7972H30.8246V23.3321ZM17.5154 22.3875C17.3724 22.4197 17.2835 22.4888 17.2198 22.6173C17.1698 22.7181 17.163 22.8026 17.163 23.3176C17.163 23.9792 17.1924 24.1047 17.3733 24.2168C17.5007 24.2957 17.7569 24.2971 17.8836 24.2197C18.066 24.1083 18.0907 24.0022 18.0907 23.3317C18.0907 22.7808 18.0856 22.7222 18.0279 22.612C17.932 22.4286 17.7283 22.3394 17.5154 22.3875ZM7.51162 22.7769V23.1668H7.67771C7.87256 23.1668 7.99469 23.1121 8.04446 23.0027C8.08788 22.9072 8.09121 22.6599 8.05048 22.5526C8.01268 22.4529 7.85835 22.3871 7.66221 22.3871H7.51162V22.7769ZM23.5224 23.3285V24.2462L23.7095 24.2462C23.9587 24.2461 24.0863 24.1805 24.1733 24.0075C24.2356 23.8839 24.2407 23.8337 24.2405 23.3478C24.2403 22.7559 24.2203 22.6461 24.0894 22.5205C24.0064 22.4408 23.9749 22.4314 23.76 22.4216L23.5224 22.4108V23.3285ZM4.71571 23.0542C4.65397 23.3552 4.59642 23.6319 4.58786 23.669C4.57266 23.735 4.57811 23.7365 4.82994 23.7365C5.02419 23.7365 5.08755 23.7267 5.08755 23.6966C5.08755 23.6435 4.85331 22.5322 4.8391 22.518C4.83299 22.5119 4.77745 22.7532 4.71571 23.0542Z" fill="#DDDEE2"/>
</svg>
