<svg width="72" height="19" viewBox="0 0 72 19" fill="none" xmlns="http://www.w3.org/2000/svg">
<path fill-rule="evenodd" clip-rule="evenodd" d="M0.0131805 0.784401L0.0263609 1.5688H1.30846H2.59061L2.59056 5.78043V9.99206H3.45328H4.316L4.31595 5.78043V1.5688L5.61003 1.58237L6.90416 1.59598V0.797965V0H3.45208H0L0.0131805 0.784401ZM8.00653 4.99603V9.99206H8.77114H9.53575L9.54998 7.78367L9.56422 5.57528L9.67757 5.34546C9.94358 4.80623 10.4945 4.50348 11.1267 4.549C11.7346 4.59283 12.0642 4.92416 12.1732 5.60087C12.2026 5.78333 12.2237 6.76106 12.2239 7.95262L12.2243 9.99206H12.9939H13.7636L13.7467 7.51818C13.7282 4.79252 13.734 4.84987 13.4108 4.2349C13.1337 3.70778 12.6128 3.37683 11.9005 3.27537C11.1284 3.16541 10.4463 3.3847 9.96735 3.89676C9.82399 4.05002 9.67038 4.22973 9.626 4.2961C9.54974 4.41012 9.54514 4.29461 9.54275 2.20839L9.54025 0H8.77339H8.00653V4.99603ZM28.3763 4.99603V9.99206H29.1186H29.8609L29.8735 8.35211L29.8861 6.71211L31.2041 8.34921L32.5222 9.98637L33.4476 9.98922C34.1757 9.99144 34.3655 9.97917 34.3373 9.93172C34.3176 9.89856 33.6424 9.04904 32.8367 8.044C32.031 7.03895 31.3719 6.19122 31.3719 6.16018C31.3719 6.12031 33.0352 4.49595 33.1569 4.41697C33.1836 4.3996 32.2943 3.4755 32.2509 3.4755C32.2248 3.4755 31.6821 3.97829 31.0448 4.59278L29.8861 5.71005L29.8737 2.85503L29.8614 0H29.1188H28.3763V4.99603ZM37.7225 0.796469V1.59294H39.0165H40.3106V5.7925V9.99206H41.1491H41.9876L41.9999 5.78951L42.0121 1.58695L43.3182 1.59134L44.6242 1.59579V0.797869V0H41.1733H37.7225V0.796469ZM60.0094 4.99603V9.99206H60.7757H61.5419L61.5545 8.3525L61.5671 6.71288L62.8852 8.35028L64.2032 9.98762L65.1282 9.98984C65.8933 9.99168 66.0466 9.98077 66.0149 9.9267C65.9938 9.89079 65.3187 9.04127 64.5147 8.03888C63.7107 7.03649 63.0529 6.18991 63.0529 6.15767C63.0529 6.12538 63.4549 5.71725 63.9462 5.25071L64.8394 4.40249L64.3859 3.91515L63.9323 3.42786L62.7497 4.56739L61.5671 5.70696L61.5547 2.85348L61.5424 0H60.7759H60.0094V4.99603ZM22.9848 3.33914C22.4605 3.43983 22.0124 3.74857 21.631 4.27197L21.5255 4.41678L21.524 3.9208L21.5225 3.42477L20.7676 3.43809L20.0127 3.45136L20.0004 6.72171L19.9881 9.99206H20.7526H21.5171L21.5318 7.80781C21.5464 5.62423 21.5465 5.62346 21.6608 5.36873C21.816 5.02282 22.1723 4.7052 22.5189 4.60373C23.0854 4.43788 23.7291 4.60866 23.9609 4.98633C24.188 5.35633 24.2065 5.57287 24.2065 7.85415V9.99206H25.0002H25.7939L25.7756 7.59059C25.7558 4.98039 25.7519 4.93984 25.4679 4.37517C25.3147 4.07073 24.9187 3.67129 24.6324 3.53227C24.1824 3.31389 23.5204 3.23627 22.9848 3.33914ZM46.6329 3.35424C46.4327 3.39252 46.1092 3.48134 45.9139 3.55177C45.5379 3.68726 44.8753 3.99711 44.8405 4.05369C44.8236 4.0814 45.3437 5.03682 45.4147 5.10831C45.4266 5.12028 45.5825 5.05304 45.7612 4.95886C46.3317 4.65823 46.7254 4.56159 47.3801 4.56159C47.9154 4.56159 47.9746 4.57115 48.2333 4.69907C48.4248 4.79378 48.5517 4.89785 48.6407 5.03325C48.7607 5.21557 48.7712 5.27311 48.7859 5.82368L48.8018 6.41751L48.4984 6.28004C48.0023 6.05529 47.6337 5.98558 46.9414 5.98558C45.6983 5.98558 44.9504 6.34723 44.5657 7.13438C44.4307 7.41039 44.4089 7.50974 44.3924 7.92202C44.3773 8.30239 44.3931 8.45749 44.4739 8.7223C44.7282 9.55555 45.4671 10.0676 46.4935 10.1219C47.3196 10.1655 48.0611 9.91594 48.5411 9.43251L48.794 9.17773V9.5849V9.99206H49.5609H50.3278L50.3274 7.663C50.3271 5.24038 50.3043 4.88457 50.1253 4.50106C49.9035 4.02584 49.3126 3.59328 48.6263 3.40382C48.2209 3.29188 47.1047 3.26412 46.6329 3.35424ZM55.2765 3.35241C55.1117 3.39021 54.8689 3.48038 54.7368 3.55283C54.5084 3.678 54.1357 4.03486 53.9605 4.2961C53.8819 4.41321 53.8794 4.4022 53.877 3.92201L53.8745 3.42723H53.1076H52.3408V6.70965V9.99206H53.1076H53.8745V7.92655C53.8745 5.68235 53.8918 5.50017 54.1413 5.12043C54.4601 4.63545 55.204 4.40742 55.8002 4.61204C56.183 4.74338 56.4169 5.05333 56.5112 5.55419C56.5378 5.69557 56.5585 6.72205 56.5585 7.89885V9.99206H57.3494H58.1402L58.1387 7.85608C58.1379 6.68126 58.1163 5.55718 58.0906 5.35806C57.9603 4.34539 57.4881 3.68644 56.7075 3.42795C56.3015 3.29357 55.6764 3.26055 55.2765 3.35241ZM16.1544 6.70965V9.99206H16.8973H17.6402V6.70965V3.42723H16.8973H16.1544V6.70965ZM46.6056 7.06854C46.0713 7.23681 45.8325 7.66541 45.9483 8.24838C45.9647 8.33135 46.0636 8.49687 46.1678 8.6162C46.4142 8.89805 46.73 8.99933 47.2651 8.96814C48.1373 8.91731 48.794 8.27541 48.794 7.47387C48.794 7.3112 48.7757 7.28248 48.6336 7.22267C48.1319 7.01158 47.048 6.92918 46.6056 7.06854ZM16.5139 11.5557C16.3142 11.6438 16.0712 11.9069 16.0062 12.1055C15.872 12.5152 16.0743 13.0373 16.4401 13.2252C16.6631 13.3398 17.0435 13.354 17.2703 13.2563C17.7863 13.0339 17.962 12.3026 17.6108 11.839C17.3734 11.5255 16.8744 11.3966 16.5139 11.5557ZM20.0003 14.0308L20.0127 16.581L20.4321 16.595L20.8515 16.6089V15.6416V14.6743L21.1271 14.6756L21.4027 14.6769L22.0378 15.6411L22.673 16.6052H23.1761C23.4529 16.6052 23.6793 16.5934 23.6793 16.5791C23.6793 16.5648 23.3642 16.1074 22.9792 15.5626C22.5941 15.0178 22.2868 14.5675 22.2962 14.5619C22.3056 14.5563 22.4134 14.5048 22.5357 14.4473C22.8586 14.2956 23.082 14.0777 23.234 13.766C23.3504 13.5273 23.3677 13.4353 23.3675 13.0573C23.3673 12.7169 23.3454 12.5758 23.2663 12.4056C23.123 12.0972 22.849 11.8368 22.4843 11.6628L22.1695 11.5126L21.0787 11.4966L19.9879 11.4805L20.0003 14.0308ZM31.6834 14.0468V16.6052H32.0624H32.4415L32.4579 15.4587C32.4735 14.3664 32.4794 14.304 32.5828 14.1364C32.7641 13.8428 33.2072 13.715 33.53 13.8631C33.7909 13.9828 33.8149 14.1061 33.8313 15.4105L33.8463 16.6052H34.2267H34.6071L34.6068 15.3381C34.6066 14.6382 34.585 13.9928 34.5584 13.8963C34.4405 13.4689 34.0985 13.1928 33.6261 13.1437C33.2479 13.1044 32.9577 13.2007 32.6973 13.452C32.4753 13.6662 32.4462 13.6871 32.4559 13.6244C32.4591 13.6045 32.4591 13.1158 32.4559 12.5384L32.4503 11.4885H32.0668H31.6834V14.0468ZM35.749 11.5711C35.4736 11.7432 35.4443 12.0517 35.6807 12.2898C35.8956 12.5062 36.12 12.5144 36.3426 12.314C36.7782 11.9221 36.2484 11.2591 35.749 11.5711ZM41.2692 14.0488V16.6092L41.6406 16.5951L42.0121 16.581L42.0361 15.7571L42.06 14.9332L42.731 15.7678L43.402 16.6025L43.8693 16.6039C44.1263 16.6046 44.3367 16.5969 44.3367 16.5869C44.3367 16.5768 43.9916 16.1377 43.5698 15.6111C43.148 15.0845 42.8029 14.6385 42.8029 14.6199C42.8029 14.6013 43.0124 14.3881 43.2683 14.1462L43.7338 13.7062L43.4933 13.4641L43.253 13.2221L42.6445 13.8078L42.0361 14.3935V12.941V11.4885H41.6526H41.2692V14.0488ZM47.6438 14.0428V16.6052H48.0751H48.5065V15.6471V14.6891L49.0696 14.6596C49.3794 14.6434 49.7406 14.5974 49.8724 14.5574C50.6287 14.3278 51.0489 13.7098 50.9834 12.9233C50.9342 12.3315 50.6494 11.9291 50.0914 11.6628L49.7766 11.5126L48.7102 11.4965L47.6438 11.4804V14.0428ZM29.4627 12.0999C29.4451 12.1176 29.4308 12.3782 29.4308 12.6792V13.2262H29.165H28.8993L28.9134 13.5762L28.9275 13.9261L29.1802 13.931L29.433 13.9357L29.4438 15.2584L29.4547 16.581H29.8382H30.2216L30.2342 15.2536L30.2469 13.9261L30.5098 13.9337L30.7728 13.9413V13.5838V13.2262H30.5092H30.2455V12.647V12.0677H29.8701C29.6636 12.0677 29.4803 12.0822 29.4627 12.0999ZM66.5757 12.647V13.2262H66.3121H66.0485V13.5838V13.9413L66.3114 13.9337L66.5743 13.9261L66.587 15.2536L66.5996 16.581H66.9831H67.3665L67.3792 15.2536L67.3919 13.9261L67.6548 13.9337L67.9177 13.9413V13.5838V13.2262H67.6541H67.3905V12.647V12.0677H66.9831H66.5757V12.647ZM20.8874 12.2395C20.8676 12.2601 20.8515 12.6558 20.8515 13.1189V13.9609L21.3667 13.9425C21.8052 13.9269 21.9137 13.9063 22.0952 13.8045C22.3773 13.6461 22.5034 13.4228 22.5034 13.0816C22.5034 12.7479 22.3725 12.5187 22.0907 12.3592C21.9244 12.2651 21.7995 12.2403 21.4054 12.2231C21.1403 12.2116 20.9072 12.2189 20.8874 12.2395ZM48.5065 13.0876V13.9144L49.0242 13.8929C49.4578 13.8749 49.5768 13.8523 49.7552 13.7537C50.0456 13.5933 50.1462 13.3873 50.1245 12.9977C50.1103 12.7435 50.0857 12.6734 49.9661 12.5453C49.7478 12.3116 49.5773 12.2608 49.0113 12.2608H48.5065V13.0876ZM25.7248 13.1764C25.2212 13.3384 24.9109 13.627 24.7175 14.1128C24.6417 14.3031 24.6184 14.4725 24.6166 14.8433C24.6147 15.2733 24.629 15.3576 24.7485 15.6156C24.9089 15.9623 25.1584 16.2351 25.4546 16.3878C26.2365 16.7909 27.3956 16.5435 27.8312 15.8805C27.9015 15.7736 27.9504 15.68 27.94 15.6726C27.9295 15.6652 27.7855 15.6018 27.6198 15.5317L27.3186 15.4042L27.1094 15.6149C26.8832 15.8428 26.6637 15.9293 26.3154 15.928C25.9002 15.9265 25.5938 15.7039 25.46 15.3067C25.355 14.995 25.2823 15.0122 26.6988 15.0122H27.9929V14.7277C27.9929 13.9743 27.5967 13.3787 26.9647 13.1821C26.5632 13.0573 26.1016 13.0551 25.7248 13.1764ZM52.8079 13.1338C52.3096 13.2521 51.8671 13.6119 51.6352 14.0874C51.5179 14.328 51.502 14.4153 51.502 14.8202C51.502 15.242 51.5149 15.3062 51.6593 15.6014C51.9766 16.2506 52.5093 16.5698 53.2754 16.5698C53.8248 16.5698 54.1567 16.4499 54.5116 16.1232C55.1462 15.5391 55.2594 14.5402 54.7717 13.8275C54.3774 13.2514 53.5476 12.9582 52.8079 13.1338ZM60.7641 13.1307C60.2792 13.2541 59.8594 13.599 59.6565 14.0409C59.5699 14.2296 59.5541 14.3534 59.5541 14.8433C59.5541 15.4907 59.6143 15.6808 59.9415 16.0657C60.3916 16.5955 61.4164 16.7432 62.1514 16.3844C62.4125 16.2569 62.9199 15.7506 62.8519 15.6854C62.8307 15.6649 62.6804 15.5943 62.5181 15.5285L62.223 15.4088L62.0628 15.5784C61.8484 15.8056 61.5733 15.927 61.2707 15.9283C60.9587 15.9297 60.7945 15.8679 60.5952 15.6743C60.4724 15.5549 60.297 15.1747 60.297 15.0276C60.297 15.0191 60.88 15.0122 61.5926 15.0122C62.7473 15.0122 62.8914 15.0036 62.9182 14.9334C62.9648 14.8111 62.8502 14.1701 62.7393 13.9326C62.4975 13.4143 62.0189 13.1264 61.3572 13.1009C61.1299 13.0922 60.8631 13.1056 60.7641 13.1307ZM38.6875 13.2499C38.5988 13.29 38.4532 13.403 38.364 13.5012L38.2017 13.6795V13.4528V13.2262H37.7937H37.3857L37.3983 14.9036L37.4109 16.581H37.7944H38.1778L38.2017 15.4225C38.2268 14.2114 38.2346 14.1672 38.4606 13.9543C38.6251 13.7993 39.0285 13.7593 39.2521 13.8757C39.5191 14.0148 39.5438 14.1475 39.5438 15.4451V16.6052H39.9546H40.3654L40.35 15.2898L40.3346 13.9744L40.1915 13.7141C39.9753 13.3211 39.7693 13.2051 39.2598 13.1895C38.9733 13.1808 38.7999 13.1991 38.6875 13.2499ZM64.5734 13.2581C64.4869 13.301 64.3629 13.3999 64.2978 13.4779L64.1792 13.6198V13.423V13.2262H63.7958H63.4124V14.9157V16.6052H63.7927H64.173L64.1881 15.4587C64.2046 14.2071 64.2304 14.0785 64.4894 13.9597C64.6608 13.881 64.9083 13.8872 65.0208 13.9729C65.072 14.0119 65.129 14.0444 65.1475 14.0453C65.193 14.0473 65.5212 13.479 65.5212 13.3981C65.5212 13.2076 64.8691 13.1113 64.5734 13.2581ZM35.6249 14.9036L35.6376 16.581L36.009 16.5951L36.3805 16.6092V14.9177V13.2262H35.9964H35.6123L35.6249 14.9036ZM55.6 13.266C55.6 13.3182 57.0775 16.4627 57.1357 16.5345C57.158 16.562 57.2365 16.5818 57.3101 16.5786C57.4374 16.5729 57.4813 16.4939 58.2206 14.9356C58.6478 14.0353 58.9986 13.2823 59.0001 13.2624C59.0017 13.2425 58.8128 13.2262 58.5805 13.2262H58.1581L57.7301 14.2923C57.4323 15.0338 57.2891 15.3379 57.2598 15.2911C57.2366 15.2541 57.0413 14.7798 56.8258 14.2371L56.4339 13.2503L56.0169 13.2364C55.7876 13.2287 55.6 13.242 55.6 13.266ZM68.4449 13.2557C68.4449 13.2739 68.7379 13.938 69.096 14.7316C69.6689 16.0013 69.7414 16.1901 69.6996 16.3053C69.6735 16.3773 69.4789 16.8326 69.2673 17.3172L68.8824 18.1981H69.3014H69.7203L70.7915 15.7484C71.3807 14.401 71.8714 13.2823 71.8821 13.2624C71.8927 13.2425 71.7101 13.2262 71.4762 13.2262H71.0509L70.629 14.2906C70.397 14.876 70.1942 15.3419 70.1783 15.3259C70.1624 15.31 69.9636 14.8364 69.7365 14.2736L69.3236 13.2503L68.8843 13.2364C68.6426 13.2288 68.4449 13.2375 68.4449 13.2557ZM26.1086 13.7075C25.8049 13.7665 25.5442 14.0128 25.4559 14.3244L25.4114 14.4813H26.2708C27.1038 14.4813 27.1302 14.4782 27.1302 14.3828C27.1302 14.2136 26.9484 13.916 26.7842 13.8162C26.5915 13.6992 26.3509 13.6605 26.1086 13.7075ZM60.999 13.7142C60.8973 13.7382 60.7536 13.8012 60.6796 13.8544C60.5526 13.9454 60.3449 14.299 60.3449 14.4241C60.3449 14.466 60.5749 14.4813 61.2076 14.4813C61.7687 14.4813 62.0704 14.4638 62.0704 14.4314C62.0704 14.3429 61.9252 14.0288 61.841 13.935C61.6589 13.7324 61.3098 13.6409 60.999 13.7142ZM53.0211 13.8135C52.7512 13.8749 52.4183 14.1923 52.3461 14.4571C52.2096 14.9573 52.367 15.4798 52.7262 15.7192C53.0142 15.9112 53.4319 15.9333 53.7307 15.7725C54.0521 15.5996 54.2251 15.323 54.249 14.9436C54.273 14.5646 54.201 14.3318 53.9854 14.0915C53.754 13.8336 53.392 13.7292 53.0211 13.8135Z" fill="#DDDEE2"/>
</svg>
